<?xml version="1.0" encoding="utf-8"?>
<!-- Generator: Adobe Illustrator 16.0.0, SVG Export Plug-In . SVG Version: 6.00 Build 0)  -->
<!DOCTYPE svg PUBLIC "-//W3C//DTD SVG 1.1//EN" "http://www.w3.org/Graphics/SVG/1.1/DTD/svg11.dtd">
<svg version="1.1" id="レイヤー_1" xmlns="http://www.w3.org/2000/svg" xmlns:xlink="http://www.w3.org/1999/xlink" x="0px"
	 y="0px" width="75.968px" height="75.967px" viewBox="0 0 75.968 75.967" enable-background="new 0 0 75.968 75.967"
	 xml:space="preserve">
<path fill="#DD534E" d="M37.984,75.967C17.04,75.967,0,58.929,0,37.985C0,17.04,17.04,0,37.984,0
	c20.945,0,37.984,17.04,37.984,37.985C75.968,58.929,58.929,75.967,37.984,75.967z M37.984,7.853
	c-16.615,0-30.131,13.518-30.131,30.132c0,16.613,13.517,30.132,30.131,30.132c16.614,0,30.13-13.519,30.13-30.132
	C68.115,21.371,54.598,7.853,37.984,7.853z M37.984,61.273c-12.842,0-23.29-10.448-23.29-23.288
	c0-12.842,10.448-23.292,23.29-23.292c12.841,0,23.29,10.45,23.29,23.292C61.274,50.825,50.826,61.273,37.984,61.273z
	 M37.984,22.089c-8.765,0-15.896,7.13-15.896,15.896c0,8.765,7.13,15.893,15.896,15.893S53.88,46.75,53.88,37.985
	C53.88,29.219,46.75,22.089,37.984,22.089z"/>
</svg>
