<?xml version="1.0" encoding="utf-8"?>
<!-- Generator: Adobe Illustrator 16.0.0, SVG Export Plug-In . SVG Version: 6.00 Build 0)  -->
<!DOCTYPE svg PUBLIC "-//W3C//DTD SVG 1.1//EN" "http://www.w3.org/Graphics/SVG/1.1/DTD/svg11.dtd">
<svg version="1.1" xmlns="http://www.w3.org/2000/svg" xmlns:xlink="http://www.w3.org/1999/xlink" x="0px" y="0px"
	 width="579.989258px" height="507.218262px" viewBox="0 0 579.989258 507.218262"
	 enable-background="new 0 0 579.989258 507.218262" xml:space="preserve">
<g id="コロナヘルス" display="none">
	<g display="inline">
		<path fill="#1C1D1D" d="M593.527344,307.725098c-1.341797,0-2.676758-0.081055-4.005859-0.239258
			c-59.757813-7.188477-84.168945-40.107422-100.325195-61.891113c-12.607422-17.003418-16.231445-20.786621-27.005859-21.113281
			c-3.272461,3.563965-12.503906,16.725586-21.509766,58.159668c-3.358398,15.451172-17.02832,26.431641-32.786133,26.43457
			c-0.202148,0-0.404297-0.00293-0.612305-0.005859l-26.28418-0.474609l-47.514648,199.742188
			c-3.607422,15.167969-17.162109,25.790039-32.636719,25.792969c-0.456055,0-0.907227-0.008789-1.370117-0.029297
			c-16.034668-0.647461-29.370117-12.560547-31.80957-28.424805l-42.838379-278.379883
			c-11.451172,48.582031-28.861816,106.677734-29.682617,109.40918c-3.34668,11.150391-12.237305,19.769531-23.491699,22.769531
			c-11.242676,3.005859-23.249023-0.041016-31.705566-8.043945c-3.525879-3.334961-34.827148-33.049805-48.283691-49.486328
			c-7.994629-9.759766-12.075195-22.367188-16.387695-35.713867c-0.895996-2.772461-2.075195-6.416992-3.370117-10.101563
			c-2.508301,4.34668-4.855469,8.746094-6.468262,11.777344c-7.254395,13.595703-12.988281,24.333008-22.977051,31.492188
			c-5.693848,4.078125-12.520508,6.271484-19.526367,6.277344l-94.738281,0.056641
			C60.230957,480.76416,289.994141,638.354004,289.994141,638.354004s228.026367-156.395508,360.291016-330.628906H593.527344z"/>
		<path fill="#1C1D1D" d="M-116.612305,238.643555l121.628418-0.072266c0.416504-0.780273,0.82666-1.540527,1.208496-2.260254
			c12.606934-23.630371,31.607422-59.229004,67.590332-59.229004c0.34668,0,0.687988,0.00293,1.034668,0.008789
			c42.393555,0.791992,56.636719,44.830078,64.28418,68.486328c1.560547,4.83252,3.873047,11.971191,5.231445,14.783691
			c0.635742,0.753906,1.329102,1.554688,2.075195,2.398438c5.890137-21.595215,12.208008-46.026367,16.543457-66.243164
			c4.49707-20.98584,35.202637-145.54834,36.503418-150.840332c3.832031-15.534668,18.242676-26.214355,34.075195-25.491699
			c15.98291,0.710938,29.243164,12.606934,31.676758,28.419434l42.665039,277.26416l14.052734-59.079102
			c3.601563-15.141602,17.132813-25.79248,32.641602-25.79248c0.203125,0,0.405273,0.00293,0.613281,0.005859l26.514648,0.47998
			c10.196289-35.277832,31.566406-84.128418,77.238281-84.128418c0.560547-0.005859,1.121094-0.011719,1.669922-0.011719
			c46.676758,0,67.336914,27.864746,82.475586,48.275391c13.283203,17.913574,22.954102,30.954102,52.549805,34.991699h99.819336
			c7.395508-12.719727,14.098633-25.442383,19.948242-38.113281C830.512695-46.704102,516.329102-277.958496,289.994141-14.586426
			C63.658691-277.958496-250.521484-46.704102-135.439453,202.495605
			C-129.887207,214.513184-123.557617,226.577148-116.612305,238.643555z"/>
	</g>
</g>
<g id="日本世界地球" display="none">
	<g display="inline">
		<g>
			<polygon fill="#1D1D1D" points="-28.110352,148.062012 -28.110352,225.11084 -136.052246,298.317871 -314.130371,298.317871 
				-314.130371,367.651855 -136.052246,367.651855 -136.052246,421.586426 -53.768555,421.586426 -26.783203,392.211426 
				61.250977,392.211426 61.250977,148.062012 			"/>
			<rect x="-354.82959" y="387.26123" fill="#1D1D1D" width="81.398926" height="125.880859"/>
			<rect x="-255.48877" y="387.26123" fill="#1D1D1D" width="102.046875" height="67.173828"/>
			<polygon fill="#1D1D1D" points="-28.11084,-5.923828 -28.11084,104.486816 -28.11084,126.143555 61.251465,126.143555 
				61.251465,104.486816 135.472656,104.486816 135.472656,-5.923828 			"/>
		</g>
		<g>
			<path fill="#1C1D1D" d="M907.592773,111.439941l-28.483398-8.164063l9.056641-34.95166l-46.443359-7.080078
				c0,0-8.827148,13.697754-17.03418,26.433594l-39.478516-11.31543l-103.166992,7.703613L658.62207,118.34082l22.774414,51.641113
				h35.480469l40.863281,129.703125h44.435547v-64.495605l110.305664-65.20752L907.592773,111.439941z"/>
			<polygon fill="#1C1D1D" points="849.825195,260.893066 815.729492,290.035645 828.931641,349.189941 828.931641,447.053223 
				870.717773,447.053223 870.717773,414.494629 931.166016,352.784668 934.818359,299.465332 			"/>
			<polygon fill="#1C1D1D" points="291.369141,251.299316 291.369141,327.251465 359.3125,349.141113 366.859375,443.787598 
				406.772461,443.787598 423.758789,327.251465 407.285156,251.299316 			"/>
			<polygon fill="#1C1D1D" points="364.708984,132.237793 354.347656,74.568848 321.033203,74.568848 331.396484,132.237793 			"/>
			<polygon fill="#1C1D1D" points="536.863281,236.214355 553.209961,283.312012 580.004883,272.146973 574.604492,235.17627 
				574.604492,212.004395 601.4375,212.004395 601.4375,184.514648 637.837891,164.295898 637.837891,107.355957 
				587.728516,70.827637 531.762695,70.827637 465.783203,95.110352 465.783203,60.164551 383.555664,69.036621 
				383.555664,103.404297 407.783203,105.082031 407.783203,123.979004 383.260742,123.973145 349.359375,182.566895 
				329.519531,182.083008 321.033203,223.614746 404.793945,223.614746 427.43457,200.049805 427.43457,245.336914 
				450.179688,302.605957 491.711914,271.202637 491.711914,239.099121 			"/>
			<polygon fill="#1C1D1D" points="645.271484,310.553223 648.854492,339.203613 618.574219,339.203613 623.775391,310.553223 
				582.574219,310.553223 532.115234,367.498535 574.959961,440.568848 609.628906,420.731934 638.115234,423.401855 
				659.303711,440.568848 692.148438,437.10498 707.373047,367.498535 674.830078,310.553223 			"/>
		</g>
	</g>
</g>
<g id="文房具本" display="none">
	<g display="inline">
		
			<path fill="none" stroke="#1C1D1D" stroke-width="17.6057" stroke-linecap="round" stroke-linejoin="round" stroke-miterlimit="10" d="
			M199.969238,627.181152h-510.382813c-8.381348,0-15.186523-6.488281-15.186523-14.477539V-46.856934
			c0-7.989746,6.805176-14.478027,15.186523-14.478027h79.874512c-12.281738,13.252441-23.401855,24.922363-29.418457,31.290527
			v632.977539C-136.349121,575.953613,139.555176,553.879395,199.969238,627.181152"/>
		
			<path fill="none" stroke="#1C1D1D" stroke-width="17.6057" stroke-linecap="round" stroke-linejoin="round" stroke-miterlimit="10" d="
			M199.969238,627.181152c-60.414063-73.301758-336.318359-51.227539-459.926758-24.248047
			c15.725586-16.695313,66.845703-69.94043,81.077637-92.014648c48.339844-13.489258,289.083984-57.59668,410.244141,22.390625
			c26.182617,17.24707,46.763184,40.30957,58.630371,70.691406L199.969238,627.181152z"/>
		
			<path fill="none" stroke="#1C1D1D" stroke-width="17.6057" stroke-linecap="round" stroke-linejoin="round" stroke-miterlimit="10" d="
			M289.992676-29.022461c-66.877441-171.105469-410.074219-109.482422-468.865723-93.053223"/>
		
			<path fill="none" stroke="#1C1D1D" stroke-width="17.6057" stroke-linecap="round" stroke-linejoin="round" stroke-miterlimit="10" d="
			M-178.879883-122.056641v632.975098c-14.231934,22.074219-65.352051,75.319336-81.077637,92.014648V-30.044434
			c6.016602-6.368164,17.136719-18.038086,29.418457-31.290527C-210.62207-82.854492-187.67627-108.40918-178.879883-122.056641z"/>
		
			<path fill="none" stroke="#1C1D1D" stroke-width="17.6057" stroke-linecap="round" stroke-linejoin="round" stroke-miterlimit="10" d="
			M380.019531,627.181152h510.382813c8.381836,0,15.186523-6.488281,15.186523-14.477539V-46.856934
			c0-7.989746-6.804688-14.478027-15.186523-14.478027H810.52832c12.28125,13.252441,23.402344,24.922363,29.418945,31.290527
			v632.977539C716.337891,575.953613,440.433594,553.879395,380.019531,627.181152"/>
		
			<path fill="none" stroke="#1C1D1D" stroke-width="17.6057" stroke-linecap="round" stroke-linejoin="round" stroke-miterlimit="10" d="
			M380.019531,627.181152c0,0-16.921875,26.427734-90.024902,26.427734s-90.025391-26.427734-90.025391-26.427734"/>
		
			<path fill="none" stroke="#1C1D1D" stroke-width="17.6057" stroke-linecap="round" stroke-linejoin="round" stroke-miterlimit="10" d="
			M380.019531,627.181152c60.414063-73.301758,336.318359-51.227539,459.927734-24.248047
			c-15.726563-16.695313-66.845703-69.94043-81.078125-92.014648c-48.339844-13.489258-289.083984-57.59668-410.244141,22.390625
			c-26.182617,17.24707-46.763672,40.30957-58.630371,70.691406L380.019531,627.181152z"/>
		
			<path fill="none" stroke="#1C1D1D" stroke-width="17.6057" stroke-linecap="round" stroke-linejoin="round" stroke-miterlimit="10" d="
			M289.996582-29.022461c66.877441-171.105469,410.07373-109.482422,468.865723-93.053223"/>
		
			<path fill="none" stroke="#1C1D1D" stroke-width="17.6057" stroke-linecap="round" stroke-linejoin="round" stroke-miterlimit="10" d="
			M758.869141-122.056641v632.975098c14.232422,22.074219,65.351563,75.319336,81.078125,92.014648V-30.044434
			c-6.016602-6.368164-17.137695-18.038086-29.418945-31.290527C790.611328-82.854492,767.665039-108.40918,758.869141-122.056641z"
			/>
		
			<line fill="none" stroke="#1C1D1D" stroke-width="17.6057" stroke-linecap="round" stroke-linejoin="round" stroke-miterlimit="10" x1="289.992676" y1="-29.022461" x2="289.992676" y2="603.980957"/>
	</g>
</g>
<g id="スポーツ食べ物" display="none">
	<g display="inline">
		<path fill="#1C1D1D" d="M427.912109,75.145508c0-95.025391-109.411133-199.412109-153.529297-199.412109
			c-44.117676,0-153.529297,104.386719-153.529297,199.412109s68.737305,144.705566,153.529297,144.705566
			S427.912109,170.170898,427.912109,75.145508z"/>
		
			<rect x="-160.005371" y="267.492676" fill="none" stroke="#1C1D1D" stroke-width="52.064899" stroke-linecap="round" stroke-linejoin="round" stroke-miterlimit="10" width="899.999512" height="389.427734"/>
		
			<path fill="none" stroke="#1C1D1D" stroke-width="52.064899" stroke-linecap="round" stroke-linejoin="round" stroke-miterlimit="10" d="
			M-160.005371,267.492676c37.058594-52.058594,171.17627-175.587891,305.293945-214.411621l594.705566,214.411621H-160.005371z"/>
		<path fill="#1C1D1D" d="M-160.005371-73.000977L52.488281,216.44043l117.583984-87.921387
			c0,0-70.588379-276.427246-75.882324-278.191895C88.895508-151.4375-160.005371-73.000977-160.005371-73.000977z"/>
		<rect x="-160.005371" y="399.968262" fill="#1C1D1D" width="899.999512" height="124.476563"/>
	</g>
</g>
<g id="ひらめき電球" display="none">
	<g display="inline">
		<g>
			<path fill="none" stroke="#1C1D1D" stroke-width="13.748199" stroke-linejoin="round" stroke-miterlimit="10" d="
				M-7.939453,473.67627c4.743652,30.523438,9.771484,62.910156,9.010742,72.488281
				c-1.745605,21.795898-27.525391,26.495117-49.455566,13.650391c-21.975586-12.844727-68.296387-100.625977-84.632324-159.882813"
				/>
			<path fill="none" stroke="#1C1D1D" stroke-width="13.748199" stroke-linejoin="round" stroke-miterlimit="10" d="
				M-233.297363,350.538574c-61.533203,27.852539-203.900879-70.509766-172.149902-162.703125
				C-422.314941-15.652832-220.261719-45.845703-184.376465-9.072754c57.241699-34.60791,230.541992-54.052734,278.168457,28.797363
				c90.291504-1.488281,124.333496,107.078613,114.365723,143.79834c37.195313,13.592285,60.35791,157.824219,9.754883,174.401367
				C192.61084,439.616699-8.22168,421.727051-50.637207,394.133301
				C-88.768555,416.862793-202.04248,395.380371-233.297363,350.538574z"/>
			<path fill="none" stroke="#1C1D1D" stroke-width="13.748199" stroke-linejoin="round" stroke-miterlimit="10" d="
				M-50.637207,394.133301c4.513672,42.21582,39.429688,107.461914,121.453125,103.981445
				c70.159668-2.976563,105.021973-63.132813,104.927246-103.981445"/>
			<g>
				
					<path fill="none" stroke="#1C1D1D" stroke-width="13.748199" stroke-linecap="round" stroke-linejoin="round" stroke-miterlimit="10" d="
					M-233.297363,350.538574c-14.387207-56.15332,53.547852-82.794922,109.144043-83.349609
					c38.105957-0.380859,69.744629-34.32959,94.756836-38.270508c53.083984-8.364258,86.277344,31.847656,109.41748,42.150391"/>
				
					<path fill="none" stroke="#1C1D1D" stroke-width="13.748199" stroke-linecap="round" stroke-linejoin="round" stroke-miterlimit="10" d="
					M-121.672363,329.112793c36.73584,2.976563,73.671875-26.045898,104.926758-13.394531
					c31.254883,12.650391,99.223633,34.820313,104.431152,98.744141"/>
				
					<path fill="none" stroke="#1C1D1D" stroke-width="13.748199" stroke-linecap="round" stroke-linejoin="round" stroke-miterlimit="10" d="
					M25.831543,179.979492c-14.13916-14.13916-21.988281-37.211914-21.98877-60.224609
					c0-34.18457,29.06543-56.784668,59.037109-47.543457c30.978516,9.551758,68.05127,36.460938,76.648926,60.442383
					c9.424316,26.286621,44.151855,44.156738,68.628906,30.869141"/>
				
					<path fill="none" stroke="#1C1D1D" stroke-width="13.748199" stroke-linecap="round" stroke-linejoin="round" stroke-miterlimit="10" d="
					M-123.135742,41.618164c60.039551-28.277832,144.086426-4.521973,154.782715,32.281738"/>
				
					<path fill="none" stroke="#1C1D1D" stroke-width="13.748199" stroke-linecap="round" stroke-linejoin="round" stroke-miterlimit="10" d="
					M39.23877,341.88623c29.100098,7.319336,80.71875-8.555664,109.37207-36.023438
					c31.213867-29.923828,25.424316-70.435547-11.305664-82.301758c-24.185059-7.813477-42.644043-32.263184-55.54248-69.298828"/>
				
					<path fill="none" stroke="#1C1D1D" stroke-width="13.748199" stroke-linecap="round" stroke-linejoin="round" stroke-miterlimit="10" d="
					M-342.575684,323.223145c61.401855-22.854492,87.946289-44.268555,79.758301-89.838379
					c-5.953613-33.132813-21.555664-51.499512-22.804688-79.866211"/>
				
					<path fill="none" stroke="#1C1D1D" stroke-width="13.748199" stroke-linecap="round" stroke-linejoin="round" stroke-miterlimit="10" d="
					M-327.904785,238.370605c-19.720703-43.905762-14.670898-96.768555-5.007324-123.479004
					c6.594238-18.226074,19.003418-50.299805,49.754395-47.209473c18.67041,1.875977,29.562988,25.318359,33.762207,41.655273
					c5.569824,21.668457,29.774902,39.669922,55.44873,39.297852"/>
				
					<path fill="none" stroke="#1C1D1D" stroke-width="13.748199" stroke-linecap="round" stroke-linejoin="round" stroke-miterlimit="10" d="
					M-262.004395,257.556152c13.395508-36.962891,68.048828-58.068848,100.791992-58.546875
					c38.871094-0.567871,80.494141-9.685547,97.85791-32.371582c12.861816-16.804199,15.505859-59.160645-14.260742-63.625977
					c-41.932617-6.289551-64.621094,13.76709-92.154785-3.720703c-42.470215-26.974121-41.094727-76.616211-14.606445-108.36377"/>
			</g>
		</g>
		<g>
			
				<path fill="none" stroke="#1C1D1D" stroke-width="13.748199" stroke-linecap="round" stroke-linejoin="round" stroke-miterlimit="10" d="
				M379.989258,288.562012c-16.635742,9.981445-27.746094,28.197266-27.746094,48.950195
				c0,31.693359,25.65918,57.352539,57.296875,57.352539c0.282227,0,0.563477-0.055664,0.789063-0.055664
				c-10.883789,10.432617-17.651367,25.094727-17.651367,41.336914c0,31.636719,25.660156,57.295898,57.296875,57.295898
				c5.019531,0,9.869141-0.676758,14.493164-1.916992"/>
			
				<path fill="none" stroke="#1C1D1D" stroke-width="13.748199" stroke-linecap="round" stroke-linejoin="round" stroke-miterlimit="10" d="
				M392.396484,160.434082c-8.40332-11.898926-13.366211-26.44873-13.366211-42.182617
				c0-40.660156,32.93457-73.594727,73.594727-73.594727c10.263672,0,19.963867,2.086914,28.874023,5.921387
				c-0.394531-3.608887-0.620117-7.218262-0.620117-10.884277c0-54.871094,44.495117-99.366211,99.366211-99.366211
				c22.896484,0,43.987305,7.726074,60.792969,20.809082"/>
			
				<path fill="none" stroke="#1C1D1D" stroke-width="13.748199" stroke-linecap="round" stroke-linejoin="round" stroke-miterlimit="10" d="
				M461.705078,449.905762c-2.086914,14.380859-1.015625,28.479492,2.762695,41.619141
				c10.376953,36.430664,41.336914,65.248047,81.264648,71.056641c38.178711,5.526367,74.383789-11.334961,95.305664-40.716797"/>
			
				<path fill="none" stroke="#1C1D1D" stroke-width="13.748199" stroke-linecap="round" stroke-linejoin="round" stroke-miterlimit="10" d="
				M461.5625,331.187988c-54.893555,0-99.393555-44.5-99.393555-99.393066s44.5-99.393066,99.393555-99.393066"/>
			
				<path fill="none" stroke="#1C1D1D" stroke-width="13.748199" stroke-linecap="round" stroke-linejoin="round" stroke-miterlimit="10" d="
				M523.148438,378.933105c-9.214844,11.996094-14.722656,27.045898-14.722656,43.404297
				c0,39.260742,31.844727,71.104492,71.104492,71.104492c26.283203,0,49.18457-14.231445,61.507813-35.388672"/>
			
				<path fill="none" stroke="#1C1D1D" stroke-width="13.748199" stroke-linecap="round" stroke-linejoin="round" stroke-miterlimit="10" d="
				M581.360352,121.702148c8.242188-10.133301,13.356445-22.992188,13.75-37.112305
				c0.941406-33.888184-25.78125-62.140137-59.669922-63.082031c-22.686523-0.630859-42.796875,11.104004-53.941406,29.070313"/>
			
				<path fill="none" stroke="#1C1D1D" stroke-width="13.748199" stroke-linecap="round" stroke-linejoin="round" stroke-miterlimit="10" d="
				M423.020508,244.026367c8.759766-20.128418,27.036133-35.6875,50.243164-39.998535
				c37.130859-6.897461,72.823242,17.611328,79.720703,54.742188c4.568359,24.592773-4.639648,48.553711-22.166992,63.936523
				c28.924805-5.374023,56.728516,13.71875,62.101563,42.643555c2.842773,15.303711-1.163086,30.294922-9.851563,41.814453"/>
			
				<path fill="none" stroke="#1C1D1D" stroke-width="13.748199" stroke-linecap="round" stroke-linejoin="round" stroke-miterlimit="10" d="
				M641.050781,195.628906c-38.149414,16.658203-83.731445,3.960938-107.342773-31.952148
				c-10.683594-16.233887-15.21582-34.736816-14.181641-52.77002"/>
			
				<line fill="none" stroke="#1C1D1D" stroke-width="13.748199" stroke-linecap="round" stroke-linejoin="round" stroke-miterlimit="10" x1="641.050781" y1="-38.863281" x2="641.050781" y2="521.864746"/>
			
				<path fill="none" stroke="#1C1D1D" stroke-width="13.748199" stroke-linecap="round" stroke-linejoin="round" stroke-miterlimit="10" d="
				M877.769531,491.524902c4.625,1.240234,9.474609,1.916992,14.494141,1.916992
				c31.636719,0,57.295898-25.65918,57.295898-57.295898c0-16.242188-6.766602-30.904297-17.651367-41.336914
				c0.225586,0,0.507813,0.055664,0.790039,0.055664c31.636719,0,57.295898-25.65918,57.295898-57.352539
				c0-20.75293-11.109375-38.96875-27.745117-48.950195"/>
			
				<path fill="none" stroke="#1C1D1D" stroke-width="13.748199" stroke-linecap="round" stroke-linejoin="round" stroke-miterlimit="10" d="
				M701.199219-38.863281c16.805664-13.083008,37.897461-20.809082,60.792969-20.809082
				c54.87207,0,99.367188,44.495117,99.367188,99.366211c0,3.666016-0.225586,7.275391-0.620117,10.884277
				c8.910156-3.834473,18.609375-5.921387,28.874023-5.921387c40.660156,0,73.59375,32.93457,73.59375,73.594727
				c0,15.733887-4.962891,30.283691-13.365234,42.182617"/>
			
				<path fill="none" stroke="#1C1D1D" stroke-width="13.748199" stroke-linecap="round" stroke-linejoin="round" stroke-miterlimit="10" d="
				M701.199219,521.864746c20.922852,29.381836,57.12793,46.243164,95.306641,40.716797
				c39.926758-5.808594,70.887695-34.625977,81.263672-71.056641c3.779297-13.139648,4.850586-27.238281,2.763672-41.619141"/>
			
				<path fill="none" stroke="#1C1D1D" stroke-width="13.748199" stroke-linecap="round" stroke-linejoin="round" stroke-miterlimit="10" d="
				M880.675781,331.187988c54.893555,0,99.392578-44.5,99.392578-99.393066s-44.499023-99.393066-99.392578-99.393066"/>
			
				<path fill="none" stroke="#1C1D1D" stroke-width="13.748199" stroke-linecap="round" stroke-linejoin="round" stroke-miterlimit="10" d="
				M701.199219,458.053223c12.323242,21.157227,35.225586,35.388672,61.507813,35.388672
				c39.260742,0,71.104492-31.84375,71.104492-71.104492c0-16.358398-5.506836-31.408203-14.722656-43.404297"/>
			
				<path fill="none" stroke="#1C1D1D" stroke-width="13.748199" stroke-linecap="round" stroke-linejoin="round" stroke-miterlimit="10" d="
				M860.739258,50.578125c-11.145508-17.966309-31.254883-29.701172-53.941406-29.070313
				c-33.888672,0.941895-60.612305,29.193848-59.669922,63.082031c0.392578,14.120117,5.507813,26.979004,13.75,37.112305"/>
			
				<path fill="none" stroke="#1C1D1D" stroke-width="13.748199" stroke-linecap="round" stroke-linejoin="round" stroke-miterlimit="10" d="
				M919.217773,244.026367c-8.759766-20.128418-27.036133-35.6875-50.243164-39.998535
				c-37.130859-6.897461-72.823242,17.611328-79.720703,54.742188c-4.569336,24.592773,4.639648,48.553711,22.166992,63.936523
				c-28.924805-5.374023-56.728516,13.71875-62.101563,42.643555c-2.84375,15.303711,1.163086,30.294922,9.850586,41.814453"/>
			
				<path fill="none" stroke="#1C1D1D" stroke-width="13.748199" stroke-linecap="round" stroke-linejoin="round" stroke-miterlimit="10" d="
				M822.711914,110.906738c1.03418,18.033203-3.498047,36.536133-14.182617,52.77002
				c-23.610352,35.913086-69.192383,48.610352-107.342773,31.952148"/>
			
				<line fill="none" stroke="#1C1D1D" stroke-width="13.748199" stroke-linecap="round" stroke-linejoin="round" stroke-miterlimit="10" x1="701.186523" y1="-38.863281" x2="701.186523" y2="521.864746"/>
		</g>
	</g>
</g>
<g id="乗り物">
	<g>
		<polygon fill="none" stroke="#011714" stroke-width="23.917299" stroke-linejoin="round" stroke-miterlimit="10" points="
			211.586426,323.470215 274.016602,357.872559 157.202637,495.259277 157.202637,292.440918 568.02832,11.958496 		"/>
		<polygon fill="none" stroke="#011714" stroke-width="23.917299" stroke-linejoin="round" stroke-miterlimit="10" points="
			274.016602,357.872559 157.202637,495.259277 211.586426,323.470215 		"/>
		<polygon fill="none" stroke="#011714" stroke-width="23.917299" stroke-linejoin="round" stroke-miterlimit="10" points="
			11.958496,210.549316 568.030273,11.972656 157.206543,292.458496 		"/>
		<polyline fill="none" stroke="#011714" stroke-width="23.917299" stroke-linejoin="round" stroke-miterlimit="10" points="
			274.015625,357.872559 431.087891,444.397949 568.02832,11.958496 		"/>
	</g>
</g>
</svg>
