<svg xmlns="http://www.w3.org/2000/svg" width="42.267" height="42.311" xml:space="preserve"><path fill="#3D3A39" d="M21.133 0C9.479 0 0 9.49 0 21.156 0 32.82 9.48 42.31 21.133 42.31s21.134-9.49 21.134-21.155C42.267 9.49 32.787 0 21.133 0zm0 39.91c-10.331 0-18.736-8.413-18.736-18.754C2.397 10.814 10.802 2.4 21.133 2.4s18.735 8.414 18.735 18.756c0 10.34-8.404 18.755-18.735 18.755zm3.115-26.952-3.115 4.672-3.115-4.672H14.74l3.75 5.624h-3.212v2.755h4.218v1.82H15.28v2.757h4.218v3.323h3.273v-3.323h4.216v-2.756H22.77v-1.82h4.216v-2.756h-3.21l3.748-5.624h-3.276z"/></svg>