<svg xmlns="http://www.w3.org/2000/svg" width="52.145" height="39.361" xml:space="preserve"><path fill="#C2322C" d="M-75.07 27.665c-.738-.84-1.884-1.343-3.068-1.343-.564 0-1.095.114-1.586.34a164.3 164.3 0 0 1-3.857 1.732.35.35 0 0 1-.14.02c-.287 0-.626-.162-.79-.38a82.22 82.22 0 0 1-9.916-17.058c-.162-.375.006-.873.157-.982a162.562 162.562 0 0 1 3.44-2.451c1.378-.965 1.999-2.898 1.445-4.502a74.616 74.616 0 0 1-2.079-7.108c-.42-1.758-2.205-2.954-4.019-2.58l-10.77 2.274a3.162 3.162 0 0 0-2.025 1.419c-.543.849-.712 1.928-.465 2.962a92.255 92.255 0 0 0 5.801 16.842 92.41 92.41 0 0 0 20.838 28.983c.735.688 1.707 1.085 2.666 1.085.947 0 1.798-.37 2.394-1.031l7.377-8.137c1.213-1.35 1.104-3.478-.243-4.741a75.305 75.305 0 0 1-5.16-5.344zm3.03 7.973-7.354 8.112c-.01.001-.025.003-.044.003-.118 0-.303-.058-.477-.22a89.8 89.8 0 0 1-8.855-9.611 89.297 89.297 0 0 1-12.922-22.232 88.928 88.928 0 0 1-3.95-12.415c-.07-.293.019-.498.07-.556l10.774-2.272c.077 0 .2.076.235.217a77.965 77.965 0 0 0 2.165 7.406c.093.268-.047.732-.26.881-1.155.801-2.333 1.64-3.496 2.49-1.394 1.011-1.922 3.112-1.202 4.78a85.406 85.406 0 0 0 10.295 17.71c.766 1.016 2.045 1.648 3.34 1.648.51 0 .991-.099 1.423-.288 1.304-.565 2.625-1.16 3.92-1.76a.606.606 0 0 1 .24-.044c.29 0 .553.13.663.254a78.405 78.405 0 0 0 5.376 5.568c.109.102.12.263.06.329zM-82.416 9.13a7.145 7.145 0 0 1 5.012 3.458 7.058 7.058 0 0 1 .51 6.04c-.075.196-.066.414.022.604s.249.34.446.413l1.494.551a.796.796 0 0 0 1.023-.466c1.08-2.88.811-6.061-.736-8.724a10.322 10.322 0 0 0-7.24-4.997.798.798 0 0 0-.918.648l-.265 1.56a.796.796 0 0 0 .653.912zm1.045-1.394a8.773 8.773 0 0 1 0 .001zm3.495-8.102a.798.798 0 0 0-.919.648l-.265 1.56a.785.785 0 0 0 .136.592c.123.17.309.286.517.32a11.737 11.737 0 0 1 8.236 5.686 11.589 11.589 0 0 1 .84 9.926.79.79 0 0 0 .469 1.019l1.493.55a.789.789 0 0 0 .61-.022.79.79 0 0 0 .414-.443 14.73 14.73 0 0 0-1.067-12.614A14.92 14.92 0 0 0-77.877-.365zm.516 1.716zm17.401 1.235C-63.578-3.637-69.743-7.893-76.876-9.09a.802.802 0 0 0-.595.135.786.786 0 0 0-.324.513l-.266 1.56c-.073.43.22.839.654.911C-71.214-4.93-65.86-1.235-62.72 4.17a20.67 20.67 0 0 1 1.496 17.701.791.791 0 0 0 .47 1.019l1.493.55a.794.794 0 0 0 .278.05.79.79 0 0 0 .746-.514 23.81 23.81 0 0 0-1.723-20.39zm-16.398-9.97zM-206.104 14.12c-1.52 0-2.751 1.244-2.751 2.78 0 1.536 1.231 2.78 2.751 2.78 1.52 0 2.751-1.244 2.751-2.78 0-1.536-1.231-2.78-2.75-2.78zm9.889 0c-1.52 0-2.751 1.244-2.751 2.78 0 1.536 1.231 2.78 2.75 2.78s2.753-1.244 2.753-2.78c0-1.536-1.233-2.78-2.752-2.78zm9.89 0c-1.52 0-2.753 1.244-2.753 2.78 0 1.536 1.233 2.78 2.752 2.78s2.751-1.244 2.751-2.78c0-1.536-1.231-2.78-2.75-2.78zm-7.786-17.648h-4.208c-13.214 0-23.964 8.77-23.964 19.546 0 9.53 8.57 17.657 19.888 19.255a35.525 35.525 0 0 1-2.339 2.87 1.32 1.32 0 0 0-.246 1.374c.186.466.621.784 1.119.816.359.023.72.035 1.076.035 4.396 0 8.446-1.82 10.961-4.9 12.202-.95 21.678-9.403 21.678-19.45 0-10.777-10.751-19.546-23.965-19.546zm1.55 36.424a1.29 1.29 0 0 0-.966.527c-1.656 2.255-4.33 3.754-7.375 4.193a38.597 38.597 0 0 0 1.91-2.709c.252-.39.279-.886.072-1.302a1.295 1.295 0 0 0-1.078-.717c-11.044-.69-19.695-8.102-19.695-16.87 0-9.334 9.589-16.928 21.374-16.928h4.208c11.785 0 21.374 7.594 21.374 16.928 0 8.823-8.708 16.236-19.824 16.878zM4.382 32.639v1.382c0 .402.334.74.73.74H6.42l13.068-13.377-2.196-1.962L4.382 32.639zm28.273-11.255 13.069 13.378h1.31c.395 0 .73-.34.73-.74V32.64L34.852 19.422l-2.197 1.962zM47.033 4.446h-1.776l-17.4 15.466c-.966.859-2.597.857-3.56-.004L6.989 4.446H5.111c-.395 0-.73.34-.73.742v.877l17.986 16.068c1.023.914 2.367 1.37 3.713 1.37 1.34 0 2.68-.452 3.701-1.36L47.764 6.159v-.97a.747.747 0 0 0-.73-.743zm0-4.446H5.111C2.293 0 0 2.327 0 5.188v28.986c0 2.86 2.293 5.187 5.111 5.187h41.922c2.819 0 5.112-2.327 5.112-5.187V5.188c0-2.86-2.293-5.188-5.112-5.188zm2.19 34.174c0 1.225-.982 2.222-2.19 2.222H5.111c-1.208 0-2.19-.997-2.19-2.222V5.188c0-1.226.982-2.223 2.19-2.223h41.922c1.208 0 2.19.997 2.19 2.223v28.986z"/></svg>