<svg xmlns="http://www.w3.org/2000/svg" width="42.268" height="42.315" xml:space="preserve"><path fill="#C2322C" d="M10.531 29.307.523 39.277a1.774 1.774 0 0 0 0 2.516c.35.348.806.522 1.264.522.457 0 .914-.174 1.263-.522l10.025-9.986a19.475 19.475 0 0 1-2.544-2.5zM25.31 0c-9.352 0-16.96 7.579-16.96 16.895S15.958 33.79 25.31 33.79s16.959-7.579 16.959-16.895S34.66 0 25.308 0zm0 30.823c-7.71 0-13.982-6.248-13.982-13.928 0-7.682 6.273-13.929 13.982-13.929 7.71 0 13.981 6.247 13.981 13.929 0 7.68-6.271 13.928-13.981 13.928z"/></svg>