<svg xmlns="http://www.w3.org/2000/svg" width="52.137" height="43.896" xml:space="preserve"><path fill="#C2322C" d="M147.213 31.193c-.737-.84-1.884-1.342-3.067-1.342-.565 0-1.096.113-1.586.338a164.3 164.3 0 0 1-3.857 1.733.35.35 0 0 1-.141.02c-.287 0-.625-.162-.79-.38a82.22 82.22 0 0 1-9.916-17.058c-.162-.375.006-.873.157-.982a162.562 162.562 0 0 1 3.441-2.45c1.377-.966 1.998-2.9 1.444-4.503a74.616 74.616 0 0 1-2.079-7.108c-.42-1.758-2.205-2.954-4.019-2.58L116.03-.844a3.162 3.162 0 0 0-2.025 1.42c-.543.848-.712 1.927-.464 2.961a92.255 92.255 0 0 0 5.8 16.842A92.41 92.41 0 0 0 140.18 49.36c.734.689 1.706 1.085 2.665 1.085.947 0 1.799-.369 2.394-1.031l7.377-8.137c1.213-1.35 1.104-3.477-.243-4.74a75.306 75.306 0 0 1-5.16-5.345zm3.031 7.973-7.354 8.112c-.01.001-.026.003-.045.003-.117 0-.303-.057-.477-.22a89.8 89.8 0 0 1-8.854-9.61 89.297 89.297 0 0 1-12.922-22.232 88.928 88.928 0 0 1-3.951-12.415c-.07-.293.02-.498.07-.557l10.774-2.271c.077 0 .201.076.235.216a77.965 77.965 0 0 0 2.165 7.407c.093.267-.047.731-.26.88-1.155.801-2.333 1.641-3.496 2.49-1.394 1.011-1.922 3.112-1.202 4.78a85.406 85.406 0 0 0 10.296 17.711c.765 1.016 2.044 1.647 3.339 1.647.51 0 .991-.098 1.423-.288 1.304-.565 2.625-1.159 3.92-1.76a.606.606 0 0 1 .24-.043c.29 0 .553.129.664.254a78.405 78.405 0 0 0 5.376 5.567c.108.102.119.264.06.329zm-10.377-26.507a7.145 7.145 0 0 1 5.01 3.458 7.058 7.058 0 0 1 .51 6.04c-.074.197-.065.414.023.605s.25.339.446.412l1.495.552a.796.796 0 0 0 1.023-.466c1.08-2.881.81-6.062-.737-8.725a10.322 10.322 0 0 0-7.24-4.997.798.798 0 0 0-.918.649l-.265 1.56a.796.796 0 0 0 .653.912zm1.045-1.393zm3.494-8.103a.8.8 0 0 0-.919.648l-.264 1.561a.785.785 0 0 0 .135.59c.123.17.309.287.517.322a11.737 11.737 0 0 1 8.236 5.686 11.589 11.589 0 0 1 .84 9.926.79.79 0 0 0 .469 1.018l1.493.55a.789.789 0 0 0 .61-.022.79.79 0 0 0 .415-.443 14.73 14.73 0 0 0-1.068-12.613 14.92 14.92 0 0 0-10.464-7.223zm.516 1.716zm17.401 1.235c-3.618-6.222-9.783-10.478-16.916-11.676a.802.802 0 0 0-.595.135.786.786 0 0 0-.324.513l-.265 1.56c-.074.431.22.84.653.912 6.193 1.04 11.547 4.735 14.687 10.14a20.67 20.67 0 0 1 1.497 17.7.791.791 0 0 0 .468 1.019l1.494.55a.794.794 0 0 0 .278.05.79.79 0 0 0 .746-.514 23.81 23.81 0 0 0-1.723-20.389zm-16.398-9.97zM16.18 17.647c-1.52 0-2.752 1.246-2.752 2.78 0 1.537 1.232 2.782 2.752 2.782 1.519 0 2.75-1.245 2.75-2.781 0-1.535-1.231-2.78-2.75-2.78zm9.888 0c-1.52 0-2.751 1.246-2.751 2.78 0 1.537 1.231 2.782 2.75 2.782s2.753-1.245 2.753-2.781c0-1.535-1.233-2.78-2.752-2.78zm9.89 0c-1.52 0-2.752 1.246-2.752 2.78 0 1.537 1.232 2.782 2.752 2.782s2.75-1.245 2.75-2.781c0-1.535-1.23-2.78-2.75-2.78zM28.172 0h-4.208C10.75 0 0 8.77 0 19.546c0 9.53 8.57 17.657 19.889 19.256a35.525 35.525 0 0 1-2.34 2.869 1.32 1.32 0 0 0-.246 1.374c.186.467.621.784 1.119.816.359.024.72.035 1.076.035 4.397 0 8.446-1.82 10.961-4.899 12.203-.951 21.678-9.403 21.678-19.451C52.137 8.77 41.387 0 28.172 0zm1.55 36.424a1.29 1.29 0 0 0-.966.527c-1.656 2.255-4.33 3.754-7.375 4.194a38.597 38.597 0 0 0 1.911-2.71c.251-.39.278-.885.07-1.301a1.295 1.295 0 0 0-1.076-.718c-11.044-.69-19.696-8.102-19.696-16.87 0-9.334 9.589-16.928 21.374-16.928h4.208c11.786 0 21.374 7.594 21.374 16.928 0 8.823-8.708 16.236-19.824 16.878z"/></svg>