<svg xmlns="http://www.w3.org/2000/svg" width="52.141" height="56.019" xml:space="preserve"><path fill="#C2322C" d="M33.784 36.766c-.738-.84-1.884-1.343-3.068-1.343-.564 0-1.095.114-1.586.34a164.3 164.3 0 0 1-3.857 1.732.35.35 0 0 1-.14.02c-.287 0-.626-.162-.79-.38a82.22 82.22 0 0 1-9.916-17.058c-.162-.375.006-.873.157-.982a162.562 162.562 0 0 1 3.44-2.451c1.378-.965 1.999-2.898 1.445-4.502a74.616 74.616 0 0 1-2.079-7.108c-.42-1.758-2.205-2.954-4.019-2.58L2.601 4.729A3.162 3.162 0 0 0 .575 6.147C.033 6.996-.136 8.075.11 9.109A92.255 92.255 0 0 0 5.912 25.95 92.41 92.41 0 0 0 26.75 54.934c.735.689 1.707 1.085 2.666 1.085.947 0 1.798-.37 2.394-1.031l7.377-8.137c1.213-1.35 1.104-3.477-.243-4.741a75.306 75.306 0 0 1-5.16-5.344zm3.03 7.973L29.46 52.85c-.01.001-.025.003-.044.003-.118 0-.303-.058-.477-.22a89.8 89.8 0 0 1-8.855-9.611A89.297 89.297 0 0 1 7.162 20.791a88.928 88.928 0 0 1-3.95-12.415c-.07-.293.019-.498.07-.556l10.774-2.272c.077 0 .2.077.235.217a77.965 77.965 0 0 0 2.165 7.406c.093.268-.047.732-.26.881-1.155.801-2.333 1.64-3.496 2.49-1.394 1.011-1.922 3.112-1.202 4.78a85.406 85.406 0 0 0 10.295 17.71c.766 1.016 2.045 1.648 3.34 1.648.51 0 .991-.098 1.423-.288 1.304-.565 2.625-1.16 3.92-1.76a.606.606 0 0 1 .24-.044c.29 0 .553.13.663.254a78.405 78.405 0 0 0 5.376 5.568c.109.102.12.263.06.329zM26.438 18.232a7.145 7.145 0 0 1 5.012 3.458 7.058 7.058 0 0 1 .51 6.04c-.075.196-.066.414.022.604s.249.34.446.413l1.494.551a.796.796 0 0 0 1.023-.466c1.08-2.88.811-6.061-.736-8.724a10.322 10.322 0 0 0-7.24-4.997.798.798 0 0 0-.918.648l-.265 1.56a.796.796 0 0 0 .653.912zm1.045-1.394a8.773 8.773 0 0 1 0 .001zm3.495-8.102a.795.795 0 0 0-.919.648l-.265 1.56a.785.785 0 0 0 .136.592c.123.17.309.286.517.32a11.737 11.737 0 0 1 8.236 5.686 11.589 11.589 0 0 1 .84 9.926.79.79 0 0 0 .469 1.019l1.493.55a.789.789 0 0 0 .61-.022.79.79 0 0 0 .414-.443 14.73 14.73 0 0 0-1.067-12.614 14.92 14.92 0 0 0-10.464-7.222zm.516 1.716zm17.401 1.235C45.276 5.464 39.111 1.208 31.978.011a.802.802 0 0 0-.595.135.786.786 0 0 0-.324.513l-.266 1.56c-.073.43.22.84.654.911 6.193 1.04 11.547 4.736 14.687 10.14a20.67 20.67 0 0 1 1.496 17.701.791.791 0 0 0 .47 1.019l1.493.55a.794.794 0 0 0 .278.05.79.79 0 0 0 .746-.514 23.81 23.81 0 0 0-1.723-20.389zm-16.398-9.97z"/></svg>