<svg width="248" height="86" fill="none" xmlns="http://www.w3.org/2000/svg"><path d="M217.423 86H198l30.575-54H248l-30.577 54Z" fill="#CD312C"/><path d="M212 26h-20v11h20V26ZM115 86V74.966H99.508v-18.68H115V45.253H99.508v-9.22H115V25H72v11.033h8.14v9.22H72v11.033h8.14V86" fill="#3E3A39"/><path d="M20.738 86H1l40.262-69H61L20.738 86Z" fill="#CD312C"/><path d="M21 0H0v11h21V0ZM21 21H0v11h21V21Z" fill="#3E3A39"/><path d="M62 4.95a4.95 4.95 0 0 0-9.868-.527h-4.264A4.95 4.95 0 0 0 38 4.95a4.95 4.95 0 0 0 9.868.527h4.264a4.951 4.951 0 0 0 4.393 4.395V17h1.053V9.873A4.95 4.95 0 0 0 62 4.953V4.95ZM42.95 6.283a1.33 1.33 0 1 1-.001-2.66 1.33 1.33 0 0 1 0 2.66ZM154.743 86H135l17.26-30H172l-17.257 30Z" fill="#CD312C"/><path d="M164 25h-29v11h29V25ZM178 45h-43v11h43V45Z" fill="#3E3A39"/><path d="M174.98 31.108v-4.216c2.26-.264 4.02-2.37 4.02-4.93 0-2.741-2.014-4.962-4.5-4.962s-4.5 2.221-4.5 4.962c0 2.56 1.762 4.668 4.02 4.93v4.216c-2.258.264-4.02 2.37-4.02 4.93 0 2.741 2.014 4.962 4.5 4.962s4.5-2.221 4.5-4.962c0-2.56-1.76-4.668-4.02-4.93Zm-1.688-9.146c0-.738.541-1.334 1.21-1.334.669 0 1.21.596 1.21 1.334 0 .737-.541 1.334-1.21 1.334-.669 0-1.21-.597-1.21-1.334Z" fill="#CD312C"/></svg>