<?xml version="1.0" encoding="utf-8"?>
<!-- Generator: Adobe Illustrator 16.0.0, SVG Export Plug-In . SVG Version: 6.00 Build 0)  -->
<!DOCTYPE svg PUBLIC "-//W3C//DTD SVG 1.1//EN" "http://www.w3.org/Graphics/SVG/1.1/DTD/svg11.dtd">
<svg version="1.1" id="レイヤー_1" xmlns="http://www.w3.org/2000/svg" xmlns:xlink="http://www.w3.org/1999/xlink" x="0px"
	 y="0px" width="1240px" height="430px" viewBox="0 0 1240 430" enable-background="new 0 0 1240 430" xml:space="preserve">
<g>
	<path fill-rule="evenodd" clip-rule="evenodd" fill="#BC2C27" d="M285,0c-12.790039,0-23.318359,9.610352-24.803223,22h-20.393555
		C238.318359,9.610352,227.790039,0,215,0c-13.807129,0-25,11.192871-25,25s11.192871,25,25,25
		c12.790039,0,23.318359-9.609863,24.803223-22h20.396973C261.567871,39.401367,270.595703,48.436523,282,49.803223V85h6V49.803223
		C300.389648,48.318359,310,37.790039,310,25C310,11.192871,298.807129,0,285,0z M215,32c-3.866211,0-7-3.133789-7-7s3.133789-7,7-7
		c3.865723,0,7,3.133789,7,7S218.865723,32,215,32z"/>
	<polygon fill-rule="evenodd" clip-rule="evenodd" fill="#C2322D" points="206,85 4.686523,430 103.686523,430 305,85 	"/>
	<rect fill-rule="evenodd" clip-rule="evenodd" fill="#3C3630" width="105" height="55"/>
	<rect y="105" fill-rule="evenodd" clip-rule="evenodd" fill="#3C3630" width="105" height="55"/>
</g>
<g>
	<path fill-rule="evenodd" clip-rule="evenodd" fill="#BC2C27" d="M876,155.185547v-20.371094
		c12.391602-1.48291,22-12.023438,22-24.814453c0-13.807129-11.193359-25-25-25c-13.807617,0-25,11.192871-25,25
		c0,12.791016,9.608398,23.331543,22,24.814453v20.371094c-12.391602,1.48291-22,12.023438-22,24.814453
		c0,13.807129,11.192383,25,25,25c13.806641,0,25-11.192871,25-25C898,167.208984,888.391602,156.668457,876,155.185547z M866,110
		c0-3.866211,3.133789-7,7-7s7,3.133789,7,7s-3.133789,7-7,7S866,113.866211,866,110z"/>
	<polygon fill-rule="evenodd" clip-rule="evenodd" fill="#C2322D" points="760,279 674.228516,430 774.228516,430 860,279 	"/>
	<rect x="675" y="125" fill-rule="evenodd" clip-rule="evenodd" fill="#3C3630" width="145" height="55"/>
	<rect x="675" y="225" fill-rule="evenodd" clip-rule="evenodd" fill="#3C3630" width="215" height="54"/>
</g>
<g>
	<rect x="960" y="130" fill-rule="evenodd" clip-rule="evenodd" fill="#3C3630" width="100" height="55"/>
	<polygon fill-rule="evenodd" clip-rule="evenodd" fill="#C2322D" points="1142,160 989.907227,430 1087.907227,430 1240,160 	"/>
</g>
<g>
	<polygon fill-rule="evenodd" clip-rule="evenodd" fill="#3C3630" points="575,181 575,125 360,125 360,181 400,181 400,226 
		360,226 360,282 400,282 400,430 498,430 575,430 575,374 498,374 498,282 575,282 575,226 498,226 498,181 	"/>
</g>
</svg>
