<?xml version="1.0" encoding="utf-8"?>
<!-- Generator: Adobe Illustrator 16.0.0, SVG Export Plug-In . SVG Version: 6.00 Build 0)  -->
<!DOCTYPE svg PUBLIC "-//W3C//DTD SVG 1.1//EN" "http://www.w3.org/Graphics/SVG/1.1/DTD/svg11.dtd">
<svg version="1.1" id="レイヤー_1" xmlns="http://www.w3.org/2000/svg" xmlns:xlink="http://www.w3.org/1999/xlink" x="0px"
	 y="0px" width="100px" height="76.293px" viewBox="0 0 100 76.293" enable-background="new 0 0 100 76.293" xml:space="preserve">
<path fill="#AB7E35" d="M99.999,24.377c-0.043,2.805-2.353,5.043-5.158,5c-2.805-0.044-5.043-2.353-4.999-5.158
	c0.044-2.805,2.354-5.043,5.157-5C97.805,19.262,100.043,21.572,99.999,24.377"/>
<path fill="#AB7E35" d="M10.159,24.298c0,2.805-2.274,5.08-5.08,5.08C2.273,29.377,0,27.103,0,24.298s2.273-5.08,5.079-5.08
	C7.884,19.218,10.159,21.493,10.159,24.298"/>
<path fill="#AB7E35" d="M55.198,5.079c0,2.805-2.274,5.08-5.079,5.08c-2.806,0-5.08-2.274-5.08-5.08S47.313,0,50.119,0
	C52.924,0,55.198,2.274,55.198,5.079"/>
<path fill="#AB7E35" d="M93.505,29.885c-9.063,5.452-15.71,11.595-20.462,15.589C63.075,34.1,58.978,27.26,50.236,13.225
	c-8.85,14.057-12.884,20.883-22.765,32.181c-4.79-3.983-11.49-10.095-20.679-15.545c-0.02,0.013-0.039,0.025-0.059,0.038
	c0.354,1.163,7.386,11.824,10.333,21.617c3.237,9.384,2.538,24.291,2.566,24.776c10.64-1.86,20.664-3.118,30.449-3.088
	c9.784-0.027,19.813,1.231,30.454,3.09c0.027-0.486-0.668-15.366,2.593-24.757C86.099,41.736,93.152,31.049,93.505,29.885z
	 M49.753,67.371c-4.632,0-7.539-1.938-9.482-4.071l1.871-2.429c1.736,1.801,3.989,3.401,7.369,3.401
	c3.506,0,5.993-2.049,5.993-5.288c0-3.431-2.361-5.727-9.208-5.727v-2.855c6.111,0,8.188-2.354,8.188-5.374
	c0-2.806-1.927-4.569-4.988-4.569c-2.415,0-4.458,1.215-6.154,2.925l-2.003-2.36c2.233-2.067,4.876-3.596,8.291-3.596
	c5.019,0,8.634,2.667,8.634,7.327c0,3.475-2.11,5.699-5.245,6.856v0.181c3.486,0.823,6.264,3.372,6.264,7.335
	C59.282,64.27,55.04,67.371,49.753,67.371z"/>
<path fill="#AB7E35" d="M38.214,17.824c-7.126,0.656-7.657,1.188-8.313,8.313c-0.656-7.125-1.188-7.657-8.313-8.313
	c7.125-0.656,7.657-1.188,8.313-8.313C30.557,16.637,31.088,17.168,38.214,17.824"/>
<path fill="#AB7E35" d="M79.061,17.824c-7.126,0.656-7.657,1.188-8.313,8.313c-0.655-7.125-1.188-7.657-8.313-8.313
	c7.126-0.656,7.658-1.188,8.313-8.313C71.403,16.637,71.935,17.168,79.061,17.824"/>
</svg>
