<?xml version="1.0" encoding="utf-8"?>
<!-- Generator: Adobe Illustrator 16.0.0, SVG Export Plug-In . SVG Version: 6.00 Build 0)  -->
<!DOCTYPE svg PUBLIC "-//W3C//DTD SVG 1.1//EN" "http://www.w3.org/Graphics/SVG/1.1/DTD/svg11.dtd">
<svg version="1.1" id="レイヤー_1" xmlns="http://www.w3.org/2000/svg" xmlns:xlink="http://www.w3.org/1999/xlink" x="0px"
	 y="0px" width="100px" height="76.293px" viewBox="0 0 100 76.293" enable-background="new 0 0 100 76.293" xml:space="preserve">
<path fill="#EFAF00" d="M99.999,24.377c-0.043,2.805-2.353,5.043-5.158,5c-2.805-0.044-5.043-2.353-4.999-5.158s2.354-5.043,5.158-5
	C97.806,19.262,100.043,21.572,99.999,24.377"/>
<path fill="#EFAF00" d="M10.159,24.298c0,2.805-2.274,5.08-5.08,5.08C2.274,29.377,0,27.103,0,24.298s2.274-5.08,5.079-5.08
	C7.885,19.218,10.159,21.493,10.159,24.298"/>
<path fill="#EFAF00" d="M55.198,5.079c0,2.806-2.273,5.08-5.079,5.08s-5.079-2.274-5.079-5.08C45.04,2.274,47.313,0,50.119,0
	S55.198,2.274,55.198,5.079"/>
<path fill="#EFAF00" d="M38.215,17.824c-7.126,0.656-7.657,1.188-8.313,8.313c-0.656-7.125-1.188-7.657-8.313-8.313
	c7.126-0.656,7.657-1.188,8.313-8.313C30.558,16.637,31.089,17.168,38.215,17.824"/>
<path fill="#EFAF00" d="M79.061,17.824c-7.126,0.656-7.657,1.188-8.313,8.313c-0.655-7.125-1.188-7.657-8.313-8.313
	c7.125-0.656,7.657-1.188,8.313-8.313C71.403,16.637,71.935,17.168,79.061,17.824"/>
<path fill="#EFAF00" d="M93.505,29.885c-9.063,5.452-15.71,11.595-20.461,15.588C63.075,34.101,58.979,27.26,50.236,13.225
	c-8.849,14.057-12.885,20.883-22.765,32.182c-4.79-3.984-11.489-10.096-20.68-15.546c-0.019,0.012-0.038,0.024-0.059,0.037
	c0.354,1.163,7.387,11.824,10.333,21.618c3.238,9.383,2.538,24.291,2.566,24.776c10.641-1.861,20.664-3.118,30.448-3.088
	c9.785-0.027,19.813,1.231,30.455,3.09c0.027-0.485-0.668-15.366,2.593-24.757C86.099,41.735,93.153,31.048,93.505,29.885z
	 M58.93,66.828H42.638v-3.099h6.611V42.483h-5.258v-2.394c2.629-0.462,4.539-1.162,6.139-2.119h2.842v25.759h5.958V66.828z"/>
</svg>
