<svg xmlns="http://www.w3.org/2000/svg" width="162.979" height="74.219" xml:space="preserve"><g fill-rule="evenodd" clip-rule="evenodd" fill="#CD312C"><path d="M7.218 0c.733.504.377 1.08.146 1.685-1.619 4.247-3.421 8.438-4.777 12.77-1.584 5.063-1.936 10.264-.463 15.479 2.275 8.063 7.64 12.64 15.98 13.482 2.262.23 4.543.293 6.817.372 1.746.06 1.86.16 1.448 1.895-1.02 4.288-1.848 8.608-1.578 13.042.344 5.651 2.372 10.355 7.827 12.906 2.984 1.395 6.171 1.532 9.397 1.207 5.493-.555 10.65-2.412 15.852-4.092 9.51-3.07 19.116-5.8 29.037-7.153 4.1-.559 8.27-.855 12.408-.852 5.167.005 11.103 1.553 15.985 6.84.213-1.383.347-2.753.646-4.085.538-2.39 1.703-4.476 3.442-6.203.292-.29.862-.298 1.304-.436-.118.43-.107.975-.373 1.274-3.523 3.967-4.543 8.405-2.717 13.453.14.389-.064.902-.108 1.358-.327-.21-.83-.348-.956-.645-2.53-5.992-7.459-8.72-13.487-9.901-5.225-1.023-10.433-.381-15.625.369-11.789 1.704-23.114 5.194-34.394 8.88-4.603 1.502-9.286 2.626-14.2 2.572-8.182-.09-14.02-5.215-15.09-13.33-.637-4.838.085-9.56 1.09-14.267l.302-1.403c-2.472-.187-4.9-.298-7.312-.566C7.851 43.543 1.444 37.053.22 27.077c-.762-6.214.535-12.08 2.667-17.827C3.928 6.445 5.132 3.7 6.29.938 6.435.59 6.745.311 6.978 0h.24zM162.979 16.8c-3.802 9.905-11.768 15.678-20.524 20.66-.623.355-1.28.65-1.92.975-.035.017-.061.05-.182.154 1.505 1.786 2.07 3.891 1.83 6.207-.455 4.407-3.017 7.262-6.847 9.134-3.05 1.49-6.357 2.08-9.669 2.614-.274.044-.613-.314-.922-.484.246-.252.455-.662.745-.73 2.016-.484 4.118-.7 6.057-1.386 2.04-.723 4.094-1.646 5.85-2.894 2.737-1.945 3.89-4.86 3.449-8.19-.158-1.186-.822-2.417-1.567-3.387-1.032-1.347-1.13-1.372.478-2.116 7.498-3.462 13.81-8.432 18.903-14.933 1.365-1.742 2.536-3.609 2.89-5.843.424-2.679-.189-4.984-2.548-6.628-.235-.164-.265-.623-.39-.944.383-.02.849-.193 1.135-.036 1.606.877 2.434 2.359 2.944 4.054.09.3.192.595.288.893v2.88z"/></g><path fill="#CD312C" d="M53.375 31.378c-1.721.973-3.411 1.976-5.07 3.013-.82.506-1.721.75-2.704.73a.946.946 0 0 1-.522-.097c-.185-.084-.313-.216-.385-.396s-.097-.607-.076-1.284c.45-3.277 1.669-6.205 3.656-8.784.737-.635 1.341-.984 1.813-1.047.47-.064 1.024.348 1.66 1.236.204.508.444.825.72.951.278.127.57.054.877-.22.307-.276.225-.762-.246-1.46a7.362 7.362 0 0 0-1.813-1.712 5.105 5.105 0 0 0-1.167-.603 2.339 2.339 0 0 0-.769-.127c-.164 0-.317.022-.46.064-.431.085-.815.27-1.153.554s-.64.587-.906.905a14.526 14.526 0 0 0-2.305 3.884c-.573 1.428-1.004 2.649-1.29 3.662-.287 1.016-.44 1.81-.461 2.38-.082.994.215 1.95.891 2.87.676.92 1.598 1.316 2.766 1.189a6.217 6.217 0 0 0 2.18-.666 227.907 227.907 0 0 0 5.409-2.95c.348-.232.517-.555.506-.967s-.153-.691-.43-.84a2.826 2.826 0 0 0-.721-.285zm19.098.222c-.8.465-1.424.845-1.874 1.141-.451.297-.891.545-1.322.745-.43.202-.768.091-1.013-.333-.246-.422-.451-1.183-.615-2.283-.144-.908-.205-2.187-.184-3.838.061-.232.112-.522.153-.87.041-.35.103-.735.185-1.16.102-.442 0-.813-.307-1.108a1.92 1.92 0 0 0-1.045-.54c-.349-.105-.738 0-1.168.317-.246-.233-.487-.465-.722-.697s-.497-.434-.783-.603a4.544 4.544 0 0 0-.891-.38 1.527 1.527 0 0 0-.43-.064c-.165 0-.338.032-.523.095a1.963 1.963 0 0 0-.86.508 12.305 12.305 0 0 0-2.243 2.823 31.075 31.075 0 0 0-2.612 6.341 6.206 6.206 0 0 0 .093 3.3c.143.507.378.924.706 1.251.327.328.727.55 1.198.666.471.116.911.08 1.322-.11a6.891 6.891 0 0 0 1.659-.857c.922-.824 1.766-1.722 2.534-2.695s1.49-1.967 2.167-2.981c.061.74.153 1.342.276 1.807.205.846.389 1.506.553 1.983.164.475.41.882.738 1.22.327.338.67.56 1.03.666.357.106.823-.074 1.397-.539a80.91 80.91 0 0 0 1.598-1.379c.511-.455.86-.788 1.044-1 .266-.422.384-.745.354-.966-.031-.223-.17-.375-.415-.46zM64.7 28.333a30.725 30.725 0 0 1-4.793 5.836 2.602 2.602 0 0 1-.844.634c-.318.147-.61.2-.876.159-.226-.465-.313-1.02-.262-1.666.051-.645.19-1.274.415-1.887a28.04 28.04 0 0 1 1.26-3.076c.512-1.078 1.034-1.967 1.567-2.664.532-.697.9-1.13 1.106-1.3.553-.38 1.055-.327 1.506.158.184.212.42.455.706.73.287.275.686.539 1.199.793-.328 1.036-.656 1.797-.984 2.283zm17.433-7.58c-.389-.295-.88-.443-1.474-.443a5.755 5.755 0 0 0-2.92.983l-.368.253c-.656.466-1.127.846-1.413 1.142a9.147 9.147 0 0 0-.769.888c-.819 1.227-.89 2.358-.215 3.394a7.948 7.948 0 0 0 2.581 2.41c.922.528 1.72 1.047 2.397 1.554l.277.221c.368.297.63.63.783 1 .154.37.148.735-.015 1.094a3.593 3.593 0 0 1-.277.476 2.768 2.768 0 0 1-.43.412c-.758.486-1.506.82-2.243.999s-1.28.232-1.629.158c-.348-.074-.625-.459-.83-1.157-.06-.402-.214-.656-.46-.761-.246-.105-.471-.043-.676.19a1.713 1.713 0 0 0-.4.808 2.187 2.187 0 0 0-.03.809c.062.212.184.46.369.746.184.285.43.517.737.697s.753.333 1.336.46c.584.127 1.322.079 2.213-.143s1.736-.544 2.534-.967l.123-.063c.615-.338 1.024-.804 1.23-1.396.225-.655.276-1.29.153-1.903-.225-1.225-.789-2.156-1.69-2.79-.573-.401-1.147-.794-1.72-1.174a7.025 7.025 0 0 0-.492-.348c-.737-.487-1.336-.92-1.797-1.301s-.712-.708-.753-.982c-.041-.276.102-.657.43-1.143.307-.465.717-.92 1.229-1.363l.154-.127c.573-.465 1.3-.824 2.181-1.078.84-.022 1.475.19 1.905.634.307.148.538.1.691-.142.154-.244.17-.571.046-.985-.122-.412-.379-.765-.768-1.062zm15.389 10.402c-.492.276-1.086.635-1.783 1.078-.696.445-1.52.926-2.473 1.444-.953.518-1.859.978-2.72 1.379-.614.275-1.13.445-1.55.507-.42.064-.774.033-1.06-.094a4.802 4.802 0 0 1-.508-.46 1.383 1.383 0 0 1-.353-.65c-.226-.888-.236-1.745-.031-2.569.45.043.84-.021 1.168-.19 1.229-.423 2.596-1.063 4.101-1.92 1.506-.855 2.474-1.494 2.904-1.917.225-.192.44-.461.645-.809.205-.35.323-.799.354-1.348.03-.55-.021-.994-.154-1.332a9.128 9.128 0 0 0-.476-1.015 3.73 3.73 0 0 0-1.168-1.174c-.43-.273-.86-.412-1.29-.412-.103 0-.195.012-.277.032-.778.127-1.603.423-2.473.888-.871.465-1.741 1.217-2.612 2.252-.87 1.036-1.48 2.05-1.828 3.045-.328.867-.533 1.406-.614 1.617-.165-.084-.37-.084-.615 0s-.38.401-.4.951c.042.316.277.74.707 1.269-.102.718-.03 1.5.215 2.346.185.867.543 1.57 1.076 2.11s1.172.923 1.92 1.157c.748.232 1.46.243 2.135.032a8.524 8.524 0 0 0 1.445-.588c.47-.242.916-.48 1.336-.713.42-.232 1.08-.697 1.982-1.395a64.514 64.514 0 0 0 2.182-1.712c.327-.402.522-.767.583-1.095.062-.327-.061-.565-.368-.714zm-8.68-4.138c.603-.834 1.213-1.511 1.828-2.03.614-.517 1.218-.904 1.812-1.158.676-.253 1.255-.19 1.737.192.48.38.476.982-.016 1.806-.369.53-1.035 1.095-1.997 1.697a30.671 30.671 0 0 1-2.704 1.523c-.84.412-1.546.703-2.12.872.369-1.1.855-2.066 1.46-2.902zM116.034 30.604c2.896-3.875 4.993-6.947 6.295-9.218 1.3-2.27 2.014-3.979 2.14-5.125.126-1.146.031-2.177-.283-3.094a9.91 9.91 0 0 0-1.353-2.594c-.589-.812-1.848-1.594-3.778-2.344a9.017 9.017 0 0 0-3.525-.687c-1.007 0-2.056.146-3.147.437-2.56.625-4.554 1.522-5.98 2.688-1.428 1.167-2.33 2.125-2.707 2.875-.378.75-.463 1.396-.252 1.937.21.542.598 1.022 1.164 1.438.567.417 1.049.667 1.448.75.399.084.745-.125 1.039-.625.713-1.833 1.846-3.188 3.4-4.063 1.551-.875 3.156-1.301 4.815-1.28 1.657.02 3.063.354 4.217 1 1.154.646 1.606 1.468 1.354 2.468s-1.175 2.812-2.77 5.437c-1.595 2.625-3.861 5.678-6.798 9.157-2.938 3.48-4.848 5.615-5.729 6.406a73.053 73.053 0 0 1-2.99 2.531 10.912 10.912 0 0 1-3.745 1.969 2.484 2.484 0 0 0-.945 1.312c0 .5.136.928.41 1.282.272.354.586.687.944 1 .356.312.755.562 1.196.75.44.187.89.26 1.353.218 1.678-.333 3.368-.656 5.068-.968s4.941-.729 9.726-1.25c4.784-.52 8.413-1.01 10.89-1.469.461-.083.922-.354 1.384-.813.462-.458.714-1.02.756-1.687.041-.666-.274-1.063-.944-1.188-1.26.21-3.473.511-6.642.907-3.169.396-5.896.687-8.183.875-2.288.187-4.397.26-6.326.218 2.77-2.29 5.602-5.375 8.498-9.25z"/></svg>