<svg xmlns="http://www.w3.org/2000/svg" width="200.55" height="28.481" xml:space="preserve"><path fill="#863939" d="M15.679 14.766a9.857 9.857 0 0 0-2.865-.422c-.978 0-1.91.083-2.795.246.116-1.71.192-3.182.227-4.412s.087-2.408.157-3.533c.815-.187 1.508-.34 2.08-.457l1.467-.3a9.661 9.661 0 0 0 1.31-.368c.28-.187.238-.545-.123-1.073-.361-.527-.663-.784-.908-.773a4.917 4.917 0 0 0-.716.088c-.49.094-1.491.281-3.005.562-.326-.609-.64-1.03-.943-1.265-.303-.234-.618-.363-.943-.387h-.07c-.303 0-.548.153-.734.457.023.47.046.984.07 1.547a70.913 70.913 0 0 0-4.193.896c-1.49.364-2.492.65-3.004.862-.233.188-.338.358-.315.51.023.152.093.392.21.72.116.329.314.575.594.738.28.165.582.2.908.106a8.46 8.46 0 0 1 .909-.211 72.32 72.32 0 0 1 2.27-.633 30.45 30.45 0 0 1 2.55-.527c.094 1.336.123 2.678.088 4.025a47.732 47.732 0 0 1-.297 4.166c-.698.211-1.48.55-2.34 1.02-.862.47-1.73 1.032-2.603 1.687A8.232 8.232 0 0 0 .48 20.531c-.396.751-.547 1.283-.454 1.6.093.316.337.744.734 1.283.372.516.896.955 1.572 1.318.675.364 1.455.516 2.34.457.886-.058 1.783-.58 2.69-1.564.886-1.007 1.514-2.244 1.887-3.709.373-1.464.583-2.501.63-3.111.558-.234 1.297-.387 2.218-.457.92-.07 1.712-.04 2.376.088.663.128 1.1.263 1.31.404.605.422.984.973 1.135 1.652.151.68.064 1.384-.262 2.11-.28.726-.658 1.436-1.136 2.127a9.387 9.387 0 0 1-1.729 1.88c-.07.329-.046.61.07.844.117.235.344.404.681.51.338.105.665.135.978.088.315-.047.6-.188.857-.422a14.856 14.856 0 0 0 1.782-2.18 7.418 7.418 0 0 0 1.083-3.322 5.102 5.102 0 0 0-.856-3.287 5.048 5.048 0 0 0-2.708-2.074zm-9.154 5.537a8.058 8.058 0 0 1-1.362 2.092c-.303.375-.67.603-1.101.685-.431.083-.792.013-1.083-.21a2.172 2.172 0 0 1-.646-.757c.256-.866.833-1.67 1.729-2.408s1.916-1.318 3.057-1.74c-.07.821-.268 1.6-.594 2.338zm16.386-8.385c-.14-.352-.314-.615-.524-.791a2.714 2.714 0 0 0-.63-.404c-.209-.094-.418-.07-.628.07-.35.329-.524.703-.524 1.125.093.703.303 1.606.629 2.707a13.825 13.825 0 0 0 1.258 2.988c.21.352.471.516.786.492.314-.022.553-.117.716-.28.163-.164.22-.505.174-1.02-.418-1.64-.838-3.27-1.257-4.887zm15.83-10.266c-.325-.163-.623-.158-.89.018s-.46.393-.577.65l-4 6.504C32.12 10.7 31.207 12.258 30.53 13.5a33.644 33.644 0 0 0-1.677 3.516c-.209.47-.28.926-.209 1.37.07.516.372.822.908.915.512.118.85-.07 1.013-.563a8.075 8.075 0 0 1 .961-2.76c.477-.83.926-1.622 1.345-2.373.42-.749.979-1.628 1.677-2.636-.14 1.36-.257 2.719-.35 4.078-.07.937-.151 2.062-.244 3.375-.047.562-.093 1.173-.14 1.828-.14 2.087-.14 3.973 0 5.66.047.82.477 1.383 1.293 1.688.63.117 1.014-.059 1.153-.528 0-.445-.047-.761-.14-.949-.372-1.172-.442-3.094-.21-5.766.093-.984.198-2.061.315-3.234.21-2.039.442-4.36.699-6.96-.047-.423-.326-.82-.839-1.196.373-.844.798-1.588 1.276-2.233a99.929 99.929 0 0 0 1.694-2.373c.302-.398.49-.784.56-1.16.046-.75-.245-1.265-.874-1.547zm18.972 11.672c-1.072.188-3.052.516-5.94.985.117-.914.268-2.543.455-4.887.162-.445.01-.89-.455-1.336a5.576 5.576 0 0 0-.664-.492c-.629-.187-1.019-.194-1.17-.018s-.215.44-.192.791a9.627 9.627 0 0 0-.105.95c-.047.562-.082 1.23-.104 2.003a45.064 45.064 0 0 1-.28 3.586c-2.47.586-4.961 1.279-7.477 2.074a13.67 13.67 0 0 0-.908.317c-.233.094-.332.224-.297.387.035.164.081.404.14.72.057.317.221.628.489.932.267.305.559.382.873.228.315-.152.588-.263.821-.334 1.001-.351 2.131-.72 3.39-1.107s2.316-.662 3.178-.826c-.023.351-.058.962-.104 1.828-.047.867-.163 2.403-.35 4.605-1.56.375-2.679.645-3.354.81-.676.163-1.397.315-2.166.456.023.399.075.78.157 1.143s.28.668.595.914c.314.246.64.334.978.263a5.06 5.06 0 0 0 .925-.28c.722-.329 2.48-.792 5.276-1.39s4.379-.837 4.751-.72c.722.117 1.2-.188 1.433-.914.07-.68-.21-1.137-.838-1.371-.56-.188-1.288-.181-2.184.017-.897.2-1.916.382-3.057.545-.163-1.945-.035-4.136.384-6.574 1.653-.374 3.028-.633 4.123-.774s2.108-.246 3.04-.316c.465-.14.744-.293.838-.457.046-.469-.07-.926-.35-1.371-.536-.422-1.152-.55-1.851-.387zm-14.57.387c.373-.257.676-.55.91-.879.115-.14.232-.292.348-.457a158.498 158.498 0 0 1 3.39-4.43 115.487 115.487 0 0 1 3.668-4.43c.21-.257.43-.567.664-.931.232-.363.22-.72-.035-1.072a2.033 2.033 0 0 0-.979-.739 7.562 7.562 0 0 0-.488-.351 5.68 5.68 0 0 0-.7.492 527.735 527.735 0 0 1-4.227 5.977c-1.165 1.617-2.41 3.34-3.738 5.168-.21.328-.361.668-.454 1.02-.07.28.058.609.384.983.466.024.885-.093 1.258-.351zm45.61-6.258c-.303-.117-.6-.17-.89-.158a4.223 4.223 0 0 0-.857.123l-2.078.475c-.664.152-1.31.322-1.94.51.094-.54.123-.985.088-1.337a3.58 3.58 0 0 0-.227-.966c-.117-.293-.385-.533-.804-.721-.233-.093-.431-.14-.594-.14-.117 0-.198.034-.244.105-.14.164-.268.422-.385.773a60.4 60.4 0 0 1-.244 1.705c-.047.27-.152.663-.314 1.178-1.91.516-3.215.879-3.913 1.09s-1.34.399-1.922.562c.21-.96.384-1.64.524-2.039.093-.327.128-.638.105-.931a1.571 1.571 0 0 0-.35-.844c-.209-.27-.437-.427-.68-.475-.245-.046-.472.035-.682.246a26.449 26.449 0 0 0-.716 2.092 33.737 33.737 0 0 0-.716 2.9c-.467.212-1.253.54-2.359.985-1.106.446-2.58 1.09-4.42 1.934-.535.21-.687.597-.454 1.16.093.329.268.592.525.79.255.2.506.3.75.3s.507-.093.787-.282a40.905 40.905 0 0 1 2.812-1.388c.827-.364 1.45-.638 1.87-.827-.048.563-.094 1.125-.14 1.688a13.998 13.998 0 0 0-.035 1.723c0 .962.227 1.863.68 2.707a5.151 5.151 0 0 0 1.905 2.004c.815.492 1.613.803 2.393.931.78.13 1.718.182 2.813.158 1.118-.07 2.072-.25 2.864-.545.792-.293 1.404-.562 1.835-.808.43-.246.757-.457.978-.633s.355-.404.402-.686a1.47 1.47 0 0 0-.088-.808c-.104-.258-.297-.469-.576-.633-.536.281-1.194.586-1.974.914-.78.33-1.724.621-2.83.88-1.107.258-2.451.258-4.035 0-.886-.259-1.456-.586-1.712-.985-.257-.399-.426-.961-.507-1.688a11.78 11.78 0 0 1-.017-2.32c.07-.82.256-1.723.559-2.707 1.653-.633 2.882-1.09 3.685-1.371.804-.282 1.508-.48 2.114-.598-.256.984-.541 1.793-.856 2.426s-.582 1.037-.803 1.213c-.222.176-.53.322-.926.44.21.469.402.831.576 1.09.175.258.39.444.647.562.256.118.541.135.856.052.314-.082.727-.637 1.24-1.67.536-1.077.92-1.939 1.153-2.584.232-.644.477-1.364.734-2.162 1.14-.281 2.276-.562 3.406-.843a30.645 30.645 0 0 1 3.232-.633c.302-.07.437-.181.401-.334a50.119 50.119 0 0 0-.174-.721 2.037 2.037 0 0 0-.472-.879zm16.265-.773a.583.583 0 0 0-.174-.035c-.257 0-.607.14-1.05.421a117.921 117.921 0 0 0-4.96 3.534 301.338 301.338 0 0 0-4.856 3.779 2.55 2.55 0 0 0-.891.967A1.5 1.5 0 0 0 93 16.629c.162.445.43.786.803 1.02.63.492 1.77 1.236 3.424 2.232 1.653.997 3.168 1.898 4.542 2.707s2.294 1.366 2.76 1.67c.396-.047.728-.211.995-.492s.332-.69.193-1.23c-.303-.445-1.113-.997-2.428-1.653-1.316-.655-2.696-1.406-4.14-2.25s-2.516-1.594-3.215-2.25a18.182 18.182 0 0 1 1.852-1.81c.675-.574 1.817-1.442 3.424-2.602a41.614 41.614 0 0 1 4.786-3.006c.28-.187.413-.398.402-.633-.012-.234-.18-.55-.506-.95-.327-.397-.618-.632-.874-.702zm20.84-2.18c-.268-.304-.583-.44-.943-.404a3.828 3.828 0 0 0-1.065.263c-.513-.023-1.154.07-1.922.282-.117-1.008-.315-1.676-.594-2.004-.28-.328-.589-.433-.926-.317-.338.118-.6.4-.786.844l-.978 2.04-1.258.21c-.676.07-1.34.2-1.991.387-.374.188-.63.469-.769.844-.023.375.215.709.716 1.001.5.294 1.252.464 2.254.51-.7 2.438-1.334 5.186-1.905 8.244-.57 3.059-.833 4.953-.786 5.678.047.727.11 1.29.193 1.688.08.399.261.767.54 1.107.28.34.513.592.7.756.442.164.804.193 1.083.088s.49-.229.629-.37.104-.421-.105-.843c-.536-.563-.827-1.137-.874-1.723-.047-.585.053-1.752.297-3.498.245-1.745.6-3.615 1.066-5.607.465-1.992 1.141-4.078 2.026-6.258 2.307-.445 3.587-.714 3.844-.809l1.152-.421c.49-.258.745-.528.769-.81s-.099-.573-.367-.878zm1.73 10.02c.232.07.49.07.768 0a49.553 49.553 0 0 0 2.813-.334c.663-.106 1.275-.24 1.834-.405.559-.163.792-.515.7-1.054-.188-.305-.48-.586-.875-.844a2.253 2.253 0 0 0-1.362-.352c-1.445.211-2.9.457-4.367.739-.397.094-.688.246-.874.457s-.187.504 0 .878c.256.211.489.4.699.563.21.164.43.281.664.352zM139.64 3.48c.07-.257.07-.55 0-.878a1.092 1.092 0 0 0-.506-.739c-.269-.163-.612-.292-1.031-.386a1.044 1.044 0 0 0-.245-.036c-.302 0-.489.176-.56.528.094 1.031.164 2.18.21 3.445.048 1.125.315 1.84.804 2.145.49.305.99.34 1.502.105 0-.374-.051-.896-.157-1.564-.104-.668-.11-1.54-.017-2.62zm-5.258 2.374c-.407-.645-.729-1.201-.961-1.67-.163-.539-.49-.902-.978-1.09-.489-.187-.827-.229-1.013-.123s-.327.263-.42.474c.117.516.31 1.108.577 1.776s.617 1.254 1.048 1.758c.43.504.96.943 1.59 1.318.279.14.582.176.908.105s.466-.433.42-1.09c-.373-.327-.764-.813-1.171-1.458zm-1.293 14.8a3.03 3.03 0 0 0-.82-.123 12.587 12.587 0 0 1-2.115-.386c-.687-.188-1.222-.422-1.606-.704a3.21 3.21 0 0 0-1.276-.562c-.326.048-.593.2-.803.457-.21.259-.234.621-.07 1.09.232.492.594.867 1.082 1.125.722.351 1.456.638 2.202.861.745.224 1.525.404 2.34.545.513.094.967.018 1.363-.228.396-.247.605-.616.629-1.108 0-.304-.081-.521-.245-.65-.163-.128-.39-.234-.681-.317zm27.008-14.853c-.292-.093-.554-.117-.786-.07-.653.14-1.3.287-1.94.439-.64.153-1.322.311-2.044.475-.186-.493-.39-1.002-.611-1.53s-.413-.967-.576-1.318c-.234-.328-.582-.55-1.048-.668a4.088 4.088 0 0 0-.49-.035c-.21 0-.36.047-.454.14a.805.805 0 0 0-.279.633c.162.727.337 1.313.524 1.758.186.446.35.997.489 1.652-2.702.727-4.472 1.237-5.31 1.53-.839.293-1.84.627-3.005 1.002-.466.328-.641.632-.524.914.116.28.314.569.594.861.279.293.57.47.873.527.302.06.64.007 1.013-.158a58.738 58.738 0 0 1 3.634-1.3c1.304-.423 2.457-.785 3.458-1.09.397 1.29.623 2.355.682 3.199.057.843.023 1.471-.105 1.88-.129.41-.425.804-.891 1.178-.233.493-.262.897-.087 1.213s.454.475.839.475c.383 0 .803-.176 1.258-.528s.808-.83 1.065-1.44c.28-.61.384-1.524.314-2.743-.07-1.218-.268-2.531-.593-3.938.535-.234 1.083-.404 1.641-.51s1.327-.274 2.306-.51c.232-.046.448-.151.646-.316.198-.163.221-.468.07-.914-.152-.444-.372-.714-.663-.808zm-7.634 17.982c-.607-.222-1.362-.697-2.272-1.424-.908-.725-1.712-1.674-2.41-2.847a1.975 1.975 0 0 0-.908-.756 3.164 3.164 0 0 0-1.083-.246c-.35-.012-.618.118-.804.386-.186.27-.174.58.035.932a40.548 40.548 0 0 0 2.393 3.076c.78.903 1.904 1.752 3.372 2.55.791.35 1.432.526 1.921.526s.85-.117 1.083-.351.257-.691.07-1.371a20.787 20.787 0 0 1-1.397-.475zm24.364-7.611c-.536.54-1.1 1.13-1.694 1.775a33.388 33.388 0 0 1-1.834 1.846c-.63.586-1.142 1.008-1.537 1.266-.513.258-.933.153-1.258-.317-.49-.75-.88-1.481-1.171-2.197-.291-.715-.571-1.664-.838-2.848a14.756 14.756 0 0 1-.367-3.568c-.024-.328-.088-.65-.192-.967s-.291-.568-.56-.756a2.24 2.24 0 0 0-.89-.369c-.327-.058-.583-.058-.77 0-.186.06-.29.346-.314.861.14 1.336.332 2.626.577 3.868.245 1.243.553 2.408.926 3.498.372 1.09.873 2.14 1.502 3.146.35.54.804.98 1.363 1.319.56.34 1.165.522 1.817.544a3.372 3.372 0 0 0 1.816-.439 4.948 4.948 0 0 0 1.433-1.213c1.234-1.476 1.98-2.413 2.236-2.812.256-.399.437-.838.541-1.319.105-.48.093-.808-.035-.984s-.379-.286-.75-.334zm9.153-5.695c0-.305-.046-.603-.14-.897a1.315 1.315 0 0 0-.523-.703 3.113 3.113 0 0 0-.839-.404 1.576 1.576 0 0 0-.558-.106.472.472 0 0 0-.454.281.906.906 0 0 0-.07.598l.4 2.83c.2 1.395.473 2.97.822 4.729.163.586.43 1.102.804 1.547.163.118.425.158.786.123.36-.036.588-.216.682-.545-.094-.445-.216-1.218-.368-2.32-.15-1.102-.332-2.813-.542-5.133zm11.363 13.394c-.63-.047-.967.259-1.014.914.047 1.43.315 2.403.804 2.918.093.328.25.55.471.668.221.117.437.14.647.07.209-.07.466-.14.769-.21-.024-.68-.118-1.676-.28-2.989-.164-.773-.629-1.23-1.397-1.37zm3.11-22.658c-.142-.246-.397-.51-.77-.791-.372-.281-.78-.422-1.223-.422s-.733.352-.873 1.055c-.35 2.25-.67 4.512-.961 6.785-.291 2.274-.513 4.342-.664 6.205s-.087 3.557.192 5.08c.07.259.157.498.262.72.105.224.355.405.752.546.465-.047.745-.181.838-.405.093-.222.116-.497.07-.826-.373-2.18-.198-5.279.524-9.299.721-4.019 1.328-6.614 1.817-7.787.162-.327.175-.615.035-.861z"/></svg>