<svg xmlns="http://www.w3.org/2000/svg" xml:space="preserve" width="45.453" height="96.787"><path fill="none" d="m-189.494-26.383-2.062.295s1.963 6.479 1.963 6.184.099-6.479.099-6.479M-159.849-28.444c.197.392 1.277 6.086 1.277 6.086l2.159-4.417zM-108.636-.326l-3.129 1.333s1.18 5.847 1.283 5.641 1.077-2.102 1.128-2.717c.051-.617.718-4.257.718-4.257M-77.686-1.058s-2.452.48-3.09.267-.534.905-.534.905l1.332 6.607s2.026-.852 2.026-1.225 1.065-5.861.266-6.554M-170.672 24.263c.798-3.986 2.392-8.502 2.923-10.097s3.454-5.048 3.454-5.048V4.335l.798-3.189 2.922 2.834 10.274 2.834 4.252 2.48 1.594.355s6.731 4.251 7.44 4.783c.708.53 5.846 5.314 6.909 6.023s5.49 4.251 5.49 4.251l5.492 3.898 4.429 3.896s-20.017 27.457-20.903 28.874-8.857 12.4-8.857 12.4v14.347999999999999l-1.594 3.189c-.354.709-5.138 6.554-5.138 6.554l.178 5.315s4.074 14.702 4.251 15.765.531 4.251.531 6.023-.53 4.074-.53 4.782 1.77 12.223 1.77 12.223v3.897l.532 20.017h-35.074l-3.72-9.566-1.594 9.389-39.325.354s1.417-10.097 1.594-10.805c.178-.71 2.48-13.64 2.48-13.64s1.948-17.182 2.126-18.6c.177-1.417 1.594-7.44 1.594-7.44l5.846-15.589-.709-.531.354-5.668s-1.24-2.834-1.594-3.366c-.354-.531-1.24-3.365-1.417-4.074s-.354-9.743-.354-10.806.886-13.816.886-13.816l-10.63 7.085s-2.656.885-3.719.532c-1.063-.355-7.617-1.95-7.617-1.95s-.709-1.593-1.24-2.302c-.532-.71-4.783-9.92-4.783-9.92l-.885-9.034-1.595-6.2 7.263-4.783.886-.354-2.303 9.212.531 4.96 6.377 12.754 2.48-6.555 1.24-12.4s6.732-3.897 6.909-4.783.354-19.307.354-19.307c1.417-.887 1.948-3.367 1.948-4.075 5.138-2.48 20.549-9.388 22.32-9.743l4.96-8.148 2.126-1.417 3.011 2.834-.708 4.074s11.336 21.788 14.171 24.8c1.417-.177 1.594-2.746 1.594-2.746"/><path fill="none" d="M-50.57 49.86c1.948 1.417 6.553 1.949 6.553 1.949l7.086-6.377s1.418 2.657 1.772 3.365 1.594 4.429 1.771 6.2c.177 1.772.177 5.846.177 5.846s-.708 1.771.532 3.542c1.24 1.772 2.48 4.252 2.834 6.2.355 1.95.71 8.326.886 10.452s-.354 6.73-3.72 8.502-12.046 3.012-14.348 3.012-8.503-2.303-9.389-3.72-3.188-4.429-3.188-4.429l-1.24 9.566-1.241 11.868c.178 2.303.709 7.972.709 7.972l-.531 4.96-2.48 1.417.53 4.96s1.95 6.909 1.95 8.148c0 1.24.531 9.212.886 10.629s2.833 20.724 2.833 20.724l-74.221 1.064 1.24-18.6s2.656-18.777 2.656-19.308.178-8.68.178-8.68-1.062.177-1.95-.354c-.884-.532-2.479-2.834-2.655-5.137-.178-2.303 2.656-22.497 2.656-22.497s.887-9.034.532-10.097c-.354-1.063-1.063-4.783-1.063-4.783l-1.949-5.315-6.377 1.95-5.314.885-1.772-5.845 4.252-13.64 2.48-9.389 11.16-8.857s5.137-3.365 7.617-3.012l6.023-.531 3.897-1.24 1.417-.354 3.189-3.72.885.53s3.897 8.15 5.846 9.744c0 0 1.772.531 2.48 1.063.709.532-.354 1.417.709.532s8.68-6.91 8.68-6.91l4.251-3.896 1.77-1.771-.353-.71.354-1.77s2.657 1.063 2.835 1.77c.176.71 2.656 6.378 2.656 6.378l8.148 4.428s2.126 1.772 3.012 1.95c.886.176 4.074.353 4.074.353s-1.593.354-1.24 3.012c.355 2.657 1.95 2.302 1.95 2.302l3.01-2.834.709 1.949s.354 3.011 1.24 3.188 3.365.177 3.365.177l1.949.178s-2.657 2.48-.708 3.011"/><circle cx="-180.62" cy="-20.79" r="1.235" fill="#918B86"/><circle cx="-190.18" cy="36.967" r="1.202" fill="#918B86"/><circle cx="-175.418" cy="107.469" r="1.202" fill="#918B86"/><ellipse cx="-240.849" cy="43.48" fill="#918B86" rx=".759" ry="1.411" transform="rotate(-173.314 -240.85 43.48)"/><ellipse cx="-225.213" cy="46.902" fill="#918B86" rx=".64" ry="1.191" transform="rotate(-156.104 -225.213 46.902)"/><circle cx="-168.2" cy="-20.703" r="1.235" fill="#918B86"/><circle cx="-101.012" cy="6.62" r="1.226" fill="#918B86"/><circle cx="-95.387" cy="133.116" r="1.412" fill="#918B86"/><ellipse cx="-116.658" cy="61.338" fill="#918B86" rx="1.544" ry="1.272" transform="rotate(116.751 -116.658 61.338)"/><circle cx="-88.01" cy="6.443" r="1.225" fill="#918B86"/><ellipse cx="-41.806" cy="55.922" fill="#918B86" rx="1.412" ry="1.208" transform="rotate(161.947 -41.806 55.922)"/><path fill="#918B86" d="M-192.59-23.405a1.64 1.64 0 0 1-.582-.757c-.116-.29-.139-.692-.117-2.049l.004-.306c0-.446.16-1.125.21-1.32.031-.128.062-.305.063-.358-.026-5.245 1.49-9.757 4.382-13.047 3.313-3.769 8.208-5.792 14.552-6.016 5.419-.19 10.368 1.63 13.937 5.122 3.439 3.366 5.328 7.97 5.338 12.992.286.413.542.859.556.882a.96.96 0 0 1 .125.471v1.093q0 .117-.028.23c-.005.019-.558 1.978-1.024 2.444a.95.95 0 0 1-1.42-1.259c.131-.243.454-1.147.572-1.543v-.704a9 9 0 0 0-.483-.723.95.95 0 0 1-.2-.597c.063-4.622-1.629-8.857-4.765-11.927-3.194-3.127-7.648-4.752-12.542-4.581-5.799.204-10.237 2.011-13.19 5.37-2.581 2.935-3.933 7.01-3.91 11.788 0 .32-.091.71-.12.822-.072.291-.153.716-.153.861l-.004.336c-.005.291-.016 1.003.005 1.32a.95.95 0 0 1-1.205 1.456m1.057-1.581h-.002zm35.014-.381v-.002z"/><path fill="#918B86" d="M-156.465-24.345a.95.95 0 0 1-.825-1.061c.024-.193.089-.551.15-.88-3.37-1.687-9.455-2.784-15.562-2.784h-.336c-5.991.04-13.368 1.776-16.298 3.32-.57.379-1.339.38-1.615.365h-.429a.95.95 0 1 1 0-1.9h.455q.03 0 .06.002c.127.008.386-.013.48-.053q.05-.035.104-.064c3.544-1.897 11.435-3.532 17.23-3.57 7.017-.049 13.863 1.272 17.454 3.359.352.204.535.609.455 1.007a32 32 0 0 0-.261 1.434.95.95 0 0 1-1.062.825m-33.912-2.995"/><path fill="#918B86" d="M-189.513-16.967a.95.95 0 0 0 .943-.84c.048-.413.195-1.774.365-3.35.25-2.316.562-5.197.634-5.735a.95.95 0 1 0-1.884-.25c-.075.56-.375 3.333-.639 5.78-.17 1.572-.317 2.93-.364 3.334a.95.95 0 0 0 .945 1.061"/><path fill="#918B86" d="M-189.878-17.209a.95.95 0 0 0 .882-1.305c-.2-.512-1.399-5.553-1.583-6.657a.95.95 0 1 0-1.874.312c.174 1.046 1.408 6.341 1.692 7.052a.95.95 0 0 0 .883.598"/><path fill="#918B86" d="M-190.243-11.082a.95.95 0 0 0 .504-1.757c-.284-.197-.996-1.253-1.078-1.868-.138-1.036-.924-2.8-1.717-4.519-.63-1.364-.786-2.346-.507-3.183.027-.082.067-.136.19-.167.268-.068.747.04 1.169.437a.95.95 0 0 0 1.302-1.384c-.846-.796-1.97-1.14-2.936-.896a2.13 2.13 0 0 0-1.528 1.408c-.438 1.314-.252 2.77.585 4.581.505 1.096 1.447 3.136 1.558 3.975.158 1.178 1.206 2.76 1.955 3.227a.95.95 0 0 0 .503.146M-158.575-10.112a.94.94 0 0 0 .443-.11c1.83-.97 2.694-4.435 2.849-5.12.15-.66.378-1.203.62-1.776.403-.958.821-1.948.86-3.445.055-2.253-1.094-3.066-1.592-3.31-.89-.439-1.939-.28-2.808.425a.95.95 0 0 0 1.196 1.477c.133-.108.477-.343.773-.197.26.127.553.611.53 1.558-.028 1.136-.345 1.885-.711 2.753-.264.625-.536 1.271-.722 2.096-.46 2.034-1.318 3.56-1.884 3.859a.95.95 0 0 0 .446 1.79"/><path fill="#918B86" d="M-158.575-20.425a.95.95 0 0 0 .854-1.365c-.143-.347-.493-2.148-.724-3.34-.223-1.148-.414-2.14-.55-2.627a.95.95 0 1 0-1.831.509c.115.414.318 1.464.515 2.478.45 2.328.671 3.392.885 3.82a.95.95 0 0 0 .85.525"/><path fill="#918B86" d="M-158.696-15.875a.95.95 0 0 0 .943-.852c.174-1.649.395-3.526.463-3.812l.089-.339c.285-1.077.953-3.597 1.117-5.128a.95.95 0 0 0-1.89-.202c-.149 1.387-.814 3.897-1.064 4.843l-.096.366c-.128.51-.422 3.247-.509 4.074a.95.95 0 0 0 .947 1.05M-177.38-23.38a.949.949 0 0 0 .22-1.874c-.19-.046-.416-.1-.666-.162-2.486-.605-3.841-.913-4.348-.913-.713 0-1.972.576-2.48.824a.95.95 0 1 0 .834 1.708c.652-.317 1.417-.61 1.65-.632.46.023 2.863.609 3.894.86l.672.163q.113.027.223.026M-171.322-23.77a.95.95 0 0 1 .19-1.33c.897-.671 5.178-1.047 5.216-1.047.389 0 1.168.25 2.316.745a.95.95 0 1 1-.751 1.745c-.642-.277-1.367-.543-1.594-.588-.584.03-3.529.437-4.09.696a.95.95 0 0 1-1.287-.22m1.33.192v-.001M-174.837-6.177c2.552 0 4.997-.402 5.73-.869a.95.95 0 0 0-1.017-1.604c-.326.184-2.055.533-4.352.572-2.39.042-4.348-.282-5.234-.866a.951.951 0 0 0-1.045 1.588c1.313.864 3.657 1.18 5.918 1.18M-174.256 2.465v-.03zM-182.498-.626z"/><path fill="#918B86" d="M-175.45 4.33c1.325 0 2.971-.19 4.477-.518 1.369-.297 3.275-.85 4.58-1.789q.44-.314.887-.625c2.032-1.419 4.134-2.886 5.87-5.853.992-1.698 1.325-5.54 1.62-8.928.105-1.214.204-2.36.32-3.19a.95.95 0 1 0-1.882-.264c-.122.88-.225 2.05-.331 3.29-.25 2.871-.591 6.804-1.367 8.132-1.526 2.607-3.368 3.894-5.319 5.255q-.455.319-.907.64c-1.394 1.002-5.034 2.023-8.219 1.945-2.494-.06-5.816-1.091-6.57-1.845q-.245-.243-.587-.568c-1.46-1.393-4.179-3.986-5.059-6.92-.651-2.171-.865-7.575-.81-10.719a.95.95 0 0 0-1.9-.035c-.054 3.043.14 8.8.89 11.3 1.025 3.416 3.98 6.235 5.567 7.749.219.209.408.39.555.537.775.775 2.318 1.336 3.475 1.67 1.504.433 3.105.7 4.393.731q.156.004.317.004M-189.514-29.169a.76.76 0 0 0 .491-.18c.91-.77 9.46-4.047 15.36-4.188 3.611-.085 11.853 1.578 15.39 3.966a.761.761 0 0 0 .85-1.261c-3.828-2.584-12.38-4.317-16.276-4.225-5.9.141-14.89 3.349-16.306 4.548a.76.76 0 0 0 .491 1.34"/><path fill="#918B86" d="M-176.968 12.611a13.5 13.5 0 0 1-3.882-2.704c-1.321-1.321-2.983-4.04-4.318-6.226-.653-1.069-1.464-2.395-1.724-2.661a.95.95 0 0 1-.329-1.06c.082-.248.306-1.555.306-1.943a.95.95 0 0 1 1.9 0c0 .419-.133 1.334-.264 1.975.364.474.868 1.282 1.733 2.698 1.214 1.989 2.879 4.712 4.04 5.873 2.07 2.072 4.78 3.154 5.916 2.83 1.479-.423 6.075-2.511 8.086-5.563.219-1.478 1.31-7.08 2.087-8.505a.951.951 0 0 1 1.669.91c-.589 1.08-1.77 6.89-1.898 8.036a.95.95 0 0 1-.136.395c-2.444 3.938-7.946 6.17-9.285 6.554-.316.09-.646.129-.98.129-1.037 0-2.115-.373-2.92-.738m-9.878-11.56"/><path fill="#918B86" d="M-170.258 38.765a.95.95 0 0 0 .833-1.407c-.113-.208-2.803-5.1-4.65-6.947-1.764-1.765-7.258-7.152-10.634-10.32l2.117-2.984a.95.95 0 0 0-.787-1.5c-.776.01-6.703.092-9.115.19-.349-1.954-1.285-6.832-2.469-10.043 1.737-3.332 4.425-8.414 4.812-8.956.283-.397.306-.429 1.7-.535l.197-.015a.95.95 0 1 0-.145-1.894l-.195.014c-1.47.111-2.281.173-3.104 1.325-.612.856-4.685 8.672-5.148 9.56a.95.95 0 0 0-.04.788c1.479 3.757 2.65 10.836 2.661 10.906a.95.95 0 0 0 1.043.791c.624-.07 4.6-.15 7.956-.203l-1.514 2.133a.95.95 0 0 0 .129 1.247c3.264 3.03 9.325 8.972 11.193 10.84 1.654 1.654 4.3 6.468 4.326 6.516a.95.95 0 0 0 .834.494"/><path fill="#918B86" d="M-173.092 109.503a.95.95 0 0 0 .943-.832c.042-.336.075-1.127.135-2.613.105-2.543.261-6.386.572-8.717.234-1.751.468-5.023.695-8.186.237-3.31.482-6.731.72-8.333.203-1.37.34-3.475.483-5.705.19-2.94.406-6.271.8-7.912.533-2.222.74-6.313.904-9.601.06-1.208.118-2.347.183-3.183.242-3.15-.121-15.556-.61-17.758-.43-1.934-1.86-6.136-2.985-9.321a1 1 0 0 0-.07-.153c-.285-.503-7.017-12.363-8.345-14.053-1.272-1.618-7.685-13.414-9.19-17.348a.95.95 0 1 0-1.774.679c1.59 4.159 8.116 16.12 9.47 17.844 1.021 1.3 6.184 10.289 8.145 13.744 1.548 4.39 2.576 7.592 2.893 9.021.458 2.06.798 14.248.57 17.198-.066.863-.124 2.015-.185 3.234-.161 3.21-.362 7.204-.854 9.254-.431 1.799-.643 5.07-.848 8.233-.142 2.189-.276 4.256-.467 5.548-.248 1.674-.485 4.978-.736 8.476-.225 3.135-.458 6.377-.683 8.07-.322 2.418-.482 6.313-.586 8.89-.048 1.171-.089 2.183-.124 2.456a.95.95 0 0 0 .944 1.068"/><path fill="#918B86" d="M-171.735 28.355a.95.95 0 0 1-.756-1.11c.954-5.01 3.683-12.325 4.619-13.796.726-1.141 2.227-3.311 2.637-3.9.494-2.073.892-4.577.716-5.134a.951.951 0 0 1 1.743-.762c.525 1.183-.185 4.59-.655 6.517a1 1 0 0 1-.142.316c-.02.028-1.889 2.716-2.696 3.984-.724 1.14-3.422 8.234-4.355 13.13a.95.95 0 0 1-1.111.755m7.221-23.93v-.002z"/><path fill="#918B86" d="M-171.676 29.317a.95.95 0 0 0 .902-.649c.308-.917 5.709-7.825 7.97-10.082 2.64-.025 8.243-2.083 9.661-3.63.2-.22.288-.52.235-.812-.42-2.3-2.716-5.628-4.569-8.015-2.053-2.645-4.252-5.017-5.018-5.574a.95.95 0 0 0-1.118 1.537c1.257.914 7.584 8.226 8.709 11.887-1.597 1.149-6.431 2.89-8.163 2.697a.95.95 0 0 0-.752.248c-1.453 1.348-8.174 9.391-8.758 11.142a.95.95 0 0 0 .901 1.251M-211.119 85.647a.95.95 0 0 0 .95-.95c0-1.894 1.272-7.8 2.325-11.426.715-2.461 1.836-3.708 3.257-5.287.563-.627 1.146-1.274 1.771-2.064a.95.95 0 1 0-1.49-1.18A40 40 0 0 1-206 66.713c-1.52 1.69-2.833 3.148-3.67 6.028-.978 3.37-2.399 9.704-2.399 11.956 0 .526.425.95.95.95M-220.53 63.877a.95.95 0 0 1 0-1.345c.475-.474 3.09-4.391 3.399-5.167a1 1 0 0 1 .075-.234c.03-.196.038-.969-.653-3.735-.24-.96-1.155-5.87-1.193-6.079a1 1 0 0 1-.016-.173c0-2.518-.1-6.406-.348-8.724-2.191 2.046-5.82 4.6-7.1 5.467-.172 3.894-1.057 11.67-1.985 13.391-.503.936-2.038 3.785-2.394 5.212a.95.95 0 0 1-1.787.164c-2.428-5.32-5.193-11.676-5.575-12.697-.374-.998-.415-5.686-.415-7.655a1 1 0 0 1 .03-.24l1.58-6.072c-2.224 1.697-4.876 3.92-5.825 4.723.12 1.094.715 3.539 2.97 8.896.923 2.192 4.566 8.878 5.094 9.619a.95.95 0 1 1-1.546 1.104c-.681-.953-4.359-7.752-5.3-9.985-2.115-5.027-3.144-8.315-3.144-10.053a.95.95 0 0 1 .333-.722c.233-.199 5.747-4.902 8.483-6.687a.951.951 0 0 1 1.439 1.036l-2.214 8.503c.004 2.901.116 6.318.294 6.866.293.782 2.4 5.653 4.583 10.498.528-1.163 1.183-2.412 1.721-3.411.679-1.26 1.653-8.965 1.776-13.041a.95.95 0 0 1 .461-.786c.585-.35 6.94-4.772 8.34-6.71a.952.952 0 0 1 1.66.223c.728 1.94.767 9.73.77 10.993.33 1.772.974 5.167 1.152 5.88.78 3.12.833 4.263.582 4.89-.097.352-.45 1.069-1.728 3.02-.166.255-1.64 2.495-2.175 3.031a.95.95 0 0 1-1.344 0m3.383-6.34v-.003zm.135-.49"/><path fill="#918B86" d="M-226.514 70.657c.402 0 .77-.06 1.105-.193 1.218-.487 8.31-4.778 9.114-5.266q.04-.025.078-.052c.569-.427 1.079-.793 1.53-1.118 1.844-1.326 2.958-2.127 3.525-3.83.524-1.571 1.034-4.06 1.175-4.771 2.163-3.239 4.254-7.772 3.942-9.952a26 26 0 0 1-.224-2.93c.433-.787 1.646-3.178 1.53-5.026-.033-.551.116-2.137.275-3.817.463-4.914.795-9.139.151-11.068a.95.95 0 1 0-1.802.601c.568 1.706.08 6.871-.241 10.288-.187 1.983-.323 3.415-.279 4.115.082 1.307-.989 3.465-1.408 4.186a.95.95 0 0 0-.129.478c0 .07.003 1.741.246 3.441.181 1.272-1.311 5.19-3.743 8.78a.95.95 0 0 0-.147.354c-.005.03-.585 3.03-1.149 4.72-.373 1.12-1.144 1.674-2.832 2.888-.448.323-.954.686-1.522 1.112-2.993 1.813-7.993 4.78-8.796 5.102-.708.283-2.709-.456-4.473-1.107q-.43-.16-.872-.32-.42-.152-.803-.288c-2.16-.767-3.06-1.129-3.612-2.388-.383-.877-1.03-2.158-1.715-3.513-.808-1.6-1.725-3.413-2.297-4.748-.778-1.814-1.021-4.565-1.257-7.227-.064-.724-.13-1.473-.207-2.183a.95.95 0 0 0-1.89.202c.075.693.137 1.4.204 2.15.249 2.809.506 5.713 1.403 7.807.596 1.39 1.527 3.231 2.348 4.856.673 1.331 1.308 2.59 1.67 3.417.904 2.065 2.504 2.633 4.718 3.418a114 114 0 0 1 1.65.6c1.888.696 3.473 1.282 4.734 1.282"/><path fill="#918B86" d="M-210.882 56.006a.95.95 0 0 0 .948-.902c.067-1.333-.044-3.825-.269-6.063-.205-2.043-.59-4.744-1.257-6.003a.95.95 0 1 0-1.68.89c.897 1.692 1.434 8.556 1.308 11.08a.95.95 0 0 0 .902.997z"/><path fill="#918B86" d="M-209.937 44.43q.165 0 .328-.059a.947.947 0 0 0 .564-1.213c-.022-.061-.562-1.515-2.11-3.063-1.232-1.232-2.821-1.564-3.873-1.783-.332-.07-.646-.135-.835-.207a.95.95 0 0 0-.667 1.78c.325.122.708.202 1.113.287.93.194 2.087.435 2.918 1.266 1.23 1.232 1.666 2.364 1.67 2.374.143.381.507.619.892.619M-229.243 50.947c.463 0 .942-.05 1.44-.159a.95.95 0 0 0-.406-1.856c-2.883.63-5.067-1.507-7.379-3.77q-.426-.421-.854-.83a.95.95 0 0 0-1.314 1.373q.42.403.839.815c2.137 2.092 4.522 4.427 7.674 4.427M-221.394 50.81a1 1 0 0 0 .127-.008c2.105-.28 2.751-1.769 3.27-2.964l.185-.42a.95.95 0 0 0-1.73-.785q-.101.225-.198.448c-.511 1.177-.78 1.704-1.779 1.837a.95.95 0 0 0 .125 1.893M-221.396 37.88c-.208-3.019.034-16.767.315-19.765-.701-.843-2.453-2.085-4.533-3.199-1.925-1.031-3.422-1.584-4.21-1.758-.592 2.928-2.606 12.283-3.994 18.737-.389 1.807-.719 3.336-.935 4.347a.951.951 0 0 1-1.858-.398c.216-1.011.546-2.541.935-4.35 1.477-6.865 3.95-18.355 4.134-19.463a.95.95 0 0 1 .658-.752c1.357-.417 4.357 1.002 6.024 1.885 1.031.546 4.481 2.461 5.57 4.186.139.22.181.487.118.739-.2 1.122-.566 16.214-.328 19.66a.95.95 0 0 1-.883 1.014l-.066.002a.95.95 0 0 1-.947-.885m2.216-19.763.005-.02z"/><path fill="#918B86" d="M-220.32 18.38a.95.95 0 0 1 .764-1.104c.365-.066.894-1.577.649-3.172a.95.95 0 0 1 .126-.636c.03-.051 3.091-5.112 4.497-7.338 1.28-2.026 1.391-3.614 1.507-6.732a.96.96 0 0 1 .212-.563c.236-.294.85-1.245.85-2.117 0-1.055-.754-1.979-1.967-2.412a.95.95 0 0 1-.63-.869c-.098-.468-1.393-2.028-2.475-2.028a.95.95 0 0 1-.884-.6c-.303-.442-2.168-1.52-3.36-1.204a.95.95 0 0 1-1.078-.462c-.363-.36-2.497-.68-3.777-.36-.398.099-1.273.639-2.257 1.591-1.024.991-1.48 1.769-1.526 2.026-.078.425-.245 1-.457 1.726-.437 1.499-1.098 3.764-.951 5.085.06.537.127 1.172.198 1.84.2 1.89.449 4.244.62 5.18.3 1.658.061 3.15-.711 4.438-.27.448-.288.568.722 1.7l.118.132a.95.95 0 1 1-1.42 1.263l-.116-.13c-.925-1.036-1.973-2.211-.934-3.943.536-.892.69-1.913.47-3.12-.182-1.007-.425-3.298-.64-5.319-.07-.666-.136-1.297-.196-1.831-.188-1.698.508-4.085 1.016-5.827.188-.647.351-1.206.41-1.533.322-1.769 3.497-4.699 5.193-5.123 1.203-.3 4.11-.32 5.423.726 1.149-.104 2.262.316 2.876.607.332.159 1.264.637 1.81 1.29 1.652.302 3.213 1.892 3.683 3.154 1.703.786 2.74 2.281 2.74 4.003 0 1.34-.707 2.524-1.074 3.047-.12 3.1-.3 5.024-1.788 7.38-1.205 1.908-3.643 5.927-4.307 7.025.19 1.93-.354 4.635-2.231 4.976a.95.95 0 0 1-1.105-.765m2.632-27.619v-.001m-4.412-1.609"/><path fill="#918B86" d="M-216.904 15.382a.94.94 0 0 0 .487-.136c2.934-1.76 7.21-4 10.894-5.709 4.578-2.123 7.97-3.318 9.549-3.367a.95.95 0 1 0-.057-1.9c-1.885.058-5.347 1.25-10.291 3.542-3.741 1.735-8.087 4.014-11.073 5.805a.95.95 0 0 0 .49 1.765M-115.938 32.298c-.75-.6-2.527-2.072-2.958-2.887-.398-.495-2.928-1.674-4.013-2.18l-.278-.128c-1.209-.565-3.11-2.197-4.637-3.508-.621-.533-1.392-1.195-1.613-1.33-.905-.399-3.202-2.553-4.69-4.255-.977-1.114-4.23-3.166-6.605-4.664-1.439-.908-2.681-1.69-3.306-2.182-.715-.561-1.099-.546-1.505-.53-.4.017-1 .042-1.532-.49-.46-.46-.85-.771-2.006-1.693l-.75-.6c-.845-.674-3.59-1.394-5.796-1.972-2.008-.525-3.904-1.023-5.019-1.58a.95.95 0 0 1 .85-1.7c.938.47 2.825.963 4.65 1.441 2.748.72 5.342 1.4 6.502 2.328l.748.597c1.142.911 1.595 1.273 2.105 1.776.05 0 .117-.003.17-.006.56-.022 1.492-.06 2.757.935.549.43 1.81 1.226 3.145 2.068 2.748 1.733 5.864 3.698 7.02 5.02 1.64 1.873 3.587 3.56 4.009 3.759.355.142.818.532 2.104 1.635 1.286 1.105 3.232 2.774 4.203 3.228l.277.129c3.05 1.42 4.481 2.194 4.892 3.02.19.34 1.427 1.455 2.463 2.284a.949.949 0 0 1-.595 1.693.95.95 0 0 1-.592-.208m-13.457999999999998-10.016-.022-.01z"/><path fill="#918B86" d="M-192.96 108.639c-5.407-1.562-16.358-6.793-18.947-8.643a.95.95 0 0 1-.398-.773c0-.46.534-2.77 1.013-4.75-.429-.93-.997-1.842-1.548-2.727-.833-1.339-1.62-2.602-1.92-3.879-.26-1.103-.234-2.91-.203-5 .029-2.04.062-4.351-.17-6.325-.458-3.889.16-12.94 1.018-14.9a.949.949 0 1 1 1.741.762c-.62 1.42-1.346 9.881-.871 13.916.246 2.098.212 4.475.182 6.574-.027 1.883-.053 3.663.153 4.538.229.972.935 2.107 1.683 3.31.645 1.035 1.312 2.107 1.808 3.265.082.19.099.4.05.598-.381 1.568-.783 3.31-.953 4.165 3.135 1.978 13.028 6.638 17.89 8.043 5.328 1.539 15.541 2.072 20.772 1.503 4.863-.529 13.389-3.17 19.415-5.34.346-1.322.26-3.238.203-4.55-.02-.426-.035-.796-.035-1.092a.95.95 0 0 1 .39-.769c1.03-.748 3.73-4.058 5.232-6.06.64-.855.853-5.353.968-7.769.045-.963.088-1.872.143-2.6.238-3.083-.873-9.33-1.422-10.335-.76-1.396-.645-2.069-.334-3.338q.058-.235.124-.52c.386-1.669.784-3.16 2.078-5.865.614-1.284 1.237-3.664 1.958-6.419.749-2.861 1.597-6.104 2.726-9.31a.95.95 0 0 1 .259-.39c2.075-1.877 6.11-5.078 8.521-6.99.488-.388.902-.716 1.206-.96 1.72-1.375 4.342-3.051 5.753-3.474 1.351-.406 2.75-.73 3.893-.417 6.038-.911 7.255-1.325 7.484-1.429.626-.517 2.32-1.018 3.663-1.355a.95.95 0 0 1 .461 1.844c-1.263.316-2.597.758-2.887.954-.31.306-.898.734-8.657 1.898a.95.95 0 0 1-.475-.05c-.75-.28-2.338.196-2.936.375-1.013.304-3.401 1.77-5.111 3.14l-1.213.962c-2.324 1.844-6.17 4.895-8.248 6.751-1.063 3.06-1.879 6.175-2.6 8.932-.777 2.967-1.391 5.31-2.084 6.758-1.305 2.732-1.628 4.125-1.938 5.472q-.07.299-.13.545c-.254 1.032-.286 1.165.156 1.976.597 1.093 1.09 4.166 1.228 5.082.18 1.203.58 4.225.42 6.31-.053.7-.095 1.595-.14 2.543-.208 4.39-.426 7.592-1.346 8.819-.036.048-3.395 4.502-5.232 6.13l.023.568c.072 1.605.178 4.031-.448 5.7a.95.95 0 0 1-.564.56c-6.145 2.235-15.148 5.043-20.298 5.603-1.404.152-3.156.228-5.08.228-5.476 0-12.332-.613-16.426-1.795m-17.447-9.384h.001m98.566-67.144h.002zm-1.342-1.345.001-.001"/><path fill="#918B86" d="M-165.3 102.89a1 1 0 0 0 .124-.01c2.466-.32 12.05-3.03 14.012-4.992a.95.95 0 1 0-1.344-1.344c-1.334 1.333-9.938 4.065-12.913 4.453a.951.951 0 0 0 .121 1.893M-184.311 103.361a.95.95 0 0 0 .028-1.9c-3.39-.099-22.465-7.08-25.01-8.292a.95.95 0 0 0-.817 1.716c1.288.613 6.675 2.668 12.347 4.635 4.954 1.718 11.305 3.779 13.424 3.841zM-205.45 34.986q.12 0 .245-.033a.95.95 0 0 0 .673-1.162 66 66 0 0 0-1.844-5.758c-1.226-3.268-1.787-3.75-1.999-3.93a.95.95 0 1 0-1.236 1.443c.543.539 2.184 4.765 3.243 8.734a.95.95 0 0 0 .917.706M-183.842 41.652q1.209 0 2.523-.054a.95.95 0 0 0 .775-.46c.567-.947.532-3.3.248-7.893-.06-.98-.113-1.827-.113-2.28a.95.95 0 1 0-1.9 0c0 .512.051 1.344.116 2.397.098 1.582.31 5.015.123 6.362-5.055.157-8.793-.363-12.796-1.187-1.499-.308-2.884-.749-4.106-1.137-2.108-.67-3.928-1.247-5.668-.999a.95.95 0 1 0 .269 1.881c1.31-.186 2.938.331 4.824.93 1.266.402 2.702.858 4.297 1.186 3.64.75 7.069 1.254 11.408 1.254M-160.575 37.23c2.142 0 8.44-.588 10.777-.957 1.819-.287 4.385-.064 7.634.217l1.704.146a.951.951 0 0 0 .158-1.895l-1.698-.144c-3.51-.305-6.047-.525-8.095-.201-2.246.354-8.464.933-10.48.933a.95.95 0 0 0 0 1.9M-108.782 40.94c2.256 0 6.266-1.03 7.144-1.262a.95.95 0 0 0-.488-1.837c-1.809.48-4.805 1.136-6.39 1.2-.038-1.63-.063-5.246.333-7.826.342-.476 1.352-1.843 2.334-2.736a.95.95 0 1 0-1.278-1.406c-1.365 1.241-2.686 3.155-2.742 3.236a1 1 0 0 0-.154.381c-.6 3.6-.376 9.06-.367 9.29a.95.95 0 0 0 .764.892c.236.047.522.068.844.068M-92.68 136.664c-.543-.005-13.354-.127-17.172-.843-3.816-.716-12.49-4.776-18.933-8.246a.95.95 0 0 1-.5-.836v-6.869c-3.448-1.21-4.206-2.848-4.47-4.164-.41-2.053-.076-4.338.596-7.36.666-2.997 1.927-15.503 2.224-18.775.208-2.287.25-5.387.116-8.732-.086-2.153-1.025-4.321-2.211-7.068-.225-.518-.454-1.048-.689-1.603-1.108.372-2.173.803-3.135 1.19-.786.319-1.465.593-2.045.787-1.517.504-3.95.638-5.025.638a.95.95 0 0 1 0-1.9c1.082 0 3.24-.148 4.424-.542.524-.175 1.178-.439 1.935-.744 1.233-.498 2.631-1.063 4.115-1.508a.95.95 0 0 1 1.152.548c.346.84.684 1.623 1.012 2.38 1.265 2.927 2.265 5.239 2.365 7.746.08 1.983.169 5.787-.121 8.981-.21 2.323-1.526 15.702-2.263 19.015-.73 3.282-.888 5.064-.586 6.575.197.98.796 2.014 3.832 2.937a.95.95 0 0 1 .674.91v6.989c6.443 3.438 14.516 7.152 17.884 7.783 3.165.594 13.389.767 16.147.803l.018-.05a.95.95 0 0 1 .767-.642c5.173-.739 10.902-2.036 14.95-3.384 4.022-1.341 10.643-4.692 12.521-6.304.093-.905.018-2.969-.06-4.19a.95.95 0 0 1 .61-.949l2.004-.762c.757-3.714.173-9.63-.58-12.645a1 1 0 0 1-.02-.354c.548-4.146.776-7.382.96-9.98.168-2.407.29-4.145.595-5.36.568-2.273.92-5.282.922-5.31a.95.95 0 0 1 1.72-.441c3.477 4.916 4.895 6.39 7.596 6.69 2.949.327 7.222.47 9.637.01 2.106-.4 7.217-1.536 9.21-3.417 1.952-1.845 2.309-2.444 2.418-5.835.126-3.914-.443-9.094-.467-9.312-.042-.37-.045-.769-.049-1.192-.006-.824-.015-1.758-.329-2.386-.593-1.186-2.551-4.017-2.892-4.358-.615-.614-.824-1.64-.623-3.05q.019-.142.048-.325c.08-.54.32-2.164.248-2.606-.132-.313-.181-.814-.317-2.584-.133-1.74-.354-4.652-.74-5.55-.642-1.5-1.454-3.888-1.642-4.447l-1.234-1.906a.951.951 0 0 1 1.596-1.032l1.299 2.007q.066.101.104.216c.009.028.94 2.816 1.625 4.414.47 1.097.68 3.436.888 6.153.062.828.134 1.762.188 2.025.224.536.187 1.417-.136 3.59l-.046.314c-.14.97.014 1.366.086 1.437.598.599 2.664 3.683 3.248 4.853.51 1.021.521 2.239.53 3.219.003.373.007.725.037.998.062.562.606 5.603.477 9.583-.126 3.921-.72 4.99-3.013 7.155-2.272 2.146-7.34 3.367-10.158 3.904-2.622.5-7.014.365-10.204.01-3.097-.344-4.86-1.93-7.55-5.557-.16.99-.373 2.15-.633 3.19-.264 1.053-.381 2.722-.544 5.032-.183 2.589-.408 5.802-.948 9.92.785 3.275 1.446 9.794.428 13.863a.95.95 0 0 1-.583.658l-1.83.697c.062 1.197.139 3.392-.06 4.29a.95.95 0 0 1-.256.465c-1.872 1.872-9.3 5.568-13.48 6.961-3.996 1.332-9.577 2.613-14.7 3.38l-.052.153a.95.95 0 0 1-.9.65zM-161.637 75.965a.95.95 0 0 0 .527-.16c3.158-2.106 10.832-10.207 12.822-14.472a.95.95 0 0 0-1.723-.804c-1.718 3.685-8.926 11.542-12.154 13.694a.95.95 0 0 0 .528 1.742M-159.51 86.327a.95.95 0 0 0 .569-.19c2.985-2.239 6.971-9.734 10.11-16.012a.95.95 0 1 0-1.7-.85c-.9 1.801-2.577 5.155-4.389 8.286-2.694 4.652-4.294 6.405-5.162 7.055a.95.95 0 0 0 .571 1.711M-139.318 45.614a.95.95 0 0 0 .857-.54c.099-.206 2.433-5.084 2.98-6.999a.95.95 0 0 0-1.828-.521c-.503 1.76-2.842 6.65-2.866 6.699a.95.95 0 0 0 .857 1.361M-224.344 166.66a.95.95 0 0 0 .946-.868c.268-3.089.87-8.384 1.338-9.438.613-1.38.745-2.815.861-4.082.032-.343.062-.668.1-.97.054-.432.33-1.881.652-3.559.721-3.772 1.71-8.94 1.833-11.028.172-2.912 1.326-15.3 2.876-19.95 1.01-3.03 3.625-10.642 6.07-15.838a.95.95 0 0 0-1.72-.81c-2.488 5.288-5.132 12.985-6.153 16.047-1.632 4.897-2.789 17.352-2.97 20.44-.116 1.964-1.131 7.271-1.803 10.783-.354 1.85-.61 3.186-.671 3.68-.042.333-.073.672-.106 1.032-.108 1.174-.22 2.39-.705 3.482-.736 1.655-1.375 8.66-1.496 10.047a.95.95 0 0 0 .948 1.032"/><path fill="#918B86" d="M-213.008 154.614a.948.948 0 0 0 .928-.744c.014-.063 1.42-6.389 1.942-8.477a.95.95 0 0 0-1.843-.461c-.406 1.622-1.307 5.625-1.73 7.515-1.915-.726-5.284-2.486-6.164-3.618a.95.95 0 0 0-1.5 1.167c1.483 1.908 6.553 4.238 8.16 4.596a1 1 0 0 0 .207.022M-214.708 157.62c-1.2-.134-3.456-1.35-4.37-1.866-2.021-1.143-3.185-2-3.46-2.55a.95.95 0 0 1 1.665-.915c.63.72 5.112 3.302 6.375 3.442a.95.95 0 1 1-.21 1.89M-185.373 165.774a.95.95 0 0 0 .945-.864c.138-1.517 2.601-11.118 4.223-17.201a.95.95 0 0 0-1.836-.49c-.417 1.565-4.083 15.352-4.28 17.52a.95.95 0 0 0 .948 1.035"/><path fill="#918B86" d="M-180.238 166.306q.052 0 .106-.006a.95.95 0 0 0 .839-1.049c-.08-.72-.47-1.849-.963-3.276-.708-2.048-1.589-4.596-1.69-6.415a.95.95 0 0 0-1.898.106c.116 2.083 1.045 4.77 1.791 6.929.42 1.212.815 2.356.871 2.865a.95.95 0 0 0 .944.846M-144.809 166.484a.95.95 0 0 0 .94-.817c.075-.518.018-2.39-.105-6.238-.157-4.9-.394-12.302-.077-14.103.53-2.996-1.548-13.425-1.92-15.254l.51-3.736c.015-.115.365-2.787.182-4.99-.189-2.266-3.244-13.185-5.33-18.012a.95.95 0 1 0-1.745.754c2.104 4.868 5.023 15.516 5.181 17.416.166 2-.169 4.553-.173 4.578l-.53 3.895a.9.9 0 0 0 .01.319c.68 3.302 2.353 12.378 1.944 14.7-.352 1.994-.13 8.925.049 14.494.086 2.7.176 5.491.123 5.91a.95.95 0 0 0 .941 1.084"/><path fill="#918B86" d="M-147.466 159.574a1 1 0 0 0 .213-.023l2.303-.532a.95.95 0 1 0-.427-1.852l-1.326.306c-.519-3.284-1.228-10.204-1.235-10.282a.95.95 0 1 0-1.891.193c.037.356.896 8.756 1.43 11.427a.954.954 0 0 0 .933.763M-216.374 123.97a.95.95 0 0 0 .901-.65c.02-.057 1.931-5.747 4.12-8.779a52 52 0 0 1 4.685-5.553 1 1 0 0 0 .19-.273c.045-.096 1.082-2.346 1.792-4.12a.95.95 0 0 0-1.765-.706 100 100 0 0 1-1.683 3.879 53 53 0 0 0-4.76 5.66c-2.36 3.27-4.3 9.047-4.381 9.29a.95.95 0 0 0 .901 1.252M-180.195 144.676q.08 0 .158-.006c.7-.05 1.017-.419 1.122-.575a.95.95 0 0 0 .153-.42c.01-.078.89-7.819 1.413-11.304.526-3.506 1.25-13.646 1.25-17.5a.95.95 0 1 0-1.9 0c0 3.793-.712 13.77-1.23 17.219-.43 2.87-1.098 8.572-1.334 10.618a5 5 0 0 1-.843-.345.95.95 0 0 0-.85 1.7c.822.412 1.499.613 2.06.613M-77.985 6.206a.95.95 0 0 1-.55-1.227c.669-1.754.535-5.239.168-5.804a.95.95 0 0 1-.23-.577c-.533-11.745-8.774-16.84-16.706-16.678-5.55.113-10.246 1.908-13.222 5.052-2.814 2.973-4.15 7.102-3.972 12.271a.95.95 0 0 1-.145.536l-.305.492v1.293c.261.74.989 1.439 1.26 1.656a.95.95 0 0 1-1.175 1.493c-.154-.121-1.517-1.227-1.95-2.741a1 1 0 0 1-.037-.261V-.002c0-.179.051-.353.145-.504l.299-.477c-.136-5.562 1.378-10.053 4.5-13.352 3.329-3.517 8.5-5.521 14.564-5.645 4.802-.097 9.278 1.502 12.605 4.505 3.63 3.28 5.712 8.022 6.025 13.73.849 1.577.635 5.61-.048 7.401a.95.95 0 0 1-1.226.55m-.372-7.02-.003-.003z"/><path fill="#918B86" d="M-113.087 2.571a.95.95 0 0 0 .711-.319c.547-.615 2.05-1.544 6.108-2.478 2.912-.67 5.986-1.075 7.463-1.27 3.261-.428 11.692.369 14.234.807.846.146 1.604.313 2.274.46 1.502.333 2.589.572 3.527.336a.951.951 0 0 0-.46-1.844c-.506.128-1.456-.082-2.658-.347a51 51 0 0 0-2.361-.478c-2.778-.479-11.252-1.285-14.804-.817-11.024 1.45-13.694 3.188-14.744 4.368a.95.95 0 0 0 .71 1.582"/><path fill="#918B86" d="M-111.643-.956a.76.76 0 0 0 .43-.133c4.109-2.815 10.233-4.246 17.243-4.026 6.346.198 11.687 1.682 13.963 2.978a.761.761 0 0 0 .752-1.322c-2.516-1.432-8.027-2.969-14.668-3.176-9.396-.293-15.056 2.172-18.15 4.292a.76.76 0 0 0 .43 1.387M-80.082 18.893a.95.95 0 0 0 .735-.348c1.812-2.214 3.28-7.278 3.63-9.373.321-1.936-.707-3.568-1.839-4.123-.853-.418-1.778-.251-2.413.436a.951.951 0 0 0 1.397 1.29.2.2 0 0 1 .065-.054c.018-.003.153.017.349.207.38.367.703 1.107.565 1.931-.33 1.99-1.73 6.657-3.224 8.482a.951.951 0 0 0 .735 1.552M-110.536 17.981c-.251-.126-.84-.42-2.205-3.56-.607-1.396-1.333-3.315-1.551-4.515-.285-1.567.293-3.275 1.375-4.061.684-.497 1.477-.567 2.175-.192a.95.95 0 0 1-.902 1.674c-.014-.009-.045-.025-.156.055-.363.264-.812 1.14-.622 2.184.342 1.883 2.248 6.157 2.825 6.766a.95.95 0 0 1-.94 1.65M-93.385 21.532c1.354 0 2.62-.13 3.451-.446a.951.951 0 0 0-.675-1.777c-1.677.638-6.436.238-7.869-.351a.951.951 0 0 0-.722 1.758c1.125.462 3.586.816 5.815.816M-105.07 3.03a.9.9 0 0 0 .372-.028c.01-.002 1.047-.287 1.935-.338 1.046-.059 2.222.17 3.698.72a.95.95 0 1 0 .664-1.78c-1.73-.646-3.152-.912-4.47-.837-1.096.062-2.286.39-2.337.405a.95.95 0 0 0 .139 1.858M-84.018 2.651A.954.954 0 0 0-83.65.887c-1.297-.774-5.826-.506-7.233.43a.95.95 0 0 0 1.052 1.582c.894-.593 4.568-.695 5.216-.374.187.112.397.15.597.126"/><path fill="#918B86" d="M-110.116 8.976c.31 0 .612-.15.796-.425.426-.64.73-2.14 1.274-5.176.176-.98.342-1.904.484-2.535a.95.95 0 1 0-1.852-.422c-.153.674-.323 1.62-.503 2.621-.269 1.498-.719 4.006-.988 4.463a.948.948 0 0 0 .789 1.474"/><path fill="#918B86" d="M-109.84 11.138q.066 0 .134-.01a.95.95 0 0 0 .807-1.075c-.164-1.148-.482-2.429-.79-3.667-.376-1.523-.767-3.098-.826-4.272a.95.95 0 0 0-1.897.095c.067 1.358.48 3.023.879 4.634.296 1.193.601 2.427.752 3.48a.95.95 0 0 0 .94.815M-80.762 8.475c0-1.662-.7-5.044-1.077-6.862-.233-1.127-.275-1.342-.275-1.525a.95.95 0 0 1 1.9-.053c.018.142.129.676.236 1.193.417 2.016 1.118 5.391 1.118 7.247a.95.95 0 0 1-1.902 0m.548-8.387V.047z"/><path fill="#918B86" d="M-93.715 30.62c3.281 0 6.444-1.54 8.546-2.853 3.684-2.303 5.12-6.792 5.37-7.67.759-2.658.93-7.885.848-11.554a.95.95 0 0 0-1.9.043c.083 3.692-.124 8.706-.776 10.99-.599 2.097-2.15 5.08-4.55 6.578-1.938 1.212-4.863 2.64-7.766 2.562-3.276-.089-6.673-1.257-8.336-2.366q-.234-.155-.508-.333a10 10 0 0 1-4.204-5.695c-1.006-3.477-2.143-8.115-1.993-9.683a.95.95 0 1 0-1.892-.181c-.207 2.165 1.073 6.984 2.06 10.393 1 3.458 3.079 5.513 4.992 6.758l.491.323c2.238 1.492 6.078 2.595 9.338 2.683q.14.004.28.004"/><path fill="#918B86" d="M-93.969 24.023a.76.76 0 1 0 0-1.52c-.453 0-.84-.075-.844-.076a.761.761 0 0 0-.297 1.492c.021.004.532.104 1.141.104M-174.134-3.65c.35 0 .7-.017.954-.068a.761.761 0 0 0-.298-1.491c-.334.067-1.251.033-1.795-.012a.76.76 0 1 0-.126 1.516c.156.013.709.055 1.265.055M-84.168 30.026c.403 0 .778-.26.906-.665.566-1.79 1.466-4.602 1.63-5.01a.95.95 0 1 0-1.765-.706c-.243.605-1.532 4.681-1.677 5.144a.95.95 0 0 0 .906 1.237M-92.672 134.54q.043-.001.085-.005a.95.95 0 0 0 .862-1.031c-.048-.554-.49-5.446-.862-6.684-.293-1.096-1.259-16.094-1.259-19.566 0-.987-.022-3.07-.05-5.705-.063-5.96-.15-14.121-.069-17.537.059-2.433-.335-17.266-.726-19.222l-.116-.57c-.357-1.74-.895-4.37-.697-6.353.06-.61.148-1.345.238-2.124.265-2.242.593-5.033.593-7.182 0-2.886-1.26-9.909-1.314-10.207a.95.95 0 0 0-.772-.767l-2.292-.399c-1.199-1.97-3.741-6.194-4.201-7.188-.39-.98-1.414-3.657-1.593-4.638a.95.95 0 1 0-1.869.341c.246 1.354 1.557 4.652 1.705 5.025l.018.04c.607 1.336 4.382 7.515 4.542 7.778a.95.95 0 0 0 .648.44l2.058.359c.315 1.825 1.17 6.988 1.17 9.216 0 2.038-.322 4.767-.58 6.96-.092.788-.18 1.53-.243 2.157-.226 2.271.347 5.072.727 6.925q.062.297.114.56c.314 1.57.76 15.923.69 18.804-.081 3.448.005 11.629.068 17.602.028 2.63.05 4.707.05 5.685 0 3.065.934 18.76 1.34 20.112.237.793.61 4.29.79 6.307a.95.95 0 0 0 .945.866"/><path fill="#918B86" d="M-96.281 40.034a.95.95 0 0 1-.027-1.343c.914-.952 3.117-3.197 3.904-3.607 1.013-.61 9.308-7.697 10.212-9.604a.95.95 0 1 1 1.717.814c-.514 1.085-2.422 3.113-5.671 6.028-2.094 1.878-4.824 4.17-5.384 4.45-.395.22-2.076 1.851-3.408 3.236a.946.946 0 0 1-1.343.026m3.884-4.954.01-.005z"/><path fill="#918B86" d="M-86.058 41.008a1 1 0 0 0 .301-.048c2.078-.693 8.153-5.663 10.082-8.92a.95.95 0 0 0 .057-.86c-.073-.168-1.785-4.161-2.491-5.692-.598-1.295-1.157-1.611-1.825-1.89-.182-.077-.326-.136-.494-.256a.95.95 0 1 0-1.104 1.547c.342.244.645.37.866.463.35.146.496.207.831.933.556 1.204 1.791 4.067 2.273 5.186-1.95 2.9-6.937 6.905-8.633 7.624-1.872-.148-3.222-.376-4.125-.529-.62-.103-.993-.167-1.288-.167-.754 0-1.831.462-2.04.555a.95.95 0 1 0 .773 1.736c.417-.184 1.04-.39 1.267-.39.136 0 .542.068.971.141.972.163 2.44.412 4.51.565zM-53.818 80.807a.95.95 0 0 0 .917-1.201c-.506-1.856 1.29-7.67 2.091-9.671.244-.609.47-1.516.71-2.477.261-1.048.53-2.132.82-2.825.636-1.528.031-7.258-.17-8.979l-.004-.034-1.13-7.345c.164-.255.465-.666.861-.949a.95.95 0 1 0-1.104-1.546c-.99.707-1.538 1.765-1.598 1.883a.95.95 0 0 0-.089.57l1.179 7.659c.382 3.287.606 7.278.3 8.01-.343.826-.631 1.98-.91 3.096-.224.897-.434 1.742-.63 2.23-.03.077-2.996 7.813-2.16 10.877a.95.95 0 0 0 .917.702"/><path fill="#918B86" d="M-59.722 85.884a.95.95 0 0 0 .725-1.563c-.724-.856.174-4.292.512-5.585.131-.502.235-.898.288-1.19.184-1.013 1.199-2.594 2.128-3.317.74-.576 2.182-1.614 3.52-2.101a.951.951 0 0 0-.65-1.786c-1.582.576-3.208 1.742-4.036 2.387-1.296 1.007-2.567 3.016-2.832 4.477-.04.22-.141.606-.257 1.05-.751 2.876-1.38 5.807-.124 7.292a.95.95 0 0 0 .726.336"/><path fill="#918B86" d="M-60.313 81.16a.95.95 0 0 0 .908-1.23c-.44-1.432-.733-2.118-.967-2.67-.264-.621-.423-.996-.662-2.197a99 99 0 0 1-.45-2.466c-.282-1.617-.547-3.144-.88-4.143-.411-1.233-.54-5.225-.427-6.588.108-1.299 1.386-6.3 1.589-6.811a.951.951 0 0 0-1.765-.706c-.254.635-1.59 5.822-1.718 7.36-.115 1.375-.035 5.687.518 7.347.288.863.541 2.322.81 3.867.145.83.295 1.691.459 2.514.278 1.39.499 1.909.777 2.566.218.51.487 1.147.9 2.486a.95.95 0 0 0 .908.671"/><path fill="#918B86" d="M-61.968 71.358h.051a.95.95 0 0 0 .9-1c-.05-.954 1.206-1.276 3.543-1.537q.307-.034.585-.068a.95.95 0 1 0-.235-1.886l-.56.066c-.981.108-2.202.245-3.196.647-1.77.715-2.084 1.96-2.035 2.878a.95.95 0 0 0 .947.9M-43.071 62.03q.166 0 .33-.06a.95.95 0 0 0 .56-1.223c-.077-.208-1.902-5.111-2.494-6.528-.146-.355-.118-.479-.117-.48.067-.151.701-.44 1.121-.63l.048-.022c1.46-.663 5.822-4.519 7.129-6.479a.951.951 0 0 0-1.581-1.054c-1.143 1.713-5.281 5.324-6.334 5.802l-.049.023c-1.227.557-2.908 1.321-1.97 3.57.576 1.384 2.448 6.41 2.466 6.461a.95.95 0 0 0 .89.62"/><path fill="#918B86" d="M-43.618 52.708q.199 0 .366-.01a.951.951 0 0 0-.111-1.897c-2.132.125-6.33-1.025-6.705-2.376a.949.949 0 1 0-1.831.509c.764 2.754 5.975 3.774 8.28 3.774M-46.919 60.83c-.888-.178-3.275-1.912-3.758-3.037a.951.951 0 0 1 1.747-.75c.208.466 1.872 1.753 2.404 1.928a.95.95 0 0 1-.393 1.86m.383-1.862-.01-.002q.005 0 .01.002M-36.812 59.195q.15.001.3-.049c1.778-.592 2.977-3.949 3.199-4.616a.95.95 0 1 0-1.803-.601c-.59 1.77-1.541 3.262-1.997 3.414a.95.95 0 0 0 .3 1.852M-133.176 71.95a.95.95 0 0 0 .849-1.376c-.668-1.338-1.099-2.804-1.413-3.875-.175-.592-.312-1.06-.453-1.39a.95.95 0 0 0-1.747.75c.096.225.226.666.376 1.175.335 1.141.793 2.702 1.538 4.19a.95.95 0 0 0 .85.525"/><path fill="#918B86" d="M-134.595 70.296a.951.951 0 0 0 .407-1.81c-4.758-2.247-7.03-3.641-7.345-3.992-.328-.41-.923-.473-1.333-.145s-.474.93-.146 1.338c.85 1.065 5.887 3.514 8.012 4.518.13.062.27.09.405.09M-138.61 62.266a.952.952 0 0 0 .456-1.786c-1.072-.584-2.487-1.826-3.245-3.561a.951.951 0 0 0-1.742.762c.808 1.846 2.331 3.516 4.077 4.468.144.08.3.117.454.117M-63.074 105.98c-2.693-6.194-6.085-13.595-6.676-14.378a.95.95 0 0 1 1.37-1.318c.183.184.523.524 2.951 5.78a484 484 0 0 1 4.098 9.158.95.95 0 0 1-1.743.757m-6.65-14.351-.017-.018zM-105.542 127.453a.95.95 0 0 0 .094-1.896l-.148-.014c-6-.595-8.618-1.251-9.757-1.696l-.73-.285c-2.837-1.105-8.12-3.163-11.31-4.971a.95.95 0 1 0-.938 1.653c3.312 1.877 8.677 3.966 11.559 5.089l.727.283c1.818.712 5.27 1.323 10.262 1.818l.145.014q.05.005.096.005M-86.059 126.98h.042c2.83-.124 8.142-1.33 10.726-2.438 2.402-1.03 8.243-2.904 10.858-3.618a.95.95 0 1 0-.5-1.833c-2.728.744-8.594 2.628-11.107 3.704-2.377 1.02-7.454 2.173-10.059 2.286a.95.95 0 0 0 .04 1.9"/><path fill="#918B86" d="M-76.611 122.92c2.16 0 4.345-.202 6.145-.435a.95.95 0 0 0-.243-1.884c-3.203.413-7.665.732-10.732-.094a.95.95 0 0 0-.495 1.836c1.572.423 3.439.577 5.325.577M-65.981 62.147a.95.95 0 0 0 0-1.9c-1.946 0-3.586-.284-5.173-.558-1.211-.209-2.464-.424-3.806-.503-.903-.053-1.57-.14-2.157-.214-1.327-.171-2.285-.293-4.183.249-2.6.742-5.846 1.152-6.948.877a.95.95 0 0 0-.461 1.843c1.767.443 5.702-.256 7.932-.893 1.52-.435 2.155-.354 3.418-.192.587.076 1.319.17 2.288.227 1.235.072 2.382.27 3.593.48 1.666.287 3.39.584 5.497.584M-109.026 65.69a.95.95 0 0 0 .932-.77c.011-.054 1.058-5.448 1.563-6.965a.95.95 0 1 0-1.803-.601c-.425 1.274-1.15 4.805-1.468 6.406-2.567-.113-4.886-.364-6.956-.586-2.222-.24-4.142-.447-5.909-.447-2.9 0-6.624-2.028-7.848-2.695l-.068-.037c-.014-.877.494-3.397 1.041-5.464a.95.95 0 1 0-1.838-.486c-.016.062-.41 1.553-.722 3.113-.584 2.921-.506 3.94.33 4.358q.113.057.348.186c1.47.8 5.374 2.925 8.757 2.925 1.664 0 3.537.202 5.705.436 2.318.25 4.944.534 7.905.626zM-68.993 36.373a.951.951 0 0 0 .394-1.814c-2.285-1.042-6.149-2.891-6.79-3.414a.95.95 0 1 0-1.203 1.47c1.019.833 6.18 3.205 7.204 3.672a.95.95 0 0 0 .395.086"/><path fill="#918B86" d="M-62.806 39.408c.426 0 .79-.083 1.112-.246.898-.454 1.152-1.41 1.236-1.723.102-.38.129-.984-.318-1.703-.84-1.35-3.025-2.511-4.222-2.75a.95.95 0 0 0-.373 1.864c1.213.242 3.081 1.609 3.075 2.11-.074.273-.168.462-.255.506-.1.05-.546.167-2.11-.447-.984-.387-3.238-1.832-3.65-2.16a.95.95 0 0 0-1.187 1.483c.485.388 2.894 1.955 4.144 2.445 1.06.417 1.88.621 2.548.621"/><path fill="#918B86" d="M-60.686 44.854c.697 0 1.457-.264 2.17-.778C-57.4 43.27-56 41.23-55.29 39.725l.014-.03c.527-1.231.558-3.043-.934-4.435-.168-.156-.611-.57-5.272-2.902-1.655-.827-4.236-1.171-5.609-.976-1.246.179-3.396.537-5.35.891a.951.951 0 0 0 .34 1.87c1.932-.351 4.054-.704 5.28-.88 1.043-.149 3.23.167 4.488.796 4.2 2.1 4.78 2.55 4.832 2.595.929.867.654 1.871.483 2.278-.658 1.391-1.876 3.072-2.612 3.603-.637.46-1.138.467-1.303.363-.15-.093-.2-.426-.127-.846.301-1.734 1.62-3.236 1.633-3.251a.95.95 0 0 0-.122-1.38l-1.24-.974a.95.95 0 1 0-1.174 1.494l.503.396c-.524.76-1.23 1.991-1.472 3.389-.215 1.24.146 2.254.992 2.784.369.23.798.344 1.254.344"/><path fill="#918B86" d="M-53.87 47.938q.413.002.871-.108c.924-.225 1.522-.784 1.602-1.496.018-.165.048-.41.084-.703.145-1.196.365-3.003.365-3.831 0-.953-.372-1.828-1.076-2.531-.307-.308-1.285-.874-2.905-1.685a.95.95 0 0 0-.85 1.7c1.328.664 2.232 1.18 2.42 1.338.338.342.51.738.51 1.178 0 .713-.228 2.592-.351 3.6l-.063.525c-.16.07-.48.137-.812.089-.235-.034-.416-.118-.487-.224-.428-.643-.787-2.324-.913-3.234a1 1 0 0 0-.104-.32l-.62-1.152a.951.951 0 0 0-1.674.9l.541 1.005c.102.658.472 2.78 1.188 3.855.397.595 1.214 1.094 2.274 1.094"/><path fill="#918B86" d="m-49.822 49.321-.302-1.66c-.79-.905-1.324-2.593-1.586-3.58-.364-1.376-.56-2.719-.558-3.759L-54 39.68a1 1 0 0 1-.343-.22c-.144-.145-1.431-1.464-1.84-2.995-.296-1.112-.09-3.098.768-4.493.307-.5.678-.883 1.097-1.14-.027-1.005.141-2.416.894-3.342.276-.34.61-.588.986-.737.377-1.213 1.425-2.707 2.67-3.378.706-.38 1.44-.486 2.133-.316.871-.823 1.907-1.278 3.03-1.327 1.364-.06 2.725.49 3.74 1.504l.465.464c2.003 1.995 3.857 3.873 4.533 4.918 1.129 1.744 1.321 2.793.936 5.1-.16.966-.614 2.94-1.014 4.68-.306 1.33-.595 2.584-.668 3.027-.196 1.172-.261 2.683-.173 3.055a.95.95 0 0 1-1.668.909c-.577-.963-.057-4.142-.034-4.277.084-.499.365-1.722.69-3.14.395-1.714.842-3.658.993-4.565.327-1.965.157-2.498-.658-3.757-.622-.96-2.911-3.24-4.278-4.604l-.467-.465c-.63-.63-1.495-.986-2.314-.95-.8.035-1.518.423-2.132 1.155a.95.95 0 0 1-1.196.216c-.212-.12-.518-.223-1.016.046-.988.533-1.781 1.997-1.819 2.556a.95.95 0 0 1-.898.885c-.11.006-.231.034-.366.2-.454.559-.54 1.872-.428 2.604a.95.95 0 0 1-.743 1.074c-.292.062-.53.36-.677.6-.575.936-.71 2.407-.55 3.009.205.768.858 1.602 1.215 1.999l2.183.808a.95.95 0 0 1 .612 1.014c-.247 1.896.908 6.004 1.71 6.68a.95.95 0 0 1 .32.556l.355 1.948a.951.951 0 0 1-1.87.34m12.999-4.909h-.001"/><path fill="#918B86" d="M-41.183 24.86a.952.952 0 0 0 .916-1.208l-.101-.359c-.736-2.627-1.43-5.107-2.894-5.855a1.97 1.97 0 0 0-1.614-.09c-.47.173-1.11.582-1.49 1.544-.614 1.551-.22 3.772.083 4.38a.95.95 0 0 0 1.7-.851c-.13-.297-.394-1.945 0-2.87.145-.338.31-.399.364-.42.057-.02.066-.016.093-.002.723.37 1.477 3.065 1.928 4.676l.101.361a.95.95 0 0 0 .914.693M-47.206 33.45a.95.95 0 0 0 .426-1.8c-.105-.052-1.045-.514-1.796-.623-.103-.013-.337-.064-.586-.117-1.134-.243-3.033-.65-4.33-.407a.95.95 0 0 0 .351 1.868c.921-.172 2.652.198 3.581.398.318.067.547.116.715.14.337.049.925.296 1.216.442.136.067.28.1.423.1M-46.041 30.135c-.493-.39-3.856-1.54-5.284-1.742a.95.95 0 1 1 .27-1.882c.971.138 5.586 1.373 6.432 2.36a.952.952 0 0 1-.722 1.568.95.95 0 0 1-.696-.304m-.024-.028h-.001M-42.688 27.959a.949.949 0 0 0 .49-1.765 58 58 0 0 1-.622-.393c-1.122-.717-3.211-2.05-4.163-2.49a.952.952 0 0 0-.797 1.726c.836.386 2.93 1.723 3.937 2.365q.502.322.666.422a.95.95 0 0 0 .489.135M-51.97 40.17a.95.95 0 0 1 .39-1.8c.293-.12 1.055-.558 1.731-.998a.95.95 0 0 1 1.036 1.593c-1.59 1.035-2.28 1.323-2.708 1.323a.94.94 0 0 1-.449-.118M-131.997 165.951h.05a.95.95 0 0 0 .9-.998c-.002-.046-.23-4.539-.007-6.203.095-.71.166-2.145.257-3.96.146-2.907.326-6.523.686-8.895.177-1.178.395-2.922.646-4.94.588-4.719 1.32-10.59 2.047-13.258a.95.95 0 0 0-1.834-.5c-.763 2.798-1.504 8.744-2.099 13.523-.25 2.005-.465 3.737-.64 4.89-.373 2.466-.557 6.136-.704 9.084-.085 1.702-.159 3.172-.243 3.805-.245 1.837-.017 6.36-.007 6.55a.95.95 0 0 0 .948.902M-98.46 164.593c-.025-.358-.594-8.806-.594-11.873 0-1.489-.357-5.276-.673-8.616-.591-6.27-.61-6.9-.439-7.326a.95.95 0 0 1 1.808.57c-.04.601.272 3.909.524 6.577.335 3.548.682 7.218.682 8.795 0 3.003.582 11.658.588 11.745a.95.95 0 0 1-.884 1.013l-.066.001a.95.95 0 0 1-.947-.886M-58.96 165.076a.95.95 0 0 1-.639-1.052c.027-.897-.699-8.703-.95-10.963-.07-.63-.321-2.23-.638-4.254-.73-4.66-1.834-11.7-2.082-15.511-.221-3.39-.577-4.364-.92-5.306a11.6 11.6 0 0 1-.602-2.144.95.95 0 0 1 1.87-.34c.151.832.32 1.296.517 1.833.39 1.067.793 2.17 1.032 5.833.242 3.725 1.338 10.715 2.062 15.34.334 2.129.576 3.667.65 4.339.116 1.046.382 3.75.607 6.295.436 4.907.376 5.083.294 5.329a.95.95 0 0 1-1.201.601m-.602-1.201z"/><path fill="#918B86" d="M-129.752 154.379a.95.95 0 0 0 .901-.65l.03-.087c.784-2.39 1.468-3.815 1.905-4.59.675-1.2 2.304-5.859 3.215-8.529 1.32-3.867 2.539-7.675 2.898-9.056a.95.95 0 1 0-1.839-.48c-.777 2.983-4.975 15.434-5.93 17.133-.478.85-1.223 2.394-2.056 4.928l-.025.08a.95.95 0 0 0 .901 1.25M-206.514 24.475q.117 0 .233-.03a.95.95 0 0 0 .69-1.15c-.01-.042-.265-1.045-1.114-2.985-.97-2.216-5.866-6.12-8.193-6.12a.95.95 0 1 0 0 1.9c1.398 0 5.739 3.352 6.452 4.982.774 1.77 1.01 2.677 1.011 2.686.11.43.497.717.921.717M-137.191 32.151c.43 0 .82-.295.924-.732.47-2-.452-10.904-1.044-16.033a.95.95 0 1 0-1.888.218c.94 8.142 1.364 14.18 1.082 15.38a.95.95 0 0 0 .926 1.167M-131.524 50.929l.068-.003a.95.95 0 0 0 .88-1.016c-.112-1.576.702-10.522.919-11.392a.95.95 0 1 0-1.844-.46c-.26 1.039-1.097 10.225-.97 11.988.035.5.452.883.947.883M-63.028 50.22a.95.95 0 0 0 .92-.72c.06-.238.18-.958.385-2.21.197-1.197.442-2.686.566-3.247a.95.95 0 0 0-1.855-.412c-.136.612-.376 2.067-.586 3.35-.138.84-.31 1.884-.353 2.058a.95.95 0 0 0 .923 1.18M-61.731 128.752l.05-.001a.95.95 0 0 0 .9-.999l-.355-6.731a.95.95 0 1 0-1.897.1l.354 6.73a.95.95 0 0 0 .948.901M-94.103 15.733a.842.842 0 0 1-.817-1.047c.236-.944-.183-3.541-.502-4.958a.843.843 0 0 1 1.643-.37c.093.413.903 4.098.493 5.738a.84.84 0 0 1-.817.637M-173.913-12.001a.843.843 0 0 1-.817-1.046c.236-.944-.183-3.543-.502-4.959a.843.843 0 0 1 1.643-.371c.093.415.902 4.099.492 5.738a.84.84 0 0 1-.816.638"/><g fill="#918B86"><path d="M-230.97-18.992a.976.976 0 0 1-.952-.77l-2.088-9.674a.976.976 0 1 1 1.907-.412l2.088 9.675a.975.975 0 0 1-.955 1.18M-237.686-15.865a.97.97 0 0 1-.607-.213l-8.09-6.45a.976.976 0 0 1 1.216-1.526l8.09 6.45a.976.976 0 0 1-.609 1.739M-239.649-8.063q-.087 0-.174-.015l-10.515-1.893a.975.975 0 1 1 .345-1.92l10.515 1.892a.975.975 0 0 1-.17 1.936M-252.126 3.05a.977.977 0 0 1-.26-1.915l10.44-2.894a.976.976 0 0 1 .52 1.88l-10.439 2.894a1 1 0 0 1-.261.036"/></g><g fill="#918B86"><path d="M-16.339 38.837a1 1 0 0 1-.451-.111l-8.77-4.59a.976.976 0 1 1 .906-1.728l8.768 4.59a.975.975 0 0 1-.453 1.839M-23.21 27.087a.975.975 0 0 1-.197-1.932l10.134-2.087a.975.975 0 1 1 .393 1.91l-10.134 2.088a1 1 0 0 1-.197.02M-27.946 20.584a.975.975 0 0 1-.628-1.724l8.183-6.868a.976.976 0 0 1 1.255 1.494l-8.184 6.87a.98.98 0 0 1-.626.228M-32.96 13.758a.975.975 0 0 1-.888-1.378l4.457-9.872a.976.976 0 0 1 1.779.803l-4.46 9.873a.98.98 0 0 1-.889.574"/></g><g fill="#918B86"><path d="M4.209 17.955a.5.5 0 0 1 .041-.84L44.701.067a.5.5 0 0 1 .503.866L4.752 17.98a.5.5 0 0 1-.543-.025M.01 85.664a.499.499 0 0 1 .594-.596l31.344 10.729a.501.501 0 0 1-.207.978L.396 86.047a.5.5 0 0 1-.385-.383"/></g></svg>