<svg xmlns="http://www.w3.org/2000/svg" width="343" height="354.729" xml:space="preserve"><g fill-rule="evenodd" clip-rule="evenodd" fill="#CD312C"><path d="M210.576 41.586c-2.225-.803-4.015-2.205-5.673-3.816-2.27-2.207-4.187-4.714-6.091-7.23-.872-1.151-1.742-2.303-2.617-3.451a8.834 8.834 0 0 0-.616-.739c-.385-.406-.867-.484-1.289-.14-.434.357-.418.84-.066 1.286 3.406 4.317 6.41 8.97 10.58 12.65 1.156 1.02 2.441 1.86 4.07 2.811l-4.056.448c.053-1.527.052-1.526-1.215-2.087-2.852-1.26-5.107-3.317-7.182-5.556-3.938-4.245-7.502-8.775-10.065-14.014-.254-.52-.566-.982-1.212-.74-.632.235-.657.81-.463 1.35.195.552.437 1.095.73 1.6 3.268 5.625 7.132 10.79 11.91 15.229 1.729 1.605 3.591 3.043 5.838 3.887.198.074.393.171.453.456-1.232.27-2.468.53-3.697.82-.36.085-.725.216-1.037.407-.353.216-.441.597-.3.987.117.328.386.536.734.52.369-.017.74-.092 1.1-.183a39.869 39.869 0 0 1 9.835-1.235c1.75 0 3.399.335 4.916 1.215.538.311 1.043.559 1.61.075.298-.255.601-.097.898.026 2.717 1.128 5.414 2.295 7.81 4.04.428.312.862.657 1.182 1.073.535.695.967 1.387 2.064 1.027.463-.153.534.427.635.761.48 1.594.621 3.25.846 4.89.123.899.217 1.802.304 2.706.056.595.238 1.072.943 1.031.69-.04.874-.526.847-1.123-.305-6.438-2-12.33-6.712-17.03-.341-.339-.693-.669-1.056-.982-.45-.388-.952-.556-1.419-.059-.485.517-.225.981.21 1.382 1.384 1.277 2.56 2.727 3.59 4.298.143.22.26.456.389.685-5.226-3.329-11.019-5.215-16.728-7.275zM193.7 80.483c-1.155.08-2.215-.312-3.036-1.194-.182-.195-.334-.426-.542-.585-.32-.246-.68-.286-1.04-.041-.379.254-.39.629-.296.997.123.481.46.844.82 1.165 1.18 1.049 2.58 1.487 4.138 1.42 2.366-.101 4.682-.524 6.89-1.373 2.592-.997 5.15-2.084 7.71-3.161a7.398 7.398 0 0 0 1.516-.887.783.783 0 0 0 .244-1.012c-.203-.415-.535-.73-1.019-.574-3.338 1.082-6.67.242-10.01.026-3.306-.214-6.624-.37-9.918.197-.95.164-1.865.472-2.747.859-.536.236-.901.624-.617 1.263.25.561.763.57 1.234.396 4.478-1.653 9.068-1.055 13.645-.707.797.06 1.592.145 2.387.226.03.002.052.077.183.285a23.807 23.807 0 0 1-9.542 2.7zm.146-9.914c.557-.042.89-.423.85-.962-.035-.459-.384-.764-.87-.782-.692-.026-1.388.007-2.08-.016-.744-.025-1.494-.03-2.214-.273-1.15-.389-1.654-1.146-1.39-2.326.162-.718.481-1.408.783-2.088.928-2.093 2.054-4.1 2.727-6.305.327-1.074.604-2.158.687-3.281a7.75 7.75 0 0 0 .009-1.117c-.041-.583-.248-1.074-.949-1.028-.605.041-.795.49-.763 1.019.029.487-.055.952-.126 1.427-.286 1.92-.965 3.708-1.778 5.454-.608 1.305-1.231 2.603-1.826 3.913-.354.78-.604 1.594-.613 2.465-.016 1.693.884 3.003 2.478 3.53 1.073.354 2.19.447 3.316.38.587 0 1.176.035 1.759-.01zm48.25-23.599c-.573-.113-.884.244-1.005.785-.336 1.49-1.125 2.763-1.951 4.014-.297.45-.575.877-1.286.579-.587-.246-.984.132-1.264.673-.982 1.899-1.988 3.785-2.828 5.752-.084.197-.171.395-.227.6-.165.61-.213 1.228.543 1.445.645.186.964-.252 1.161-.81.606-1.72 1.487-3.31 2.324-4.92.216-.415.374-.919 1.051-.643.397.162.744-.068.99-.363 1.378-1.654 2.56-3.423 3.115-5.54.04-.155.057-.315.083-.45.034-.565-.15-1.012-.705-1.122zm-35.109 3.227c-.808-1.118-2.17-1.093-2.902.085-.729 1.175-.742 2.428-.16 3.67.313.666.84 1.125 1.608 1.147.782.023 1.279-.462 1.63-1.104.286-.521.434-1.086.44-1.79 0-.66-.164-1.383-.616-2.008zm44.487-4.052c-.468-.11-.848.057-1.037.52-.204.494-.377 1-.568 1.498-.718 1.885-1.172 3.886-2.516 5.493-.336.401-.319.911.146 1.275.405.316.806.176 1.172-.1.435-.331.725-.788.972-1.26.99-1.901 1.628-3.943 2.329-5.96.051-.149.061-.313.079-.404.042-.534-.063-.94-.577-1.062zm-65.035 4.761c-.538-.727-1.434-.734-2.042-.064-.964 1.063-.962 3.542.003 4.61.607.67 1.476.66 2.046-.067.51-.65.686-1.42.661-2.239a3.41 3.41 0 0 0-.668-2.24zm6.84 33.315c-.574-.19-1.091-.043-1.247.61-.157.658.293.966.845 1.136 1.343.415 2.726.406 4.108.333.524-.029.956-.313.97-.867.016-.642-.43-.934-1.042-.94-.424-.004-.848.037-1.226.055-.836-.09-1.635-.071-2.408-.327zm52.678-35.366c-.032 1.404-.263 2.74-.91 4.006-.173.34-.019.75.361.957.357.192.726.157 1.05-.093.832-.642 1.53-3.995 1.041-4.993-.15-.308-.385-.502-.759-.51-.409.016-.773.236-.783.633z"/><path d="M0 252.965c4.435 2.981 8.667 6.243 12.981 9.391 5.311 3.874 10.492 7.944 16.085 11.402 4.724 2.919 9.632 5.538 14.455 8.298 8.905 5.096 17.786 10.234 26.246 16.056a84.165 84.165 0 0 1 4.634 3.435c.657.521 1.318.693 2.078.497 3.454-.895 6.63-2.37 9.44-4.59.162-.129.34-.267.313-.571-.248-.475-.803-.603-1.247-.863-5.577-3.284-11.015-6.776-16.152-10.721-1.103-.847-2.174-1.735-3.121-2.758-.252-.272-.503-.56-.689-.879-.27-.466-.26-.959.234-1.266.393-.246.824-.19 1.157.186 3.158 3.573 7.24 5.968 11.093 8.647 1.443 1.003 2.981 1.87 4.476 2.798l.11.06c1.691 1.227 3.514 2.238 5.348 3.22 1.409.756 2.197.43 2.54-1.141.818-3.74.97-7.523.899-11.32-.093-5.027-.451-10.033-1.531-14.965-.3-1.368-.924-2.371-2.07-3.259-6.216-4.815-12.046-10.096-18.028-15.192-3.133-2.67-6.212-5.4-9.531-7.847-1.813-1.336-3.29-3.049-4.805-4.708a202.543 202.543 0 0 1-8.85-10.368c-3.064-3.848-7.086-6.113-11.66-7.533-1.855-.577-3.64-1.237-5.197-2.414-.443-.335-.93-.47-1.479-.538a91.846 91.846 0 0 1-13.954-2.873 13.981 13.981 0 0 1-1.949-.723c-.556-.256-1.077-.666-.762-1.366.325-.716.91-.507 1.507-.282 4.469 1.693 9.147 2.497 13.842 3.22.037.006.082-.044.219-.124-.635-1.006-1.57-1.723-2.384-2.539-.83-.832-1.702-1.622-2.563-2.422-2.322-2.157-4.196-4.673-6.11-7.19-3.752-4.933-7.673-9.744-11.988-14.212-1.225-1.268-2.393-2.59-3.587-3.887v-3.21c1.333 1.454 2.633 2.94 4.005 4.358a161.023 161.023 0 0 1 13.577 16.026 59.03 59.03 0 0 0 6.79 7.661c1.744 1.656 3.597 3.224 5.053 5.145.883 1.167 1.983 1.935 3.271 2.482.881.375 1.813.632 2.725.933 4.703 1.554 8.933 3.83 12.06 7.822.89 1.137 1.848 2.22 2.78 3.324 4.383 5.187 8.821 10.265 14.243 14.492 6.152 4.798 11.919 10.09 17.861 15.156.394.336.712.815 1.377.867.132-.506.291-1.011.392-1.527.543-2.779 1.08-5.56 1.603-8.343.98-5.205 2.024-10.378 4.172-15.276 3.179-7.246 7.494-13.738 13.257-19.114 2.675-2.495 4.932-5.128 6.516-8.384.327-.672.72-1.311 1.067-1.974 6.633-12.7 13.272-25.395 19.892-38.101 3.038-5.831 6.088-11.656 9.033-17.534 1.257-2.509 2.719-4.841 4.582-6.932 3.108-3.49 6.845-6.29 10.347-9.34 3.184-2.775 6.834-4.957 10.356-7.293 3.083-2.045 6.45-3.312 10.102-3.837.647-.093 1.231-.255 1.755-.69 4.554-3.772 9.49-6.939 14.917-9.313.447-.195.793-.423.932-.986.9-3.652 2.422-7.072 3.996-10.47.131-.282.33-.56.1-.883-4.62-.617-6.326-1.674-8.936-5.635-.792-1.204-1.558-2.437-2.213-3.72-2.405-4.719-4.561-9.558-6.363-14.535-2.02-5.582-2.64-11.242-.032-16.859.346-.747.144-1.295-.251-1.924-1.518-2.411-2.646-5.009-3.5-7.72-2.148-6.826-2.42-13.662.128-20.447 1.427-3.801 3.58-7.061 7.436-8.847.43-.2.682-.483.81-.917 1.04-3.506 3.386-6.066 6.234-8.134 7.173-5.206 15.139-8.527 23.97-9.655.27-.035.528-.071.719-.29h4.174c.5.433 1.12.274 1.692.325 3.829.34 7.502 1.169 10.676 3.49.537.393 1.06.453 1.653.312 1.877-.445 3.743-.194 5.559.254 7.459 1.842 13.334 5.843 17.116 12.687 1.605 2.906 2.96 5.928 4.391 8.916 1.474 3.078 2.745 6.287 5.288 8.722.478.458.657 1.015.16 1.558-.479.525-1.04.409-1.587.054-.364-.236-.562-.746-1.228-.766.783 2.944 1.423 5.81 1.678 8.736.566 6.53.187 12.927-2.778 18.951-2.266 4.604-4.455 9.245-6.742 13.838-1.039 2.085-1.767 4.232-1.953 6.558a61.385 61.385 0 0 1-.297 2.87c-.078.601-.461.997-1.065 1.001-.603.005-.976-.386-1.082-.985-.075-.42-.108-.84-.004-1.272.125-.519.235-1.048.276-1.578.207-2.705 1.022-5.21 2.223-7.642 2.461-4.983 5.001-9.928 7.256-15.011 1.298-2.926 1.925-5.997 2.147-9.162.374-5.335-.272-10.562-1.743-15.694-.148-.516-.299-1.017-.258-1.568.051-.69.805-.72 1.159-1.11-1.381-2.253-2.46-4.52-3.516-6.8-1.37-2.957-2.723-5.922-4.328-8.767-3.408-6.04-8.627-9.648-15.234-11.367-2.027-.528-4.106-.835-6.146.024-.666.28-1.117-.025-1.567-.456-1.346-1.289-2.992-2.058-4.742-2.594-3.99-1.22-8.085-1.564-12.216-1.098-4.175.47-8.114 1.864-11.976 3.453-3.97 1.634-7.775 3.58-11.08 6.367-2.32 1.955-4.343 4.142-4.941 7.28-.14.727-.666 1.035-1.306 1.26-1.825.643-3.23 1.845-4.4 3.357-1.293 1.671-2.198 3.543-2.82 5.545-2.398 7.708-1.265 15.104 2.038 22.294.083.183.213.372.529.248.014-.24.054-.505.044-.768-.12-3.147.512-6.153 1.575-9.104 1.232-3.424 2.562-6.803 4.237-10.037.442-.853.873-1.724 1.562-2.417.443-.446.957-.456 1.439-.063.43.35.496.805.236 1.294-.1.188-.236.356-.347.539-2.35 3.861-3.926 8.065-5.4 12.31-.356 1.019-.304 1.085.726 1.268 1.22.218 2.373.632 3.515 1.083.298.118.594.246.872.404.484.274.668.71.458 1.224-.238.58-.755.567-1.223.374-1.236-.51-2.472-1.014-3.788-1.285-1.254-.259-1.418-.18-1.569 1.058-.224 1.864-.171 3.737-.04 5.607.115 1.617-.024 3.18-.713 4.693-1.31 2.87-1.996 5.868-1.606 9.045.267 2.179.652 4.34 1.44 6.397 1.818 4.744 3.826 9.407 6.08 13.961.997 2.016 2.152 3.942 3.565 5.702 1.41 1.756 3.19 2.776 5.481 2.914 1.998.12 3.939-.105 5.862-.616 2.593-.69 5.074-1.667 7.469-2.865 4.21-2.108 8.308-4.422 12.222-7.04 2.128-1.422 4.274-2.87 5.689-5.103.385-.61.91-.746 1.507-.431.586.31.553.896.37 1.414-.14.393-.403.753-.656 1.094-.607.823-1.367 1.5-2.146 2.156-4.117 3.47-8.842 5.988-13.525 8.566-3.332 1.836-6.795 3.369-10.494 4.33-1.393.362-1.366.406-1.342 1.835.013.78.471 1.138.997 1.517 4.164 3.004 8.44 5.845 12.709 8.695.68.455 1.172.432 1.834-.053 6.894-5.069 13.816-10.098 20.713-15.163 1.032-.758 1.968-1.644 2.954-2.465.455-.379.552-.814.476-1.415-.523-4.194-.762-8.409-.838-12.634-.022-1.23-.06-2.459-.082-3.688-.01-.604.04-1.177-.869-1.186-.584-.005-.984-.397-.976-1.052.01-.742.48-.972 1.135-1.087 3.338-.584 5.68-2.592 7.47-5.339 1.957-3.005 3.09-6.322 3.6-9.86.039-.265.023-.539.078-.798.125-.596.49-.967 1.119-.913.621.053.95.475.98 1.075.02.423-.03.854-.091 1.276a26.179 26.179 0 0 1-2.467 7.93c-1.62 3.276-3.768 6.108-7.149 7.756-.776.379-.72.971-.718 1.605.021 4.224.237 8.44.514 12.655.04.59.183.99.835 1.16.692.183 1.186.684 1.598 1.273.59.844 1.127.863 1.76.043.257-.333.448-.73.609-1.124.365-.894.576-1.813.547-2.803-.016-.564.313-1.024.984-1.044.637-.02 1.015.302 1.088.926.049.42.078.854.03 1.272-.18 1.51-.608 2.977-1.598 4.131-.639.744-.491 1.27-.059 1.95 1.667 2.613 3.295 5.253 4.988 7.85.552.847 1.251 1.599 1.895 2.384.453.552 1.041.86 1.728 1.092 11.715 3.94 23.085 8.714 34.173 14.17 7.345 3.614 13.658 8.547 19.013 14.735 3.266 3.772 5.67 7.965 7.125 12.776 3.046 10.075 6.244 20.104 9.412 30.143 1.254 3.973 2.747 7.878 3.856 11.89 2.591 9.378 4.488 18.922 6.392 28.46.91 4.557 1.967 9.094 2.404 13.73.291 3.086.313 6.197.633 9.278.75 7.179 1.356 14.367 1.705 21.575.393 8.115.733 16.234 1.065 24.35.183 4.485.34 8.966-.323 13.438-.476 3.202-1.247 6.257-2.956 9.07-2.025 3.335-3.891 6.766-5.819 10.159-.397.698-.72 1.41-.764 2.25-.333 6.41-1.244 12.768-1.765 19.16-.04.488-.053.986-.416 1.348-1.284 1.273-1.302 2.903-.988 4.445.514 2.525.094 4.853-.78 7.212-.502 1.354-1.52 1.645-2.704 1.776-.653.072-.975-.465-.657-1.064.172-.326.463-.588.663-.903 1.056-1.657 1.512-3.414.814-5.337-.848-2.337-3.155-3.158-5.336-1.962-2.022 1.108-3.847 4.517-2.52 7.39.157.337.348.665.457 1.019.099.318.033.657-.307.82-.325.153-.649.057-.854-.228a6.74 6.74 0 0 1-.655-1.097c-.588-1.265-.58-2.622-.369-3.94.585-3.635 3.964-7.036 8.244-5.615.129.043.207-.04.18-.277-.565-.635-1.45-1.45-2.2-1.457-1.662-.018-3.522-.038-4.864 1.188-1.925 1.762-3.93 1.54-6.068.617-.146-.064-.31-.085-.46-.137-2.582-.872-5.163-1.743-7.74-2.62-1.372-.466-1.38-.476-1.819.949-.299.969-.514 1.968-.86 2.919-.274.753-.113 1.163.619 1.51a150.965 150.965 0 0 0 11.053 4.716c.979.373 1.038.323 1.335-.666.433-1.432.84-2.873 1.251-4.311.14-.488.329-.985.944-.839.61.145.613.642.459 1.162-.47 1.588-.843 3.212-1.43 4.754-.275.722-.4 1.195.193 1.777.465.456.544 1.046.028 1.569-.48.484-1.028.425-1.674-.192-.42-.4-.753-.842-1.364-1.056-3.382-1.183-6.646-2.656-9.913-4.118-1.213-.542-1.247-.551-1.99.435-1.413 1.874-2.739 3.805-3.579 6.023h-.963c-.851-.796-.805-1.673-.246-2.605.552-.916 1.095-1.837 1.64-2.756.212-.356.495-.646.422-1.154-.153-1.056-.177-2.129-.303-3.19-.6-5.04-1.186-10.085-1.845-15.119-.29-2.22-.41-4.483-1.13-6.627-1.303-3.873-3.32-7.403-5.334-10.934-.33-.581-.682-.689-1.288-.37-1.523.797-3.168 1.266-4.83 1.686-4.777 1.207-9.647 1.875-14.521 2.522-4.504.596-9.025 1.08-13.516 1.757-8.04 1.212-16.125 2-24.217 2.727-4.792.43-9.59.808-14.388 1.142-5.492.382-10.989.747-16.496.832-.728.011-1.547.178-1.887-.786-.086-.246-.305-.267-.526-.228-1.061.187-1.99-.295-2.956-.58a223.154 223.154 0 0 1-11.132-3.59c-4.537-1.602-9.05-3.246-13.19-5.775-1.89-1.155-4.021-1.87-5.829-3.152-.173.25-.268.327-.284.42-1.035 6.056-2.149 12.1-2.575 18.247-.2 2.856.177 5.655.52 8.467.652 5.363.786 10.768 1.265 16.145.03.32.062.642.045.96-.03.553-.337.885-.89.958-.558.072-.94-.188-1.116-.702a3.871 3.871 0 0 1-.175-.941 342.356 342.356 0 0 1-.323-4.478c-.24-3.68-.468-7.36-.875-11.028-.283-2.547-.768-5.088-.66-7.661.21-4.974.88-9.895 1.7-14.804.448-2.683 1.161-5.336 1.176-8.08.04-7.968-.12-15.92-1.214-23.836-.47-3.401-.075-6.725 1.778-9.75.445-.727.799-1.511 1.205-2.263 1.5-2.776 3.065-5.517 4.486-8.331 1.326-2.628 2.419-5.355 2.73-8.336.072-.684-.052-1.236-.404-1.813-2.574-4.21-4.599-8.686-6.407-13.268-.824-2.088-1.617-4.19-2.642-6.193-.23-.449-.363-.999-.928-1.244-.134.123-.28.207-.354.333-3.252 5.468-6.582 10.892-9.7 16.436-1.126 2-2.481 3.74-4.103 5.288-5.145 4.91-10.309 9.8-15.523 14.635-3.097 2.872-6.231 5.72-9.816 7.993-.832.528-1.534 1.142-2.127 1.907-3.342 4.316-6.487 8.771-9.38 13.4-.864 1.382-1.796 2.649-3.435 3.23.122.431.234.783.321 1.14.867 3.566-.803 6.52-4.284 7.544-.377.11-.7.212-.89.585-.914 1.787-2.323 3.192-3.623 4.68-.36.412-.676.826-.652 1.411.043 1.084-.465 1.942-1.11 2.759-1.74 2.203-3.998 3.682-6.58 4.686a5.65 5.65 0 0 1-1.882.356c-2.19.05-4.383.022-6.576.047-2.368.027-3.928-1.173-4.926-3.218-.304-.622-.585-1.266-.78-1.929-.288-.977-.822-1.864-1.124-2.805-.737-2.3-1.739-4.41-3.16-6.372-.505-.695-.915-1.406-1.65-1.88-.538-.349-1.044-.745-1.574-1.11-8.995-6.19-18.461-11.606-27.916-17.047-4.909-2.824-9.996-5.35-14.694-8.535-8.942-6.064-17.48-12.69-26.246-18.999v-2.568zm272.071-79.783c-6.035.285-12.063.762-18.1.881-5.517.108-11.004-.434-16.292-2.203-2.457-.821-2.654-1.14-2.701-3.658-.084-4.414.615-8.733 1.539-13.026.11-.518.279-1.034.504-1.512a.75.75 0 0 1 .948-.403c.393.127.612.43.595.85-.01.265-.064.532-.13.788-1 3.899-1.478 7.874-1.738 11.878-.175 2.721-.006 2.948 2.577 3.711 2.933.868 5.952 1.273 8.985 1.586 4.759.49 9.5.093 14.25-.178 5.872-.335 11.749-.557 17.62-.868 3.099-.164 6.197-.284 9.297-.19.846.025 1.24-.277 1.463-1.088.754-2.736 1.372-5.495 1.642-8.325.051-.532.106-1.064.176-1.593.068-.507.414-.778.884-.735.46.042.784.347.776.862-.01.642.005 1.288-.072 1.922-.378 3.083-.963 6.125-1.925 9.082-.557 1.713-.603 1.713-2.357 1.67-.9-.023-1.8-.004-2.923-.004.493 1.003.144 1.78-.104 2.585-1.166 3.795-1.797 7.7-2.26 11.629-.325 2.76-.538 5.532-.813 8.298-.187 1.89.296 3.72.464 5.578.766 8.455 3.003 16.594 5.262 24.727.539 1.939 1.444 3.733 2.737 5.751.262-2.34.49-4.283.694-6.228.623-5.904 1.58-11.759 2.458-17.626.777-5.18 1.626-10.35 2.05-15.576.09-1.121.084-2.245-.035-3.366-.059-.535.102-.997.682-1.093.677-.113.92.345 1.043.933.234 1.114.198 2.242.115 3.358-.332 4.426-.98 8.816-1.653 13.2-1.224 7.978-2.523 15.947-3.286 23.985-.46 4.841-.712 9.72.165 14.527.834 4.579 2.221 9.016 4.653 13.053 2.195 3.645 2.685 7.751 3.03 11.85.179 2.123-.416 4.246-.662 6.369-.202 1.751-.485 3.494-.758 5.235-.102.656-.003 1.269.163 1.898 1.137 4.298 2.678 8.453 4.452 12.522.517 1.183 1.462 2.1 2.255 3.108.582.739.967 1.539.808 2.514-.085.527-.31.924-.913.915-.519-.007-.805-.32-.792-.814.028-1.1-.695-1.723-1.376-2.422-.803 1.321-2.183 5.945-2.202 7.323-.045 3.16.096 6.317.631 9.43.46 2.68.167 5.328-.078 7.981a863.387 863.387 0 0 1-1.32 13.083c-.084.786.207 1.01.926 1.135 2.215.386 4.447.639 6.68.84 5.591.501 11.19.889 16.803 1.06 2.144.066 2.187.061 2.386-2.037.54-5.695 1.282-11.37 1.58-17.085.057-1.064.496-1.963.993-2.846 1.733-3.074 3.355-6.222 5.27-9.178 2.327-3.589 3.079-7.552 3.54-11.682.494-4.444.1-8.87-.068-13.296-.354-9.346-.855-18.687-1.319-28.03-.258-5.18-.977-10.322-1.373-15.49-.135-1.76-.382-3.518-.392-5.276-.024-4.312-.887-8.5-1.704-12.697-2.01-10.334-4.15-20.64-6.695-30.86-.932-3.745-2.379-7.313-3.53-10.982-3.454-11.013-7.001-21.998-10.331-33.048-1.676-5.558-4.907-10.026-8.795-14.155-5.131-5.449-11.215-9.528-17.94-12.745a311.776 311.776 0 0 0-29.564-12.34c-.545-.194-1.074-.494-1.781-.431-.25 1.371.021 2.738.092 4.093.158 2.995.036 5.988.07 8.983.004.263-.059.53-.11.791-.207 1.035-.474 1.278-1.54 1.114-3.023-.465-6.067-.607-9.114-.617-2.563-.009-5.132.016-7.673.447-.263.045-.533.073-.702.422.26.619.864 1.003 1.312 1.511 1.624 1.848 3.264 3.68 4.893 5.524 1.047 1.184 1.073 1.34.156 2.615-3.377 4.694-7.05 9.153-10.786 13.56-6.536 7.71-13.11 15.388-19.682 23.068-1.223 1.43-2.305 2.946-3.186 4.608-.275.522-.55 1.19-1.253 1.039-1.026-.223-1.151.433-1.35 1.114-1.21 4.155-2.437 8.305-3.64 12.462-.8 2.773-1.541 5.564-2.097 8.397-.607 3.102-.691 6.266-.967 9.406-.76 8.68-1.505 17.362-2.191 26.049-.502 6.342-1.29 12.654-1.86 18.988-.19 2.126-.19 4.273-.223 6.411a427.88 427.88 0 0 0 .193 21.004c.19 5.502.61 10.992 1.029 16.483.367 4.796.7 9.596 1.084 14.392.303 3.783.675 7.56.982 11.344.067.823.426 1.092 1.225 1.07 5.4-.147 10.788-.5 16.174-.872 4.638-.32 9.271-.731 13.904-1.136 5.857-.51 11.71-1.067 17.542-1.827 6.888-.898 13.782-1.762 20.664-2.712 5.079-.7 10.163-1.405 15.105-2.847a19.81 19.81 0 0 0 2.693-1.03c.713-.326.992-.835 1.029-1.63.166-3.577.384-7.152.6-10.726.101-1.654.261-3.305.355-4.959.04-.673.287-1.226.658-1.769 3.096-4.523 5.373-9.48 7.63-14.446.616-1.358.606-2.781.458-4.242-.22-2.167-.821-4.147-2.066-5.982-1.677-2.471-2.255-5.274-1.987-8.247.03-.32.005-.657.102-.956.936-2.884-.016-5.594-.907-8.24-1.317-3.91-1.918-7.883-1.761-11.986.036-.923-.02-1.822-.547-2.622-3.085-4.686-4.517-9.993-5.836-15.354-.763-3.112-1.836-6.167-2.225-9.348-.488-3.979-1.206-7.926-1.602-11.914-.255-2.563.13-5.125.386-7.676.503-5.002 1.138-9.985 2.546-14.831.221-.764.481-1.516.787-2.472-4.63-.006-9.053.306-13.478.515zm-108.127-1.226c-.548-.43-1.004-.137-1.455-.045-.582.12-1.168.207-1.747.048s-.913-.543-.86-1.179c.056-.646.444-.985 1.067-.93.884.079 1.682-.263 2.52-.399.851-.138 1.25-.577 1.417-1.448.422-2.203.952-4.385 1.438-6.575.105-.47.215-.938.312-1.409.117-.57.366-1.017 1.017-1.05.639-.033.973.344 1.139.917.042.147.1.29.187.538 2.43-.903 4.833-.485 7.232.09.571.136 1.156.23 1.714.41 3.912 1.259 7.853 1.454 11.85.432.562-.144 1.164-.159 1.75-.178.619-.02 1.019.288 1.072.937.051.641-.295 1.044-.889 1.142-4.058.67-8.106 1.487-12.224.304-1.795-.517-3.625-.923-5.456-1.3-1.824-.377-3.578-.339-5.202.861-.52.385-.83.715-.968 1.323-1.272 5.683-2.597 11.355-3.836 17.046-.823 3.78-.779 7.649-.99 11.488-.29 5.284-.324 10.588-1.01 15.837-.38 2.917-.912 5.805-.779 8.762.144 3.206.361 6.403 1.097 9.542.097.417.136.856.415 1.2 2.027 2.496 3.06 5.49 4.231 8.416 1.63 4.072 3.333 8.109 5.517 11.923.255.446.387 1.008.911 1.243.278-.056.318-.288.395-.465 3.356-7.87 7.135-15.545 10.63-23.351 1.594-3.562 2.956-7.222 3.832-11.04.192-.831.298-1.682.447-2.524.094-.53.361-.931.949-.862.574.068.773.503.758 1.047-.033 1.184-.264 2.337-.564 3.476-1.45 5.502-3.657 10.714-6.124 15.823-3.068 6.355-5.925 12.806-8.763 19.266a7.887 7.887 0 0 0-.636 2.307c-.432 4.024-2.063 7.615-3.916 11.124-1.547 2.93-3.086 5.871-4.775 8.72-1.742 2.94-1.963 6.094-1.496 9.314 1.036 7.114 1.168 14.266 1.159 21.428-.002 1.014.26 1.732 1.079 2.322a28.903 28.903 0 0 0 2.412 1.578c8.105 4.689 16.861 7.767 25.781 10.442l3.955 1.183c.43-.562.222-1.104.179-1.61-.488-5.86-1.024-11.715-1.488-17.576-.372-4.69-.666-9.385-.987-14.077-.627-9.182-.762-18.375-.759-27.575.001-5.787.456-11.533 1.113-17.275.472-4.142.824-8.299 1.186-12.453.617-7.081 1.2-14.166 1.796-21.249.22-2.61.51-5.217.638-7.832.212-4.367 1.337-8.548 2.487-12.72 2.544-9.222 5.324-18.374 8.583-27.374.204-.563.362-1.114.266-1.718-.458-2.845-.934-5.688-1.671-8.412-.33-.276-.553-.013-.797.01-.982.087-1.217-.1-1.386-1.084-.09-.526-.154-1.057-.255-1.582-.3-1.559-.966-2.952-2.052-4.107a149.013 149.013 0 0 0-11.349-10.87c-1.736-1.493-3.475-1.847-5.6-1.154-2.76.9-5.438 1.933-7.754 3.739-.126.098-.25.202-.381.293-.424.295-.859.417-1.34.113-.57-.359-.552-.898-.387-1.42.208-.662.473-1.309.764-1.94 1.095-2.378 2.22-4.743 3.318-7.121a187.457 187.457 0 0 0 2.033-4.535c.618-1.434 1.534-2.682 2.463-4.001-.476-.242-.74.06-1.021.228-2.39 1.428-4.682 3-6.87 4.723-1.305 1.028-2.476 2.173-3.487 3.515-1.93 2.563-4.015 5.006-6.145 7.408-.283.318-.57.644-.906.9-.39.297-.808.244-1.15-.122-.293-.312-.332-.676-.088-1.025.213-.305.474-.576.714-.862 1.788-2.13 3.58-4.258 5.362-6.392.229-.273.536-.517.533-.964-.584-.143-1.078.058-1.587.201a22.666 22.666 0 0 0-6.383 2.928c-3.307 2.176-6.698 4.254-9.72 6.804-3.629 3.061-7.392 5.99-10.6 9.522-1.407 1.55-2.633 3.235-3.563 5.12-5.183 10.5-10.766 20.79-16.169 31.175-4.688 9.01-9.394 18.01-14.094 27.014-.123.236-.262.466-.38.706-1.704 3.496-3.787 6.691-7.057 8.952-7.734 7.87-13.324 16.95-15.629 27.858-.773 3.658-1.43 7.34-2.139 11.012-.06.313-.16.626.037.979.825.05 1.333-.572 1.895-1.01 2.363-1.85 4.448-4.007 6.622-6.066.66-.625 1.33-1.239 2.01-1.842.447-.397.98-.573 1.401-.038.383.487.232 1-.236 1.414-2.924 2.586-5.541 5.507-8.626 7.915-.921.719-1.849 1.472-3.083 1.622-.333.041-.678.163-.71.536-.064.755-.703 1.016-1.228 1.468 1.432 1.353 2.976 2.488 4.48 3.672.438.344.824.33 1.321.112 1.737-.769 3.576-.978 5.469-1.052 2.226-.087 3.758.966 5.02 2.625.76 1 1.178 2.157 1.472 3.356.815 3.322 1.59 6.652 2.059 10.046.118.859.405 1.556 1.129 2.178 1.495 1.288 2.21 3.12 2.96 4.897.328.777.61 1.573.903 2.334.598.021.67-.417.86-.7 2.635-3.9 5.288-7.786 8.25-11.453a8.25 8.25 0 0 1 2.283-1.97c2.081-1.226 3.888-2.83 5.727-4.383 5.232-4.422 9.984-9.362 15.047-13.968a187.091 187.091 0 0 0 4.2-3.962 22.326 22.326 0 0 0 3.974-5.18c3.01-5.359 6.198-10.62 9.395-15.871.777-1.275.942-2.427.64-3.898-1.005-4.9-1.346-9.896-.652-14.839.493-3.5.835-7 1.105-10.514.417-5.434-1.026-10.304-4.254-14.71-2.184-2.98-4.475-5.869-6.837-8.705a195.26 195.26 0 0 1-2.429-2.988 6.69 6.69 0 0 1-.626-.923c-.209-.377-.105-.766.199-1.019.363-.302.794-.28 1.172.033.122.102.226.228.326.353 3.216 4.07 6.717 7.913 9.663 12.197 1.085 1.578 1.996 3.262 3.168 4.887.006-6.37 1.715-12.397 3.06-18.438zm49.938-7.28c6.687-7.863 13.389-15.715 20.056-23.596 2.764-3.267 5.446-6.602 7.996-10.042.829-1.12.835-1.135-.035-2.13-2.04-2.337-4.07-4.684-6.328-6.82-.926-.876-.97-.879-1.67.121-3.928 5.608-7.823 11.244-11.265 17.165-2.043 3.513-3.527 7.316-5.086 11.065-1.887 4.535-4.215 8.88-5.809 13.538-.514 1.506-1.01 3.02-1.513 4.53l.23.174c1.142-1.335 2.285-2.667 3.424-4.004zm87.396 174.147c.124-.295.032-.562-.24-.669-.917-.36-.88-1.097-.799-1.869.364-3.398.748-6.795 1.086-10.196.275-2.764.504-5.532.73-8.3.096-1.183-.23-2.335-.36-3.5-.338-3.028-.596-6.058-.596-9.108 0-1.246.183-2.435.584-3.615.586-1.716 1.162-3.438 1.56-5.213.166-.747.18-1.444-.129-2.186-1.724-4.14-3.29-8.338-4.363-12.686-.596-.098-.617.405-.759.69-1.686 3.4-3.39 6.788-5.545 9.925-.285.415-.378.864-.42 1.351-.46 5.109-.739 10.227-.96 15.35-.03.683.215 1.231.554 1.794a95.22 95.22 0 0 1 4.325 8.04c1.377 2.875 2.205 5.878 2.559 9.046.486 4.351 1.074 8.692 1.625 13.037.017.139.095.271.201.561.582-.808.625-1.69.947-2.452zm-117.7-208.283a28.318 28.318 0 0 1 6.086-1.956c1.67-.329 3.122-.053 4.514 1.006 3.031 2.306 5.757 4.942 8.506 7.558 1.657 1.577 3.337 3.128 5.02 4.703.193-.2-.079-.532-.172-.857-1.838-6.43-4.196-12.672-6.724-18.856-.809-1.976-1.465-4.013-2.196-6.02-1.091-2.998-1.584-6.092-1.514-9.28.013-.616.002-1.234.002-1.886-.663.09-.648.543-.775.854-.712 1.73-1.353 3.493-1.703 5.332-.143.747-.487 1.258-1.031 1.727-1.701 1.468-3.33 3.01-4.758 4.754-.99 1.208-1.757 2.53-2.385 3.967-1.154 2.643-2.417 5.237-3.629 7.855-.2.432-.499.829-.511 1.435.578.175.902-.173 1.27-.336zm55.7-11.753c4.645-.5 9.284-.438 13.932-.039 2.16.186 1.988.37 1.992-1.855.008-3.208.043-6.416-.254-9.619-.122-1.313-.41-2.468-1.426-3.443-1.119-1.073-1.949-2.398-2.753-3.733-1.124-1.865-2.332-3.68-3.637-5.721-2.776 8.806-6.52 16.894-10.81 24.829 1.103.066 2.01-.317 2.956-.419zm3.008-25.219c-1.398 1.407-2.967 2.611-4.56 3.778-5.773 4.225-11.562 8.43-17.34 12.648-.46.335-1.002.59-1.412 1.301 5.672 1.025 10.388 3.65 14.422 7.684.785-.545 1.223-1.271 1.62-1.999 3.682-6.76 6.85-13.75 9.344-21.041.274-.798.308-1.514-.032-2.314-.413-.972-.682-2.004-1.015-3.01l-.32.06c.686 1.24.084 2.097-.707 2.893zm-28.174 59.295c2.029-4.65 3.98-9.334 6.239-13.879.312-.628.322-1.228.273-1.859-.185-2.401-.777-4.74-1.15-7.112-.058-.37-.125-.737-.196-1.104-.441-2.313.094-2.009-2.579-2.292-1.063-.113-2.132.037-3.197.14-.657.063-1.09.302-1.317.952-1.25 3.586-2.391 7.194-2.682 11.016-.049.655-.013 1.285.168 1.898 1.275 4.3 2.402 8.639 3.281 13.04.041.202.152.39.27.69.588-.46.682-1.012.89-1.49zM93.776 295.655c1.62.28 3.069.921 4.234 2.097.434.438.853.752 1.51.742 1.28-.018 2.285.518 2.863 1.688.361.733.86.651 1.46.382.972-.436 1.396-1.292 1.685-2.223.224-.72.31-1.512.075-2.218-.863-2.58-.833-5.255-.945-7.914-.04-.985-.265-1.866-.783-2.723-1.022-1.692-1.896-3.462-2.417-5.387-.11-.407-.3-.8-.507-1.17-.679-1.219-.714-1.219-1.996-.506-.232.129-.476.33-.718.335-1.672.033-1.696 1.129-1.716 2.393-.034 2.192-.311 4.366-.914 6.483-.545 1.919-1.294 3.749-2.764 5.162-.698.67-.643 1.538-.92 2.526.714.128 1.283.236 1.853.333zM217.92 113.301c-3.736-.706-6.906.617-9.928 2.606-.644.423-.463.843-.197 1.343 1.304 2.455 2.791 4.798 4.274 7.145.291.461.634.626 1.19.577 1.917-.17 3.837-.283 5.742.12.36.076.628-.056.84-.322 2.198-2.745 4.393-5.49 6.7-8.374-2.815-1.735-5.668-2.537-8.621-3.095zm-18.47-11.358c-.557 5.746-.177 11.066 2.313 16.283 3.212-3.035 6.59-5.677 11.113-7.008-4.593-3.115-8.966-6.023-13.427-9.275zM79.3 310.444c.777.393 1.56.578 2.459.494 3.344-.316 6.692-.601 10.044-.825 1.977-.132 3.526-.794 4.723-2.507 1.062-1.518 2.482-2.784 3.572-4.304.338-.473.69-.94.517-1.609-.148-.577-.417-.963-1.04-1.047-.579-.078-.694.337-.866.74-.33.775-.942 1.274-1.69 1.625-2.269 1.065-4.478 2.243-6.694 3.413-1.88.993-3.935 1.272-6.062.963-2.526-.367-5.056-.699-7.732-1.067.131 2.017 1.121 3.293 2.769 4.124zm1.669-5.304c1.637.234 3.268.53 4.936.525a8.023 8.023 0 0 0 3.698-.9l6.274-3.22c1.491-.763 1.573-1.526.24-2.59-1.13-.902-2.488-1.192-3.886-1.336-.37-.038-.748.005-1.122-.009-1.492-.051-2.664.4-3.841 1.477-2.434 2.224-5.456 3.525-8.563 4.58-.496.169-.996.327-1.494.49 1.234.744 2.51.805 3.758.983zm142.489-171.275c2.633-4.088 5.302-8.152 8.12-12.114.513-.72.492-1.163-.185-1.693-.797-.625-1.553-1.306-2.315-1.976-.453-.398-.805-.377-1.195.116-2.091 2.638-4.197 5.265-6.312 7.884-.368.456-.46.939-.36 1.493.432 2.36.858 4.72 1.297 7.137.637-.156.757-.546.95-.847zm-20.6-13.687c-.387.309-.26.635-.116.996.494 1.236.95 2.49 1.469 3.714 1.126 2.647 2.117 5.344 3.047 8.064.15.44.18.945.71 1.298.667-2.614 1.397-5.168 2.339-7.654.224-.594-.052-1.025-.343-1.477a112.505 112.505 0 0 1-4.331-7.275c-1.143.663-1.87 1.608-2.776 2.334zM93.531 267.06c1.18.75 1.68 1.848 1.963 3.143.411 1.876.711 3.765.884 5.678.092 1.015.462 1.192 1.344.746.721-.365 1.08-.963 1.217-1.76.405-2.368.716-4.741.582-7.151-.086-1.58-1.148-2.849-2.735-2.974-1.64-.13-3.284.017-4.917.805.516.738 1.093 1.151 1.662 1.513zm-14.62 45.508c.63 2.033 1.381 2.659 3.454 2.703 1.707.038 3.416-.012 5.123.019 3.029.057 5.14-1.68 7.512-3.668-5.643.257-10.834 1.335-16.09.946zm14.25-25.044c.853-1.662 1.037-3.453 1.166-5.225.285-3.902-.052-7.769-.933-11.581-.289-1.247-.306-1.243-1.596-1.933.99 6.259 1.378 12.477 1.363 18.74zm206.737-20.13c.254-2.619-1.147-7.767-2.855-10.261-.955 3.126-.075 6.203 2.855 10.262zm10.995 72.187c1.466.945 3.075 1.41 4.7 1.792.828.194 1.299-.55 1.918-.894l-.04-.4-6.578-.498zM106.937 291.23c.03.563.375.582.746.263.38-.326.603-.712.407-1.254-.305-.84-.573-1.694-.858-2.542l-.355.002c-.173 1.172-.001 2.356.06 3.531zm-5.34-17.199c-.812 1.376-.78 1.545.427 2.18-.011-.773-.178-1.445-.427-2.18z"/><path d="M227.304 48.861c-5.226-3.329-11.019-5.215-16.728-7.275-2.225-.803-4.015-2.205-5.673-3.816-2.27-2.207-4.187-4.714-6.091-7.23-.872-1.151-1.742-2.303-2.617-3.451a8.834 8.834 0 0 0-.616-.739c-.385-.406-.867-.484-1.289-.14-.434.357-.418.84-.066 1.286 3.406 4.317 6.41 8.97 10.58 12.65 1.156 1.02 2.441 1.86 4.07 2.811l-4.056.448c.053-1.527.052-1.526-1.215-2.087-2.852-1.26-5.107-3.317-7.182-5.556-3.938-4.245-7.502-8.775-10.065-14.014-.254-.52-.566-.982-1.212-.74-.632.235-.657.81-.463 1.35.195.552.437 1.095.73 1.6 3.268 5.625 7.132 10.79 11.91 15.229 1.729 1.605 3.591 3.043 5.838 3.887.198.074.393.171.453.456-1.232.27-2.468.53-3.697.82-.36.085-.725.216-1.037.407-.353.216-.441.597-.3.987.117.328.386.536.734.52.369-.017.74-.092 1.1-.183a39.869 39.869 0 0 1 9.835-1.235c1.75 0 3.399.335 4.916 1.215.538.311 1.043.559 1.61.075.298-.255.601-.097.898.026 2.717 1.128 5.414 2.295 7.81 4.04.428.312.862.657 1.182 1.073.535.695.967 1.387 2.064 1.027.463-.153.534.427.635.761.48 1.594.621 3.25.846 4.89.123.899.217 1.802.304 2.706.056.595.238 1.072.943 1.031.69-.04.874-.526.847-1.123-.305-6.438-2-12.33-6.712-17.03-.341-.339-.693-.669-1.056-.982-.45-.388-.952-.556-1.419-.059-.485.517-.225.981.21 1.382 1.384 1.277 2.56 2.727 3.59 4.298.143.22.26.456.389.685zM203.242 77.783a23.807 23.807 0 0 1-9.542 2.7c-1.155.08-2.215-.312-3.036-1.194-.182-.195-.334-.426-.542-.585-.32-.246-.68-.286-1.04-.041-.379.254-.39.629-.296.997.123.481.46.844.82 1.165 1.18 1.049 2.58 1.487 4.138 1.42 2.366-.101 4.682-.524 6.89-1.373 2.592-.997 5.15-2.084 7.71-3.161a7.398 7.398 0 0 0 1.516-.887.783.783 0 0 0 .244-1.012c-.203-.415-.535-.73-1.019-.574-3.338 1.082-6.67.242-10.01.026-3.306-.214-6.624-.37-9.918.197-.95.164-1.865.472-2.747.859-.536.236-.901.624-.617 1.263.25.561.763.57 1.234.396 4.478-1.653 9.068-1.055 13.645-.707.797.06 1.592.145 2.387.226.03.002.052.077.183.285zM192.087 70.58c.587 0 1.176.034 1.759-.01.557-.043.89-.424.85-.963-.035-.46-.384-.764-.87-.782-.692-.026-1.388.007-2.08-.016-.744-.025-1.494-.03-2.214-.273-1.15-.389-1.654-1.146-1.39-2.326.162-.718.481-1.408.783-2.088.928-2.093 2.054-4.1 2.727-6.305.327-1.074.604-2.158.687-3.281a7.75 7.75 0 0 0 .009-1.117c-.041-.583-.248-1.074-.949-1.028-.605.041-.795.49-.763 1.019.029.487-.055.952-.126 1.427-.286 1.92-.965 3.708-1.778 5.454-.608 1.305-1.231 2.603-1.826 3.913-.354.78-.604 1.594-.613 2.465-.016 1.693.884 3.003 2.478 3.53 1.073.354 2.19.447 3.316.38zM242.802 48.092c.034-.565-.15-1.012-.705-1.122-.574-.113-.885.244-1.006.785-.336 1.49-1.125 2.763-1.951 4.014-.297.45-.575.877-1.286.579-.587-.246-.984.132-1.264.673-.982 1.899-1.988 3.785-2.828 5.752-.084.197-.171.395-.227.6-.165.61-.213 1.228.543 1.445.645.186.964-.252 1.161-.81.606-1.72 1.487-3.31 2.324-4.92.216-.415.374-.919 1.051-.643.397.162.744-.068.99-.363 1.378-1.654 2.56-3.423 3.115-5.54.04-.155.057-.315.083-.45z"/><path d="M207.603 52.205c0-.66-.164-1.383-.616-2.008-.808-1.118-2.17-1.093-2.902.085-.729 1.175-.742 2.428-.16 3.67.313.666.84 1.125 1.608 1.147.782.023 1.279-.462 1.63-1.104.286-.521.434-1.086.44-1.79zM252.05 47.207c.043-.534-.062-.94-.576-1.062-.468-.11-.848.057-1.037.52-.204.494-.377 1-.568 1.498-.718 1.885-1.172 3.886-2.516 5.493-.336.401-.319.911.146 1.275.405.316.806.176 1.172-.1.435-.331.725-.788.972-1.26.99-1.901 1.628-3.943 2.329-5.96.051-.149.061-.313.079-.404zM187.106 53.147a3.404 3.404 0 0 0-.667-2.24c-.538-.728-1.434-.735-2.042-.065-.964 1.063-.962 3.542.003 4.61.607.67 1.476.66 2.046-.067.51-.65.686-1.42.66-2.238zM195.687 84.548c-.836-.09-1.635-.071-2.408-.327-.574-.19-1.092-.043-1.247.61-.157.658.293.966.845 1.136 1.343.415 2.726.406 4.108.333.524-.029.956-.313.97-.867.016-.642-.43-.934-1.042-.94-.424-.004-.848.037-1.226.055zM246.74 48.223c-.409.015-.773.235-.783.632-.032 1.404-.263 2.74-.91 4.006-.173.34-.019.75.361.957.357.192.726.157 1.05-.093.832-.642 1.53-3.995 1.041-4.993-.15-.308-.385-.502-.759-.51zM210.813 352.164c-.453-5-.904-10-1.36-15-.249-2.713-.51-5.425-.765-8.137-.029-.319-.039-.641-.09-.957-.07-.425-.319-.67-.775-.616-.466.057-.636.398-.61.796.08 1.226.196 2.448.308 3.67.501 5.48 1.008 10.957 1.511 16.435.122 1.33.237 2.66.355 3.99.018.213.003.438.071.634.127.372.361.685.809.631.452-.054.597-.387.59-.807-.003-.214 0-.427 0-.64l-.044.001zM82.094 292.088c1.107.253 2.122.178 2.918-.77.898-1.072 1.35-2.29 1.282-3.692-.022-.433-.256-.731-.678-.757-.535-.033-.756.339-.755.823.001.88-.178 1.696-.739 2.4-.724.907-1.242.851-1.75-.22-.33-.696-.45-1.411-.093-2.157.205-.43.415-.882.49-1.346.135-.84.208-1.63 1.404-1.457.33.048.58-.227.61-.604.037-.453-.21-.687-.614-.807-.94-.278-2.097.248-2.712 1.258-.451.74-.71 1.554-.822 2.41-.064.475-.244.846-.755.882-.434.031-.67-.318-.826-.654-.716-1.52-.567-3.011.233-4.45.318-.573.848-.752 1.497-.71.34.02.638-.183.662-.56.028-.429-.222-.698-.643-.783-.652-.131-1.233.077-1.86.268-1.054.322-1.757.729-1.685 2.006.032.56-.332 1.12-.706 1.585-.66.821-1.23.781-1.68-.197-.698-1.52-.517-3.02.313-4.449.305-.524.802-.63 1.383-.59.434.03.714-.246.721-.681.007-.434-.294-.673-.69-.763-.792-.18-1.475.056-2.072.585-1.686 1.494-1.98 5.54-.495 7.273.623.726 1.387 1.217 2.394.742.582-.275.855-.16 1.002.496.1.456.34.9.596 1.299.42.652.983 1.167 1.829 1.097.65-.054.938.23 1.17.81.235.585.633 1.104.96 1.652l.11.06zM221.437 303.767c11.434-.62 22.761-2.167 34.075-3.865 8.346-1.253 16.699-2.473 25.011-3.943a32.377 32.377 0 0 0 1.887-.376c.39-.092.704-.322.637-.782-.077-.524-.439-.708-.932-.621-1.052.186-2.097.402-3.15.586-10.42 1.818-20.892 3.29-31.355 4.835-8.412 1.242-16.861 2.082-25.334 2.721-1.383.106-2.777.086-4.167.126-.317.009-.657-.043-.919.187-.22.191-.252.46-.171.733.105.365.416.482.738.513 1.23.119 2.455-.016 3.68-.114zM258.245 153.683c4.17 0 8.34.072 12.509-.017 6.142-.13 11.999 1.085 17.655 3.407.396.163.781.355 1.189.477.443.133.877.065 1.09-.407.236-.518.062-.95-.427-1.218-.374-.204-.775-.36-1.168-.525-6.621-2.793-13.535-3.795-20.69-3.523-5.074.193-10.154.223-15.23.332-4.008.087-8.016.185-12.024.278-.213.005-.428.003-.64.026-.52.055-.738.383-.738.874 0 .444.265.707.677.757.476.058.961.068 1.44.059 4.971-.099 9.941-.206 14.912-.308.481-.01.963-.002 1.445-.002v-.21zM257.373 282.374c2.627-.088 5.087.55 7.425 1.688.931.454.914.499.455 1.564-.187.432-.211.85.17 1.168.379.315.788.201 1.187-.031 1.203-.705 1.46-2.063.578-3.142-.63-.77-1.49-1.21-2.381-1.575-2.967-1.218-6.04-1.732-9.245-1.356-9.095 1.065-17.944 3.261-26.717 5.8a5.687 5.687 0 0 0-.756.267c-.485.217-.804.568-.627 1.13.174.554.611.706 1.15.58.26-.06.51-.156.765-.234 8.241-2.47 16.59-4.457 25.124-5.623.95-.129 1.914-.159 2.872-.236zM310.14 265.843c-1.291-.069-2.557.146-3.826.31a3.29 3.29 0 0 0-.915.252c-.39.176-.505.53-.427.937.082.418.341.657.775.66.265.003.531-.022.795-.058 5.46-.742 10.726.13 15.864 1.963 1.365.487 2.638 1.172 3.622 2.278.752.843.78 1.154.045 2.035-.436.524-.67 1.004-.095 1.515.526.468.997.108 1.418-.233 1.027-.831 1.306-2.22.715-3.472-.472-1.002-1.274-1.699-2.16-2.308-1.692-1.166-3.59-1.845-5.555-2.389-3.359-.929-6.784-1.377-10.256-1.49zM293.031 152.124c-.029.646.1 1.107.706 1.18.58.071.825-.312 1.002-.821 1.87-5.354 5.297-9.733 8.855-14.02.883-1.063 1.786-2.14 3.095-2.743.541-.25.654-.736.447-1.214-.226-.523-.71-.568-1.227-.394-.467.158-.862.425-1.237.728a16.706 16.706 0 0 0-2.077 1.999c-3.36 3.839-6.313 7.957-8.592 12.534-.453.909-.875 1.835-.972 2.751zM328.74 321.103c.261.007.756-.064.846-.676.083-.567-.255-.885-.79-1.024-1.512-.392-3.07-.463-4.61-.556-5.655-.348-11.314-.624-16.971-.927-.054-.003-.107-.01-.16-.012-.783-.012-1.31.326-1.263.874.055.633.477.892 1.094.929 1.174.07 2.343.192 3.518.253 4.752.246 9.505.462 14.257.722 1.28.07 2.553.256 4.078.417zM278.065 238.362c.579-1.34 1.562-2.24 2.533-3.136 1.803-1.664 3.632-3.301 5.092-5.291.41-.559.819-1.125 1.147-1.732.27-.497.307-1.063-.293-1.39-.527-.287-.944 0-1.206.447-1.757 3.002-4.458 5.14-6.87 7.54-.683.68-1.35 1.373-1.802 2.231-.875 1.662-.295 3.03 1.518 3.363 1.676.307 3.376.445 4.835 1.482.416.296.949.228 1.248-.283.293-.503.1-.914-.35-1.234-1.151-.819-2.413-1.348-3.83-1.481-.633-.06-1.28-.06-2.022-.516zM268.738 240.732c-.515-.043-.986.019-1.092.642-.1.571.197.901.737 1.037 1.185.299 2.378.572 3.555.9 1.74.486 3.474.995 5.202 1.524.706.216 1.422.426 1.952 1.018.373.418.847.472 1.259.06.39-.39.345-.872.08-1.321-.256-.433-.694-.671-1.131-.853-3.304-1.369-6.775-2.172-10.244-2.972-.104-.024-.211-.024-.318-.035zM253.983 167.021c.043 1.448 1.17 2.528 2.585 2.476 1.515-.055 2.613-1.286 2.577-2.89-.033-1.463-1.16-2.576-2.541-2.507-1.434.072-2.664 1.442-2.62 2.921zM205.549 317.765c1.167-.006 2.08-1.029 2.101-2.35.025-1.555-1.087-2.78-2.476-2.73-1.198.044-2.04 1.037-2.027 2.394.015 1.451 1.124 2.692 2.402 2.686zM96.532 258.722c2.72-.053 5.437.02 8.072.887 2.49.82 4.447 2.266 5.887 4.448 2.242 3.395 3.212 7.184 3.514 11.186.027.373.047.747.05 1.121.008.67.237 1.222.987 1.168.645-.047.799-.583.806-1.181.012-1.077-.155-2.132-.292-3.19a27.326 27.326 0 0 0-2.25-7.827c-2.18-4.8-5.97-7.37-11.098-8.165-2.98-.462-5.969-.373-8.96-.273a5.61 5.61 0 0 0-.64.053c-.595.088-1.039.371-.968 1.036.063.586.505.746 1.048.74 1.282-.012 2.563-.003 3.844-.003zM111.602 221.278c.112.624.582.774 1.156.854 2.81.394 5.544 1.135 8.26 1.929 4.414 1.29 8.753 2.783 12.928 4.727 1.262.587 2.493 1.233 3.628 2.038.646.458 1.323.903 1.515 1.782.116.533.505.848 1.071.7.638-.165.79-.678.664-1.26-.177-.815-.667-1.44-1.288-1.979-1.265-1.095-2.704-1.923-4.206-2.62-7.008-3.253-14.304-5.616-21.903-7.032-.314-.059-.637-.13-.95-.113a.905.905 0 0 0-.875.974zM129.826 220.127c4.17-.043 8.337-.134 12.454-.897 1.103-.204 2.198-.458 3.223-.933.337-.156.691-.31.974-.541.346-.284.55-.672.253-1.127-.264-.403-.626-.567-1.098-.382-7.099 2.785-14.505 2.063-21.857 1.879-1.596-.04-3.206-.099-4.788-.413-.625-.124-1.257-.034-1.341.742-.083.76.517.98 1.14 1.06 2.228.29 4.47.404 6.713.49 1.441.057 2.88.225 4.327.122zM141.563 248.448c.098-3.991-1.803-7.06-4.557-9.702-2.242-2.15-4.882-3.822-7.194-5.892-.435-.39-.926-.584-1.402-.054-.47.524-.253 1.006.194 1.39.932.8 1.876 1.588 2.843 2.346 1.556 1.22 3.13 2.415 4.566 3.785 3.727 3.558 4.627 7.775 3.02 12.6-.119.355-.222.718-.372 1.06-.257.585-.395 1.152.317 1.498.546.265 1.03-.061 1.378-.943.652-1.647 1.11-3.346 1.204-5.126.017-.32.002-.641.002-.962zM122.746 263.784c-.373-5.242-2.398-9.925-4.85-14.465a31.826 31.826 0 0 0-1.208-2.076c-.274-.426-.666-.73-1.212-.429-.605.333-.602.837-.298 1.367 1.007 1.761 2.025 3.516 2.862 5.369 1.347 2.98 2.418 6.04 2.84 9.305.338 2.605.089 5.115-1.047 7.506-.092.193-.205.378-.275.577-.162.465-.029.851.386 1.107.442.272.84.139 1.117-.256.242-.347.445-.728.613-1.117.954-2.202 1.222-4.513 1.072-6.888zM193.218 300.646c.543.022.95-.063 1.021-.616.07-.55-.267-.72-.755-.811-8.428-1.587-16.147-5.082-23.747-8.886-.712-.356-1.35-.858-2.035-1.27-.289-.175-.63-.205-.887.053-.316.32-.247.705.018 1.01.499.572 1.175.922 1.826 1.283 3.649 2.024 7.475 3.662 11.349 5.192 3.624 1.431 7.268 2.805 11.08 3.668.727.165 1.47.261 2.13.377zM116.938 231.488c-2.172.145-4.286.716-6.384 1.333-3.483 1.024-6.874 2.32-10.297 3.52-.25.088-.498.201-.716.348-.354.242-.412.62-.31 1 .12.439.485.521.887.51.603-.016 1.138-.283 1.685-.482 3.558-1.296 7.118-2.59 10.775-3.586 1.697-.462 3.403-.94 5.196-.788.616.053 1.11-.14 1.17-.791.06-.661-.453-.912-1.02-1.006-.313-.052-.638-.04-.986-.058zM176.103 273.475c-1.495-.074-2.74.5-3.764 1.513-2.993 2.961-5.006 6.489-5.973 10.598-.049.208-.086.42-.103.632-.04.476.134.857.614.992.488.137.83-.12 1.018-.555.126-.292.211-.604.284-.915.724-3.142 2.322-5.838 4.312-8.317 1.19-1.483 2.595-2.555 4.69-2.026.594.15 1.097-.077 1.19-.735.08-.579-.357-.875-.847-.997-.46-.115-.947-.13-1.421-.19zM152.554 170.34c-.017.35.192.6.384.855 2.619 3.472 4.103 7.445 5.122 11.622.087.363.157.735.295 1.079.175.433.51.699 1.007.564.468-.126.696-.473.692-.953-.002-.156-.062-.312-.098-.467-1.024-4.45-2.539-8.696-5.214-12.453-.245-.344-.509-.69-.826-.962-.247-.212-.599-.205-.912-.06-.33.15-.454.427-.45.775zM167.198 150.19v6.565c0 .558.023 1.114.763 1.17.71.054.887-.423.965-1.009.275-2.071.204-4.157.245-6.236.055-2.774.056-5.547.446-8.301.075-.528 0-.985-.596-1.122-.645-.149-1.029.181-1.148.8-.11.574-.22 1.155-.245 1.737-.092 2.132-.15 4.266-.22 6.399l-.21-.002zM197.702 314.944c-.018-.903-.324-1.677-1.084-2.205-.835-.577-1.717-.285-2.035.685-.24.731-.187 1.48.13 2.188.384.856 1.161 1.35 1.87 1.22.715-.133 1.136-.844 1.12-1.888z"/></g></svg>