<svg xmlns="http://www.w3.org/2000/svg" width="354" height="262.562" xml:space="preserve"><path fill-rule="evenodd" clip-rule="evenodd" fill="#CD312C" d="M0 172.077c.397-3.508.634-7.042 1.22-10.517 2.326-13.818 5.681-27.37 11.024-40.365 1.377-3.348 3.213-6.462 5.347-9.393 1.414-1.942 3.232-3.267 5.644-3.626 12.78-1.9 24.349-7.625 36.49-11.54.828-.268 1.257-.883 1.695-1.547a141.457 141.457 0 0 1 2.654-3.913c.976-1.376 2.204-2.337 4.005-1.735.996.333 1.033-.328 1.008-.88-.225-4.983 2.779-7.303 7.026-8.625 1.365-.425 2.371-1.684 3.934-1.667.407.004.468-.425.548-.72 1.16-4.277 3.106-8.335 3.384-12.861.142-2.307-.642-4.374-1.265-6.48-1.95-6.605-3.936-13.2-6.033-19.759-.432-1.353.33-2.845-.71-4.086-.221-.264.168-.7.454-.995 3.336-3.442 5.831-7.588 9.197-11.007.178-.181.328-.415.421-.65 2.645-6.677 7.728-11.162 13.23-15.48 5.97-4.686 12.456-6.874 19.955-6.067 2.138.23 4.264.617 6.376 1.032.86.168 1.606.166 2.476-.064a22.838 22.838 0 0 1 10.919-.209c2.862.638 5.24 2.096 6.894 4.557.48.713 1.102 1.065 1.845 1.356 1.942.76 3.703 1.892 4.768 3.663.973 1.62 2.315 2.195 4.01 2.718 6.33 1.951 10.648 6.277 13.885 11.947 3.831 6.709 4.704 14.09 5.355 21.555.066.757.288 1.585-.648 2.08-.896.474-1.248-.452-1.9-.69-1.448 6.363-5.46 11.371-8.619 16.829-3.208 5.543-7.873 9.943-11.63 15.055-.965 1.314-1.595 2.592-1.563 4.3.063 3.36-1.479 5.125-4.651 6.322-2.17.819-3.563 2.802-5.282 4.282-3.392 2.922-4.903 7.07-6.888 10.909-.477.922.174 1 .698 1.18 2.047.709 4.088 1.443 6.163 2.059 1.844.547 3.03 1.668 3.134 3.583.083 1.523.885 1.892 2.177 2.377a382.319 382.319 0 0 1 16.157 6.478c5.342 2.288 10.56 4.866 15.901 7.156 3.744 1.604 5.825 4.206 6.264 8.3a968.295 968.295 0 0 0 2.614 21.88c1.192 9.16 2.491 18.308 3.751 27.46.017.12.12.226.344.627 1.216-1.643 2.816-2.697 3.159-4.947.442-2.913 1.558-5.696 2.686-8.425 2.907-7.028 4.92-14.362 7.465-21.513 1.49-4.186 3.192-8.297 5.166-12.282 1.684-3.398 4.562-5.509 7.992-6.897 5.17-2.095 10.372-4.114 15.55-6.19.582-.233 1.282-.318 1.808-1.1-4.14-.252-6.17-2.723-7.54-6.273-1.33-3.447-3.75-6.311-5.985-9.225-4.563-5.944-7.252-12.615-7.526-20.094-.15-4.13-2.247-7.323-3.978-10.8-3.958-7.942-4.86-16.28-2.438-24.88.632-2.245 1.657-4.262 3.918-5.368.898-.439 1.058-1.453 1.485-2.236 2.624-4.818 6.801-8.083 11.189-11.087 4.49-3.074 9.22-5.777 14.01-8.354 3.91-2.103 8.036-3.444 12.582-2.686.259.043.553.002.776.111 5.616 2.746 12.06 2.626 17.75 5.136 2.49 1.1 4.736 2.547 6.793 4.305 9.497 8.117 15.15 18.285 16.235 30.81.234 2.702 1.217 4.927 2.627 7.21 3.998 6.468 5.647 13.501 5.154 21.201-.432 6.739-2.969 12.836-4.732 19.177-.64 2.303-.556 2.581 1.775 2.79 4.452.396 8.797 1.333 13.12 2.405.638.158 1.264.358 1.898.528 11.501 3.08 18.413 10.524 21.21 22.034 2.252 9.265 3.593 18.692 5.266 28.06 2.115 11.85 5.679 23.331 8.695 34.953 3.606 13.896 6.387 27.914 6.091 42.37-.104 5-.69 9.952-1.563 14.877-.269 1.511-.872 2.22-2.637 1.646 1.733-7.085 2.044-14.323 1.949-21.612-.105-8.115-1.413-16.057-3.003-23.977-2.537-12.636-6.613-24.88-9.455-37.437-1.63-7.203-2.815-14.493-4.17-21.75-1.365-7.309-2.167-14.74-4.958-21.75-3.049-7.653-8.685-12.294-16.329-14.795-5.872-1.922-11.977-2.785-18.019-3.93-.683-.13-1.171-.07-1.384.867-.4 1.765-.857 3.359.1 5.2 2.705 5.2 1.528 10.324-.715 15.356a38.858 38.858 0 0 1-4.225 7.228c-4.1 5.558-6.776 11.755-8.873 18.275-.912 2.832-2.097 5.577-3.186 8.35-.298.757-.745 1.49-1.733.982-.91-.468-.504-1.15-.2-1.842 1.279-2.906 2.558-5.8 2.83-9.04.187-2.228-.685-3.717-2.541-4.857-2.155-1.325-4.47-2.473-5.845-4.782-1.98-3.322-1.39-6.75-.482-10.189a20.611 20.611 0 0 1 2.263-5.362c.816-1.357.634-2.276-.716-3.205-2.444 3.01-4.977 5.954-8.186 8.242-1.087.773-.824 2.151-.662 3.3.561 3.98.444 7.945.025 11.93-.49 4.665-.862 9.344-1.27 14.018-.633 7.25-.681 14.534-.652 21.793.032 8.09.48 16.196 1.479 24.241 1.113 8.963 2.344 17.91 3.528 26.864.52 3.929 1.053 7.857 1.57 11.786.077.583.182 1.294.724 1.449.598.17.673-.666 1.028-1.014 5.631-5.51 10.916-11.372 16.874-16.55 1.504-1.307 2.584-2.753 2.761-4.947.193-2.394 1.796-3.983 4.171-4.552 1.168-.278 1.73-.691 1.687-2.048-.33-10.357-.471-20.721-.885-31.074-.314-7.856-.976-15.715-.663-23.57.463-11.649 3.104-22.755 9.385-32.777.207-.329.507-.614.649-.965.38-.947 1.208-.906 1.78-.551.674.418.317 1.089-.076 1.686a54.376 54.376 0 0 0-5.995 12.21c-2.037 5.929-2.96 12.033-3.56 18.27-.666 6.914.116 13.76.215 20.628.117 7.988.465 15.98.765 23.968.163 4.326.257 8.65.316 12.976.011.794.282 1.315.894 1.826 3.799 3.18 6.697 7.093 9.033 11.432.903 1.68.172 2.708-1.797 2.49-.95-.107-1.897-.441-2.686-1.052-.695-.538-1.095-1.262-.507-2.03.62-.81 1.254-.326 1.796.244.154.162.35.284.629.324-1.953-3.708-4.498-6.963-7.658-9.667-1.918-1.64-5.382.207-5.552 3.035-.123 2.039-1.053 3.381-2.416 4.681-3.988 3.805-7.995 7.593-11.87 11.51-2.856 2.885-5.562 5.923-8.243 8.974-1.022 1.163-2.116 1.667-3.735 1.232.05-1.276 1.704-1.88 1.425-3.499-.739-4.288-1.177-8.629-1.764-12.944-.594-4.376-1.235-8.746-1.833-13.122-.651-4.762-1.3-9.527-1.903-14.295-.334-2.65-.67-5.307-.835-7.971-.493-7.977-1.073-15.956-.791-23.955.258-7.315.471-14.64 1.208-21.928.124-1.225.509-2.417.209-3.713-3.044.99-6.054.872-9.01-.2-.831-.3-1.053-.045-1.12.707-.393 4.413-.804 8.824-1.195 13.237-.518 5.841-1.04 11.684-1.522 17.53-.183 2.214-.144 4.432-.37 6.656-.315 3.118-.331 6.29-.349 9.416-.03 5.606.375 11.213.96 16.812.506 4.857 1.148 9.697 1.753 14.536.862 6.874 1.632 13.736 1.502 20.675-.008.394-.03.79 0 1.182.054.754-.252 1.026-1.024 1.032-.849.006-.945-.422-.946-1.101a141.183 141.183 0 0 0-.307-9.42c-.4-5.856-1.227-11.646-1.948-17.458-.513-4.132-1.087-8.263-1.334-12.435-.252-4.24-.794-8.474-.693-12.724.2-8.363.666-16.712 1.49-25.043.532-5.386.73-10.805 1.266-16.19.566-5.69 1.273-11.37 2.115-17.024.178-1.189-.033-2.02-.635-2.877-1.573-2.234-3.144-4.467-4.769-6.661-2.033-2.744-2.382-5.693-1.243-8.867.436-1.216.798-2.464 1.302-3.651.505-1.194.169-1.975-.75-2.842-1.02-.963-1.572-.1-2.373.228-6.236 2.543-12.494 5.031-18.744 7.538-.901.361-1.78.788-2.7 1.089-4.59 1.499-6.713 5.178-8.533 9.276-3.345 7.534-5.662 15.42-8.274 23.208-1.277 3.804-2.73 7.548-4.128 11.31-.097.26-.186.463.029.888 2.88-3.211 5.762-6.328 8.525-9.546 1.758-2.048 3.679-3.926 5.598-5.807 1.538-1.508 3.482-.929 5.233-.661 1.156.178 1.293.304.997-.995-1.306-5.742-2.72-11.464-3.687-17.282-.129-.776-.44-1.454.622-1.612.902-.134 1.252.473 1.393 1.28 1.061 6.064 2.524 12.04 3.862 18.044.281 1.262.905 1.59 1.87 1.822 5.16 1.24 10.321 2.48 15.49 3.684 2.486.58 3.259 1.982 2.07 4.227-1.44 2.72-3.617 4.924-5.503 7.324-3.744 4.763-7.604 9.435-11.381 14.17-1.272 1.596-.106 3.291.096 4.871.724 5.662 1.706 11.291 2.567 16.936.851 5.582 1.685 11.166 2.505 16.752.622 4.242 1.398 8.473 1.742 12.739.247 3.062-.747 6.02-2.016 8.834-.986 2.187-1.93 4.386-1.478 6.893.071.398.233 1.019-.5 1.032-.53.01-1.128.279-1.503-.511-.429-.904-.411-1.824-.193-2.684.427-1.688.83-3.434 1.608-4.971 2.475-4.891 2.08-9.996 1.35-15.123-.675-4.75-1.525-9.475-2.272-14.215-1.052-6.664-2.09-13.33-3.108-19.998-.324-2.118-.558-4.248-.857-6.37-.054-.381.23-1.12-.514-.98-.529.097-1.04.526-.846 1.3.345 1.377.67 2.759.958 4.148.597 2.886-.765 5.496-1.29 8.21-.322 1.67-.308 3.352-.618 5.02-.641 3.455-2.274 5.891-5.718 6.948-1.049.321-2.08.705-3.133 1.014-1.759.516-2.482 1.632-2.685 3.492-.49 4.512-1.366 8.982-1.827 13.496-.528 5.176-1.271 10.314-2.074 15.45-.26 1.667-.5 3.338-.808 4.996-.29 1.556-1.45.404-2.24 1.03l2.331-14.704c-2.16 1.7-4.167 2.511-6.505 2.77-5.163.572-9.456-1.164-12.667-5-3.225-3.854-5.052-8.614-7.191-13.128-1.161-2.451-1.304-5.134-.58-7.818.13-.48.092-1.065-.056-1.543-.146-.474-.436-1.091-.828-1.258-.665-.286-.77.565-1.027.927-1.252 1.771-2.63 3.423-4.207 4.91-1.14 1.077-1.417 2.278-1.14 3.886.505 2.945.698 5.946 1 8.925.08.777.062 1.541.285 2.325.212.744.494 1.88-.722 2.074-1.175.187-1.24-.963-1.437-1.739-.143-.558-.07-1.175-.065-1.766.007-.774-.054-1.52-.674-2.23-2.388 3.08-4.301 6.391-6.195 9.71-.869 1.522.068 3.073.214 4.582.244 2.511.84 4.988 1.302 7.476.1.54.582 1.184-.404 1.362-.881.16-1.547-.064-1.715-1.092-.388-2.37-.84-4.731-1.187-7.108-.806-5.524-1.657-11.044-2.309-16.587-.449-3.823-.612-7.68-.852-11.526-.034-.541-.407-1.421.706-1.477.956-.048 1.184.513 1.245 1.364.47 6.55 1.106 13.083 2.098 19.804 1.464-1.436 2.04-3.28 3.232-4.679.25-.292.395-.674.64-.973 2.18-2.673 3.9-5.39 2.78-9.167-.574-1.936.441-3.67 1.95-5.031.731-.659 1.47-1.332 2.075-2.103 1.869-2.376 4.248-4.451 1.967-8.102-1.553-2.487-.884-5.053 1.035-6.211 2.21-1.334 3.451-1.851 6.836 1.054-.742-1.763-1.37-3.113-1.88-4.507-.466-1.272-.84-2.582-1.194-3.891-.5-1.848-2.2-3.323-4.067-3.535-.782-.09-.85.333-.89.92-.228 3.352-1.75 5.958-4.663 7.638-.85.491-1.01 1.302-1.44 1.995-.446.715-.677 1.838-1.3 2.12-2.688 1.215-4.396 3.88-7.386 4.668-2.179.573-4.285 1.49-6.337 2.439-1.058.49-2.075.706-3.2.664-2.43-.092-3.817-1.943-3.086-4.283.504-1.612 1.148-3.183 2.754-4.092.47-.267.91-.606.314-1.218-.497-.509-.872-.893-1.59-.19-2.813 2.754-5.674 5.46-8.536 8.164-.47.445-.618.93-.632 1.56a191.26 191.26 0 0 0 .87 22.968c.631 6.452 1.93 12.82 3.584 19.1.14.528.712 1.165-.34 1.306-.7.095-1.467.178-1.704-.838-1.058-4.541-2.089-9.087-2.786-13.704-1.36-9-1.775-18.057-1.53-27.437-2.229 1.277-3.923 2.947-6.28 3.403-4.486.87-9.01 1.37-13.57 1.544-1.427.055-2.63.14-3.42 1.67-.616 1.195-1.994 1.558-3.268 1.939-2.82.843-5.488 1.863-6.659 5.006-.583 1.563-2.35 1.17-3.574 1.542-1.19.364-1.838.624-2.011 2.073-.268 2.234-.89 4.442-1.531 6.611-.663 2.24-2.14 3.214-4.468 3.245-4.66.06-4.63.066-5.356 4.762-.477 3.076-1.089 6.13-1.561 9.207-.162 1.055-.815 1.018-1.562 1.002-1.07-.024-.6-.603-.515-1.19.55-3.793 1.222-7.561 2.059-11.301.32-1.437-.3-1.866-1.68-1.671-6.897.969-13.83 1.624-20.753 2.391-6.91.767-13.787 1.827-20.69 2.67-3.168.386-6.359.62-9.547.803-1.085.062-1.605.331-1.896 1.458-.467 1.809-1.268 3.531-1.785 5.33-.446 1.554-1.355 1.82-2.801 1.32.727-2.128 1.409-4.242 2.18-6.323.413-1.114.187-1.508-1.052-1.539-3.02-.077-6.021-.355-9.005-.917-3.912-.738-6.55-2.86-7.827-6.636a95.291 95.291 0 0 1-4.65-21.902c-1.074-11.706-2.28-23.4-3.475-35.096-.238-2.336.03-4.712-.583-7.014v-10.645zM93.851 203.3c-1.475-.091-2.746-.17-4.058.13-2.835.648-5.698 1.177-8.552 1.74-9.095 1.798-18.192 3.584-27.285 5.384-2.793.551-5.57 1.191-8.375 1.67-.937.159-2.582.379-2.045-1.312.702-2.21-.275-2.343-1.928-2.19-.907.085-1.807.11-2.72.253a42.343 42.343 0 0 0-6.794 1.624c-.543.18-1.37.507-1.671-.383-.286-.85.237-1.347 1.022-1.597.307-.098.62-.182.925-.29 3.715-1.324 7.61-1.59 11.49-1.901.985-.08 1.784-.033 1.892-1.371.552-6.78 1.239-13.552 1.154-20.364-.073-5.88-.353-11.75-1.122-17.59-.247-1.873-.337-3.767-.458-5.655-.043-.673.294-1.163 1.029-1.15.63.01.862.442.937 1.039.75 6.02 1.366 12.06 1.541 18.117.275 9.486-.068 18.96-1.522 28.362-.234 1.515.269 1.925 1.838 1.604 11.61-2.37 23.23-4.688 34.864-6.933 1.514-.292 2.01-.826 1.983-2.383-.13-7.394-.584-14.763-1.157-22.136-.56-7.21-1.377-14.376-2.385-21.534-1.104-7.84-2.526-15.617-4.186-23.352-2.693-12.547-6.165-24.88-10.237-37.045-.299-.891-.482-1.819-.072-2.674.354-.735.34-1.29-.39-1.635-.728-.344-1.18.095-1.591.706-1.313 1.943-2.7 3.837-4.005 5.784-.306.457-.557 1.026-1.148.854-1.257-.364-2.234.354-3.297.703-9.828 3.226-19.29 7.552-29.452 9.783-2.185.48-4.53.255-6.516 1.636-3.034 2.109-4.564 5.335-6.13 8.439-3.846 7.621-5.99 15.848-8.178 24.057-3.149 11.819-5.316 23.755-4.91 36.053.083 2.55.22 5.1.324 7.645.214 5.222.747 10.418 1.358 15.586 1.01 8.534 1.73 17.093 2.676 25.631.681 6.145 2.285 12.091 4.322 17.922.897 2.566 2.74 4.105 5.312 4.657 5.055 1.087 10.212 1.189 15.328.816 5.18-.377 10.326-1.23 15.492-1.835 5.944-.695 11.892-1.34 17.838-2.02 7.886-.9 15.769-1.829 23.658-2.7.973-.107 1.303-.148 1.043-1.369-1.35-6.323-1.317-12.74-.496-19.107.935-7.256 2.666-14.371 4.654-21.67zm23.164-90.88c3.264.594 5.092 2.778 6.562 5.423 2.115 3.807 3.203 8.091 5.525 11.797.426.678.086 1.107-.449 1.474-.571.393-1.052.038-1.291-.377a51.795 51.795 0 0 1-1.97-3.8c-1.601-3.39-2.63-7.043-4.923-10.113-2.283-3.057-5.21-3.074-7.167.082-1.097 1.77-2.082 3.617-3.286 5.31-1.207 1.7-1.565 3.502-1.16 5.473.186.903.121 1.651-.89 1.755-1.01.104-.998-.84-1.091-1.507-.55-3.922-1.066-7.849-1.6-11.773-.183-1.354-.818-2.516-1.898-3.296-3.812-2.756-7.413-5.753-10.921-8.889a137.737 137.737 0 0 1-14.818-15.451c-1.547-1.888-1.572-4.108-.204-5.77.551-.67 1.382-1.111 2.086-1.656-2.207.669-4.268 1.56-6.267 2.57-.878.444-1.349 1.213-1.582 2.297-.408 1.896-.296 3.871-1.039 5.721-.8 1.996-.725 3.675.677 5.762 3.363 5.008 5.697 10.622 7.945 16.23 2.078 5.182 4.093 10.39 6.255 15.89.359-.486.593-.796.822-1.111 3.704-5.092 8.544-8.736 14.301-11.209.625-.268 1.374-.908 1.82.074.366.802-.005 1.451-.919 1.817-6.38 2.556-11.257 6.901-14.988 12.622-.315.481-.469 1.379-1.334 1.233-.798-.135-1.022-.818-1.291-1.536-2.089-5.576-4.197-11.146-6.387-16.683-1.026-2.59-2.247-5.104-3.38-7.652.234 2.242.884 4.318 1.457 6.415 3.245 11.877 5.947 23.88 7.92 36.03 1.23 7.57 2.184 15.18 2.886 22.83.752 8.203 1.332 16.407 1.498 24.641.024 1.182.018 2.364.008 3.547-.008.837.193 1.122 1.168.907 2.141-.469 4.327-.882 6.478.056.58.253.936-.196 1.403-.412 3.815-1.769 7.483-4.353 12.052-2.341.262.114.735-.161 1.074-.327 7.816-3.826 15.618-7.677 23.446-11.475 1.05-.509 1.322-1.188 1.327-2.297.014-3.087-.373-6.164-.348-9.232.05-6.042-.401-12.063-.563-18.093-.073-2.736-.096-5.501-.352-8.233-.73-7.791-.98-15.619-1.894-23.396-.624-5.302-1.096-10.622-1.61-15.936-.102-1.06-.716-1.248-1.618-1.222-1.703.049-3.348-.297-4.992-.73-3.141-.824-3.312-.738-5.072 2.05-.479.758-.88 1.565-1.406 2.51zm163.156 45.955c1.962-4.202 3.093-8.443 5.28-12.226.367-.631.39-1.351.435-2.079.236-3.73-1.973-6.449-3.987-9.116-5.44-7.202-6.39-15.082-3.874-23.504 1.009-3.374 2.594-6.537 4.93-9.248.37-.43.747-.997 1.446-.378.568.505.802 1.024.29 1.692-.198.26-.416.507-.6.777-6.285 9.22-7.3 20.282-.014 29.823 2.012 2.636 3.662 5.453 4.369 9.031 1.77-2.303 2.944-4.618 3.872-7.007 1.888-4.863 2.55-9.736-.923-14.286-.352-.46-.628-.936-.208-1.401.951-1.054.9-2.412 1.186-3.651 1.254-5.45 3.3-10.662 4.725-16.062 2.906-11.004 1.412-21.172-5.495-30.382-.353-.471-.638-.962-.654-1.6-.074-2.942-.719-5.813-1.099-8.716-1.543-11.804-13.905-28.857-29.808-30.816-1.709-.21-3.603.276-5.166-.778-4.003-2.7-8.13-2.285-12.303-.546-5.27 2.195-9.9 5.527-14.74 8.471-4.358 2.65-8.47 5.641-11.432 9.964-1.04 1.517-1.907 2.732.447 3.742.344.147.594.51.895.765.601.512 1.063 1.122.394 1.826-.595.627-1.33.496-1.898-.117-2.503-2.706-4.554-1.977-5.757 1.85-1.674 5.32-1.703 10.672-.61 16.029.65 3.193 1.687 6.325 3.753 9.332.229-3.136.381-5.937.65-8.727.275-2.855.71-5.694.992-8.548.737-7.451 6.605-10.213 12.768-5.974.267.184.468.472.848.35 4.761-1.532 6.86 1.585 8.548 5.078 2.631 5.445 5.188 10.93 7.583 16.482 2.527 5.856 7.071 9.473 13.107 12.438-1.126-1.368-1.924-2.275-2.654-3.234-3.851-5.07-6.702-10.717-9.427-16.434-1.85-3.88-3.257-7.986-5.876-11.468-.569-.756-1.239-1.575-.147-2.274.976-.626 1.548.294 2.031.983 1.96 2.785 3.36 5.87 4.775 8.95 3.454 7.531 7.036 14.99 12.442 21.389a14.712 14.712 0 0 0 4.355 3.508c-.554-1.246-1.255-2.338-1.865-3.478-3.67-6.872-4.307-14.399-4.677-21.975-.036-.734-.293-1.744.818-1.903.935-.135 1.27.644 1.592 1.423 1.097 2.651 2.264 5.285 3.922 7.64 2.44 3.466 5.444 6.143 9.901 6.667 1.372.16 2.128-.333 2.264-1.708.191-1.927 1.197-3.561 2.103-5.162.923-1.631 2.455-2.812 4.513-2.6 1.97.204 3.333 1.365 4.12 3.188.416.963.674 1.943.742 3.014.445 6.975-1.865 12.876-7.079 17.488-1.897 1.679-2.986 3.702-3.936 5.915-2.743 6.385-3.885 13.184-5.212 19.938-.854 4.344-.661 8.487 2.436 11.97 1.769 1.988 1.444 3.984.266 5.939-.993 1.648-1.608 3.42-2.14 5.215-1.481 4.99-.431 7.984 3.733 10.555 1.782 1.1 3.548 2.18 5.05 3.966zM134.913 46.079l-.248-.444c-3.122 1.54-6.312 2.97-9.734 3.554-1.74.296-2.813 1.24-3.82 2.415-1.015 1.184-1.896 2.483-2.841 3.726-1.954 2.567-3.39 5.51-5.657 7.845-.605.622-1.13 1.732-2.217 1.168-.817-.425-.484-1.472-.34-2.145.599-2.802.202-5.623.355-8.427.216-3.984-1.493-6.994-4.515-9.42-2.873-2.306-6.024-1.514-7.356 1.915-1.02 2.625-1.41 5.364-1.58 8.171-.227 3.736 1.283 6.571 4.153 8.791.768.594 1.62 1.079 2.401 1.657.454.336.612.728.278 1.344-.345.633-.768.723-1.264.411-3.162-1.99-6.174-4.06-7.163-8.068-.42-1.697-.079-3.444-.573-5.313-.55.485-.942.813-1.315 1.16-4.219 3.92-5.847 9.328-7.833 14.41-1.9 4.86-2.948 10.058-4.882 14.932-.97 2.447-1.158 4.194.979 6.477 6.41 6.85 12.973 13.496 20.468 19.154 2.67 2.016 5.12 4.064 5.355 7.712.082 1.26.065 2.54.934 4.003 2.064-4.557 4.984-8.227 7.9-11.9.403-.51.663-1.155 1.129-1.586 1.163-1.076.727-1.51-.47-2.221-7.003-4.16-12.998-9.34-16.514-16.927-.39-.841-.755-1.718.23-2.209 1.033-.514 1.241.612 1.648 1.214.216.32.339.702.529 1.043 5.213 9.33 12.799 15.7 23.364 17.903 3.807.793 5.205.887 7.092-3.298 2.016-4.473 4.718-8.383 8.434-11.594.364-.315.914-.578.823-1.347a17.385 17.385 0 0 1-4.156-1.398c-.752-.36-1.201-.85-.8-1.661.379-.765.975-.63 1.658-.273 1.262.66 2.612 1.072 4.016 1.392 3.953.9 5.64-.287 6.06-4.275.476-4.515 1.303-8.976 2.379-13.387.162-.666.29-1.6 1.282-1.328.85.233 1.065.837.736 1.83-.56 1.69-.84 3.471-1.237 5.214 1.892-1.747 3.44-3.708 5.029-5.635 1.557-1.889 1.581-1.907-.743-2.277-.795-.127-1.195-.553-1.21-1.254-.02-.902.719-.754 1.291-.73.718.03 1.522-.09 2.133.192 1.241.572 1.531-.178 1.733-1.047.736-3.167 1.465-6.34 1.222-9.63-1.868.354-2.07.05-2.375-2.757-.641-5.91-2.844-11.28-5.767-16.397-.53-.927-.922-.816-1.28.027-3.717 8.748-11.069 12.28-19.81 13.8-.685.12-1.534.269-1.862-.622-.286-.78.376-1.188.887-1.584 1.01-.784 2.042-1.539 3.064-2.306zm28.898 15.086c1.343-.938 1.707-2.031 2.241-2.955 1.978-3.418 4.519-6.629 4.74-10.79.09-1.692.314-3.406-.023-5.11-.14-.708.004-1.47.839-1.483 1.44-.02 1.187-.992 1.039-1.744-.73-3.7-1.441-7.431-3.14-10.833-3.475-6.96-8.34-12.298-16.54-13.484-.8-.117-1.008-.547-1.257-1.233-.604-1.664-2.008-2.718-3.318-3.802-.144-.12-.783-.835-.955.138-.125.715-.593 1.041-1.263.892-.703-.156-.984-.659-1.111-1.416-.275-1.643-1.068-3.038-2.43-4.078C139.146 2.6 135.257 2.168 131.025 3c.312.874 1.608 1.252.815 2.296-.426.56-1.23.635-1.583.227-1.465-1.693-3.72-1.472-5.495-2.027-5.675-1.774-11.572-1.957-17.233.419-5.52 2.316-9.988 6.147-14.067 10.412-1.377 1.44-2.894 2.91-3.568 5.06 1.183-.248 2.176-.509 3.185-.654.75-.108 1.508-.018 1.563 1.004.048.9-.427 1.286-1.318 1.32-1.974.073-3.569.984-5.095 2.193-3.337 2.645-5.308 6.445-8.191 9.466-.174.182-.402.435-.163.672 1.222 1.206.26 1.96-.541 2.754-.725.718-.529 1.502-.263 2.36 1.195 3.845 2.339 7.706 3.512 11.558 1.14 3.75 2.295 7.494 3.52 11.489 1.184-2.127 2.114-4.06 3.428-5.775 1.368-1.785 2.991-3.316 4.652-4.797.713-.637 1.135-1.173 1.325-2.19.598-3.203 1.68-6.262 5.085-7.563 3.757-1.436 10.854 3.21 11.366 7.358.42 3.397.963 6.786.607 10.465.414-.277.673-.371.81-.555 1.832-2.453 3.364-5.125 5.425-7.41.343-.38.142-.615-.111-.988-.999-1.476-.068-2.04 1.233-2.174 6.64-.684 12.586-3.158 18.032-6.924.633-.438 1.101-.884 1.862-.2.77.693.287 1.286 0 1.915-.755 1.656-1.929 3.045-3.022 4.482.154.105.223.185.26.172 7.637-2.569 13.322-7.006 14.745-15.485.136-.809.39-1.389 1.331-1.346.893.04 1.092.636 1.002 1.361-.122.995.337 1.735.841 2.53.87 1.372 1.625 2.817 2.425 4.233 1.37 2.424 2.136 5.112 3.323 8.06.088-.682.155-.932.145-1.18-.04-.945.23-1.785 1.24-1.935 1.29-.19 1.257 1.084 1.367 1.76.407 2.506.902 5.009.928 7.568.026 2.617.036 5.23-.591 8.234zm-26.843 124.049c1.468-.68 2.84-1.246 4.143-1.939 1.891-1.004 3.891-1.728 5.997-1.283 5.22 1.104 10.487 1.819 15.77 2.487 1.092.14 1.423.095 1.74-.968 1.464-4.899 3.087-9.751 4.529-14.657 1.516-5.155 2.922-10.343 4.293-15.54.198-.75.442-1.298 1.183-1.244.874.063.861.831.82 1.505-.02.324-.036.657-.119.969-2.433 9.201-5.044 18.35-7.994 27.4-.912 2.796-.938 2.785 1.727 3.713.305.107.6.244.894.383 4.975 2.348 9.93 4.74 15.276 6.18 1.943.524 4.74-1.7 4.382-3.688-.642-3.58-1.151-7.174-1.596-10.783-.842-6.835-1.812-13.654-2.68-20.485-.836-6.58-1.642-13.163-2.402-19.751-.392-3.4-1.988-5.622-5.284-6.96-4.808-1.951-9.423-4.374-14.179-6.463-5.856-2.572-11.774-5.003-17.802-7.17-.299.662-.19 1.204.054 1.775.373.872.088 1.701-.78 1.907-.881.209-1.144-.71-1.294-1.377-.357-1.582-.706-3.177-.894-4.785-.236-2.022-1.171-3.183-3.21-3.75-2.091-.58-4.302-1.004-6.118-2.275-.465-.325-.59-.629-1.2-.3-.606.327-.33.599-.269 1.068.601 4.647 1.206 9.296 1.66 13.959.6 6.164 1.18 12.335 1.56 18.515.513 8.358.97 16.724 1.175 25.094.143 5.837.687 11.665.462 17.51-.01.239.075.481.156.953zm106.865-104.23c-1.245-2.744-2.226-5.074-3.344-7.337-2.124-4.3-3.644-8.897-6.246-12.957-1.535-2.392-3.164-2.787-5.606-1.379-.752.434-1.192.487-1.572-.276-1.387-2.78-3.973-2.27-6.212-1.994-2.054.254-2.925 2.159-3.172 4-.648 4.833-1.316 9.681-1.562 14.544-.221 4.365-.272 8.753.29 13.138.737 5.77 1.763 11.398 4.986 16.4 3.434 5.329 7.838 10.05 10.056 16.146.33.905 1.249 1.275 2.152 1.534 6.889 1.975 13.252.44 19.32-2.933 3.952-2.198 7.46-5.03 10.853-7.979 4.338-3.769 8.191-7.898 8.793-14.055.055-.554.338-1.172 1.107-1.469 3.946-1.524 6.784-4.411 8.822-7.976 2.168-3.792 3.356-7.908 2.147-12.333-.368-1.348-1.035-2.59-2.756-2.575-1.75.015-2.606 1.299-2.986 2.65-.418 1.484-1.227 2.79-1.542 4.337-.388 1.902-1.985 2.696-3.867 2.463-4.03-.5-7.423-2.332-10.065-5.404-1.305-1.519-2.385-3.234-3.765-5.133.212 4.127.909 7.744 2.13 11.249 1.66 4.767 4.134 8.945 8.665 11.567.515.299.703.72.561 1.272-.202.793-.84.751-1.422.618-1.509-.348-3.021-.7-4.505-1.144-7.61-2.27-14.514-5.689-19.56-12.113-.253-.323-.256-.917-.908-.885-2.16.111-4.144-1.193-6.358-.787-.499.091-1.258.283-1.309-.681-.05-.956.492-1.255 1.345-1.272 1.748-.034 3.495-.087 5.53.764zM168.387 203.48c2.748-3.098 2.523-5.306-.526-7.272a18.853 18.853 0 0 0-2.023-1.162c-4.093-1.97-7.601-4.768-10.891-7.831-3.105-2.89-8.792-4.14-12.624-2.28-10.744 5.215-21.432 10.544-32.129 15.858-1.855.922-2.798 2.982-2.495 4.871.289 1.795.48 3.606.72 5.407.5 3.74 1.343 7.385 2.8 10.883.482 1.155 1.224 1.418 2.424 1.435 3.804.051 7.543-.622 11.31-.932 2.901-.237 5.714-1.035 7.94-3.249 3.722-3.702 7.55-7.298 11.327-10.944.712-.687 1.46-1.293 2.398-1.665.462-.185.854-.284 1.276.052 1.274 1.015 2.554 2.022 3.833 3.03.401.318.51.73.448 1.222-.086.667-.6.616-1.042.603-1.824-.056-2.888 1.054-3.675 2.472-.404.729-1.27 1.487-.425 2.449.79.9 1.688.674 2.67.276 2.747-1.116 5.378-2.553 8.316-3.16.637-.13.754-.504.919-1.064.583-1.983 1.189-3.968 1.953-5.886.6-1.507.362-2.314-1.205-3.041-3.365-1.56-6.635-3.326-9.912-5.07-.626-.333-1.916-.363-1.289-1.689.613-1.295 1.45-.436 2.12-.105 3.55 1.751 7.078 3.55 10.608 5.343 1.969 1 2.474 2.164 1.838 4.309-.414 1.4-.894 2.78-1.372 4.25.998.06 1.416-.417 1.806-1.053.919-1.497 1.732-3.04 2.315-4.701.935-2.665.902-2.743-1.552-4.42-4.023-2.748-8.037-5.51-12.065-8.251-.804-.546-1.655-1.168-.968-2.19.772-1.15 1.455-.037 2.062.373 3.985 2.696 7.918 5.47 11.928 8.129 1.78 1.18 3.459 2.325 3.182 5.003zm40.308 6.074c-1.898.335-3.648.38-2.556 2.832.234.524-.235.988-.852 1.071-.566.077-1.036.019-1.1-.736-.032-.376-.238-.736-.353-1.107-2.052-6.7-6.402-12.111-10.097-17.885-.505-.788-1.296-1.657-2.38-1.37-1.178.31-1.86 1.19-2.263 2.445-.619 1.925.2 3.565 1.056 4.967 3.02 4.947 4.725 10.325 5.9 15.932.115.545-.02.939-.344 1.157-.27.181-.79.177-1.114.045-.48-.195-.724-.697-1.025-1.134-3.035-4.42-5.334-9.199-7.068-14.263-.507-1.48-1.133-2.904-2.343-3.985-1.773-1.585-3.746-1.126-4.658 1.087-.842 2.036-.2 3.963.54 5.819 1.007 2.525 2.154 4.997 3.287 7.47 1.134 2.478 2.367 4.913 3.48 7.4.557 1.246-.075 2.412-.984 1.999-2.396-1.087-4.815-2.223-5.63-5.115-.348-1.239-.706-2.503-1.282-3.644-.87-1.724-2.435-2.405-3.612-1.793-1.442.751-1.877 2.205-1.066 4.071 1.834 4.223 3.731 8.418 5.6 12.626.406.914 1.067 1.405 2.102 1.413 2.262.022 4.305.803 6.276 1.846 3.112 1.647 3.585 1.545 6.382-.663 2.687-2.121 5.156-4.698 8.862-4.978 1.231-.093 2.223-.502 3.137-1.319 1.233-1.1 2.714-1.682 4.342-2.039 3.614-.79 5.683-2.862 6.016-6.79.227-2.68.317-5.465 1.486-7.996a5.56 5.56 0 0 0 .343-3.65c-1.16-4.776-2.442-9.522-3.75-14.26-.262-.946-.899-1.85-1.998-1.912-1.114-.063-1.954.573-2.503 1.57-.476.861-.798 1.72-.814 2.755-.028 1.861.497 3.6.94 5.357.601 2.377 1.666 4.733 1.02 7.222-.787 3.032-1.317 6.086-1.536 9.203-.044.611-.325 1.01-.946 1.03-.755.023-1.009-.463-1.013-1.15-.007-1.103-.042-2.206.518-3.528zm10.397-13.547c6.504-8.11 12.783-15.924 19.04-23.756.925-1.16.205-1.509-.915-1.78-6.737-1.636-13.456-3.349-20.197-4.972-1.324-.318-2.62-.358-3.802.804-2.003 1.97-3.839 4.077-5.69 6.18-5.14 5.836-10.303 11.65-15.733 17.786 1.38-.216 2.143 1.687 3.328.316 3.543-4.103 6.992-8.286 10.526-12.397 2.639-3.072 4.976-6.396 7.843-9.277.6-.604 1.318-1.223 2.008-.583.779.724.145 1.504-.456 2.166a174.987 174.987 0 0 0-4.026 4.569c-4.717 5.584-9.375 11.22-14.155 16.75-.815.942-.823 1.494-.196 2.453 2.737 4.19 5.662 8.272 7.715 12.87.352.787.805 1.008 1.657.863 1.567-.268 2.745-1.104 3.2-2.545.61-1.928.762-3.917.085-5.942-1.015-3.03-1.797-6.12-1.542-9.373.188-2.409 2.37-4.767 4.7-5.032 2.374-.27 4.01 1.085 4.75 3.914.573 2.189 1.164 4.373 1.86 6.986zm52.45-88.884c-9.71 10.096-15.341 14.281-26.301 18.199 2.853 3.019 5.361 6.25 7.046 10.025 1.21 2.716 2.007 5.507.566 8.425-.325.658-.656 1.449-1.568.939-.779-.436-.706-1.203-.243-1.871.681-.986.735-2.052.53-3.17-.7-3.836-3.036-6.816-5.189-9.892-.325-.465-.61-.304-.912.051-1.752 2.073-2.14 7.428-.577 9.759 1.592 2.376 3.298 4.677 4.997 6.98.884 1.198 1.44 2.461 1.234 3.978-.29 2.124-.474 4.272-.931 6.361-.196.894.048 1.115.723 1.454 2.793 1.403 5.613 1.335 8.482.296.476-.173.753-.44.821-.968.492-3.775.618-7.551.138-11.34-.3-2.37-.535-4.7 1.816-6.359 2.867-2.02 5.01-4.78 7.326-7.361.473-.528.431-.87.118-1.513-1.16-2.37-1.704-4.965-1.414-7.556.61-5.458 1.932-10.793 3.338-16.437zM177.91 230.11c-.12.501-.041.827.132 1.216a88.17 88.17 0 0 0 6.101 11.495c2.855 4.514 7.115 6.28 12.39 5.754 2.885-.288 5.449-2.372 6.095-5.207.447-1.954.69-3.953 1.043-5.929.57-3.183 1.166-6.362 1.715-9.547.067-.384.222-1.011-.553-.97-.578.031-.37.42-.426.812-.259 1.824-1.232 3.376-2.203 4.886-2.05 3.183-4.793 5.543-8.788 5.025-5.917-.768-11.49-2.533-15.506-7.535zm-70.204-30.116c-4.279.237-7.553 1.426-10.48 3.604-.294.218-.692.512-.547.959.154.474.569.698 1.079.65 1.389-.134 1.803.66 1.546 1.815-.705 3.181-.473 6.408-.283 9.582.242 4.027 1.472 7.863 3.468 11.415.305.542.494.982 1.323.613 1.766-.79 3.588-1.455 5.404-2.125 1.05-.387 1.394-.836.843-2.013a41.28 41.28 0 0 1-3.827-14.754c-.211-3.102-1.822-6.482 1.474-9.746zm49.486-14.017c5.644 5.52 12.121 9.483 19.584 11.793.733.226.796-.177 1.122-.62 1.844-2.503 3.124-2.932 6.19-2.05.57.165.933.16 1.083-.351.173-.588-.385-.504-.737-.603-4.874-1.378-9.49-3.38-14.03-5.622-4.138-2.045-8.73-2.079-13.212-2.547zm-60.19 26.766v-4.722c0-.595.075-1.208-.825-1.24-1.017-.039-.777.711-.758 1.224.205 5.448-.287 10.88-.477 16.315-.121 3.446 1.202 5.752 3.953 7.472.52.324.95 1.494 1.691.634.592-.685 1.248-1.49.493-2.724-3.174-5.191-4.35-10.922-4.078-16.959zm84.873 18.11c.308.736.773.936 1.223 1.215 2.51 1.563 5.262 2.453 8.111 3.135 5.464 1.309 10.381-2.16 10.923-7.8-2.136.786-3.736 2.313-5.465 3.66-4.127 3.22-5.77 4.015-9.886 1.2-1.332-.912-3.019-1.467-4.906-1.41zM93.051 217.18c-1.22.89-.8 2.092-.972 3.027-.882 4.799-1.492 9.635-1.416 14.537.018 1.123.275 1.385 1.354.881 1.34-.626 2.752-1.105 4.15-1.603.365-.13.875-.084.994-.498.161-.562-.43-.714-.764-.966-2.27-1.717-3.509-3.88-3.374-6.834.128-2.782.028-5.574.028-8.544zm-.857 27.772c1.22-1.902 1.338-3.741 1.847-5.449.23-.769.617-1.826.091-2.263-.538-.447-1.399.373-2.129.608-.895.287-1.014.923-.93 1.69.188 1.71.37 3.423 1.121 5.414z"/><path fill-rule="evenodd" clip-rule="evenodd" fill="#CD312C" d="M323.602 262.11c3.926-5.091 4.5-11.097 5.257-17.087 1.089-8.604 1.922-17.22 2.438-25.885.411-6.897.316-13.78.166-20.659-.06-2.702-.039-5.485-.623-8.19-.118-.547-.493-1.535.704-1.683 1.175-.144 1.127.618 1.243 1.467 1.23 9.073.847 18.196.652 27.29-.134 6.246-.826 12.493-1.52 18.711-.718 6.447-1.067 12.96-2.732 19.274-.513 1.943-1.326 3.774-2.256 5.566-.736 1.42-1.731 1.74-3.329 1.196zM59.154 105.813c1.063.116 1.298.723.852 1.758-.728 1.686-1.376 3.408-2.141 5.075-.81 1.766-.905 3.51-.282 5.352 6.643 19.612 11.367 39.712 15.184 60.04.036.193.114.383.124.577.042.925.628 2.176-.779 2.463-1.5.307-1.37-1.097-1.535-1.983-3.708-19.883-8.158-39.594-14.79-58.718-1.85-5.33.19-9.446 2.166-13.854.27-.605.567-.684 1.2-.71zM100.48 53.461c-.094-1.338.266-2.813.508-4.298.132-.812.412-1.654 1.465-1.41 1.048.243.876 1.14.754 1.937-.19 1.23-.48 2.454-.544 3.689-.128 2.514.303 4.858 2.593 6.417.668.455 1.119.986.517 1.777-.596.784-1.284.472-1.896.021-2.683-1.979-3.538-4.756-3.398-8.133zM134.777 98.32c-4.54-.827-7.467-2.957-9.13-6.754-.347-.796-.32-1.445.505-1.793.787-.332 1.23.251 1.508.878 1.355 3.051 3.65 4.863 6.962 5.374.73.113 1.247.477 1.098 1.31-.145.811-.715 1.023-.943.985zM150.187 61.431c.052.655-.24.988-.655 1.24-.398.24-.806.149-1.073-.164-2.113-2.47-5.19-3.157-7.99-4.353-.83-.355-2.047-.529-1.555-1.765.466-1.17 1.52-.604 2.386-.31 2.3.776 4.51 1.766 6.647 2.901 1.05.558 1.966 1.314 2.24 2.451zM143.564 67.827c-.117 1.06-.749 1.758-2 1.783-.789.016-1.263-.407-1.174-1.2.125-1.108.585-2.059 1.877-2.093.82-.021 1.33.46 1.297 1.51zM158.459 160.849c-.183 1.032-.752 1.601-1.66 1.172-3.674-1.734-7.311-3.548-10.945-5.37-.58-.29-.811-.857-.494-1.505.266-.542.781-.833 1.3-.583a791.427 791.427 0 0 1 11.286 5.545c.247.124.361.512.513.74zM230.23 91.357c-.344 3.12-.622 6.292-1.86 9.19-.869 2.035.098 2.698 1.648 3.331.875.358 1.77.45 2.692.41.705-.03 1.174.275 1.212.978.042.757-.378 1.274-1.16 1.294-2.536.065-4.793-.653-6.494-2.625-.625-.726-.748-1.625-.432-2.587 1.123-3.425 2.035-6.895 2.12-10.533.02-.806.412-1.495 1.276-1.433 1.267.093.966 1.153.998 1.975zM236.003 114.52c-3.333-.004-6.094-.353-8.188-2.636-.58-.632-1.277-1.397-.459-2.203.87-.857 1.493-.093 2.06.606.918 1.131 2.193 1.772 3.582 1.808 2.834.074 5.787.694 8.323-1.298.56-.44 1.119-.256 1.532.295.448.598.204 1.103-.263 1.554-.827.8-1.852 1.213-2.949 1.46-1.345.303-2.707.478-3.638.414zM280.377 81.922c-.022-.327-.04-.653-.068-.98-.064-.734.127-1.359.95-1.434.823-.074 1.122.572 1.26 1.242.396 1.923.067 3.773-.666 5.56a9.203 9.203 0 0 1-2.35 3.342c-.626.57-1.329 1.353-2.141.402-.663-.778-.068-1.422.553-1.991 1.793-1.65 2.634-3.695 2.462-6.141zM220.465 77.968c1.535.142 2.92.459 4.149 1.316.705.491 1.311 1.049.813 1.924-.565.994-1.294.513-1.978.024-1.045-.747-2.204-1.13-3.51-1-.732.072-1.559.15-1.696-.838-.155-1.104.73-1.218 1.524-1.344.258-.04.52-.062.698-.082zM239.253 91.256c.018-.821.091-1.66 1.205-1.571 1.332.106 1.903 1.036 1.931 2.244.02.868-.505 1.517-1.444 1.461-1.288-.077-1.75-.93-1.692-2.134zM219.845 88.666c.057-1.071.167-1.874 1.292-1.771 1.281.117 1.795 1.025 1.842 2.142.037.84-.386 1.536-1.4 1.513-1.39-.032-1.692-.974-1.734-1.884zM222.107 175.955c-1.855-.38-3.71-.778-5.458-1.546a1.705 1.705 0 0 1-.991-1.155c-.478-1.815 2.97-5.349 4.759-4.827 1.444.42 2.865.924 4.278 1.44 1.224.446 1.633 1.365.997 2.494-.846 1.501-1.45 3.313-3.585 3.594zm-3.8-3.375c1.246.316 2.242.557 3.23.823.914.247 1.073-.535 1.42-1.03.244-.352.002-.517-.313-.727-1.646-1.097-2.846-.923-4.338.934z"/></svg>