<svg xmlns="http://www.w3.org/2000/svg" width="254.168" height="106" xml:space="preserve"><path fill="#FFF" d="M12.761 36.906h15.2v1.568h4.063V12.779H21.049a67.708 67.708 0 0 0 1.504-3.68l-4.608-.512c-.16 1.28-.512 2.816-.864 4.192H8.89v25.727h3.871v-1.6zm0-20.479h15.2v3.296h-15.2v-3.296zm0 6.816h15.2v3.296h-15.2v-3.296zm0 6.815h15.2v3.328h-15.2v-3.328zm27.2-5.952a24.14 24.14 0 0 0 2.56-2.303v2.24h5.408c-.64 4.671-2.304 8.863-9.535 11.199.928.864 2.048 2.432 2.528 3.52 8.287-3.104 10.367-8.576 11.167-14.72h6.304c-.289 6.688-.64 9.536-1.28 10.208-.352.384-.704.448-1.28.448-.8 0-2.464-.032-4.224-.16.672 1.088 1.184 2.688 1.248 3.84 1.888.064 3.744.064 4.831-.096 1.249-.16 2.112-.48 2.912-1.504 1.12-1.344 1.504-5.12 1.856-14.783v-.224c.704.735 1.376 1.44 2.048 2.047.736-1.088 2.208-2.623 3.232-3.423-3.488-2.687-7.487-7.328-9.504-11.392l-3.743 1.504c1.76 3.36 4.16 6.88 6.687 9.824H43.897a38.369 38.369 0 0 0 6.336-10.08l-4.096-1.184c-1.92 4.864-5.44 9.28-9.439 11.968.928.672 2.56 2.208 3.264 3.071zm75.28-3.118c.286-.494.676-1.106 1.172-1.836.494-.729 1.216-1.712 2.168-2.948a49.151 49.151 0 0 1 2.988-3.537c-.131 2.058-.248 4.473-.352 7.247-.104 2.773.065 5.033.508 6.777.156.21.299.39.43.547.181.183.364.3.547.352.338.052.611.195.82.43.598.364 1.146.495 1.64.39.833-.103 2.24-.338 4.219-.703v.86c0 .416-.078.859-.235 1.328-1.301.338-2.551.644-3.75.917a198.72 198.72 0 0 0-5.39 1.348c-.339.104-.612.3-.82.586.078.468.273.898.586 1.29.312.39.645.63.996.722s.735.033 1.152-.176c.313-.208.977-.47 1.992-.782 1.016-.312 2.734-.806 5.156-1.484-1.275 1.199-2.74 2.383-4.394 3.555a807.256 807.256 0 0 0-5.136 3.671c-.288.183-.586.457-.899.821.104.416.306.748.606.996.298.247.63.358.996.332.364-.026.65-.117.86-.273a660.213 660.213 0 0 1 7.616-5.274 68.731 68.731 0 0 1-.196 3.106c-.078.872-.168 1.803-.273 2.792-.078.339-.052.697.078 1.075.131.378.456.645.977.801.339.13.632.07.879-.176.248-.247.436-.593.566-1.035-.025-.99.007-2.187.098-3.594.09-1.406.175-2.474.254-3.203a93.278 93.278 0 0 1 5.586 2.285c1.771.794 3.554 1.608 5.351 2.442.573-.418.795-.827.664-1.231-.13-.404-.325-.683-.586-.84-.26-.156-.637-.365-1.133-.625-2.578-1.328-4.628-2.317-6.152-2.969-1.523-.65-2.65-1.184-3.379-1.6-.052-.47.027-1.03.235-1.68 1.85-.314 3.34-.514 4.472-.606a33.19 33.19 0 0 1 3.418-.098c.495.156.847.02 1.055-.41.209-.43.234-.853.078-1.27-.469-.65-1.067-.936-1.797-.859a95.65 95.65 0 0 0-3.789.508c-1.172.182-2.278.351-3.32.508.052-.365.097-.736.136-1.113.04-.377-.058-.775-.293-1.192 3.699-.651 6.42-1.21 8.165-1.68.417-.182.638-.488.664-.917.026-.43-.13-.789-.47-1.075l-3.827.722c-.755.144-2.175.411-4.258.801l.195-2.226c1.875-.416 3.438-.743 4.688-.977.39-.65.37-1.133-.059-1.445-.43-.312-.879-.456-1.348-.43-.234.078-.56.157-.976.235l-.625.078c-.73.078-1.197.143-1.406.195-.026-.546.051-1.315.234-2.305a76.183 76.183 0 0 1 3.867-.976c.313-.208.476-.494.489-.86.013-.364-.157-.69-.508-.976-.352-.286-.71-.365-1.075-.234-.989.208-1.835.365-2.539.469.079-.73.157-1.29.235-1.68 1.667-.235 2.858-.417 3.574-.547.717-.13 1.44-.196 2.168-.196.547.078.925-.156 1.133-.702.156-.417.065-.834-.274-1.25-.625-.443-1.21-.599-1.757-.47-1.38.313-2.76.509-4.141.587.6-.963 1.172-1.823 1.719-2.578.156-.339.136-.65-.059-.938-.195-.286-.579-.547-1.152-.782-.573-.233-.977-.077-1.211.47a104.196 104.196 0 0 1-2.774 4.687c-2.083.469-4.128.873-6.132 1.212.13-.782.104-1.342-.079-1.68-.181-.339-.403-.587-.664-.743 1.302-1.25 2.143-2.037 2.52-2.363.378-.326.84-.658 1.387-.996.338-.548.234-1.185-.313-1.915-.338-.26-.69-.39-1.055-.39-.337 0-.676.117-1.015.352-.26.417-1.133 1.354-2.617 2.812-1.484 1.458-3.1 3.203-4.844 5.235-1.745 2.03-2.956 3.476-3.632 4.336-.157.338-.293.67-.41.996-.118.325-.02.775.292 1.347.494.235.99.444 1.485.625zm8.261-.234c.117-1.98.241-3.529.371-4.649a1798.82 1798.82 0 0 0 6.484-1.523c.079.495.053 1.08-.078 1.757-.598.21-1.21.398-1.836.567-.625.17-1.718.463-3.28.88-.365.026-.743.155-1.134.39-.078.39-.064.71.04.957.104.247.26.436.468.566.547.417 1.12.56 1.719.43 1.354-.6 2.617-1.029 3.789-1.29-.078.391-.143 1.068-.195 2.032-1.563.313-3.177.625-4.844.937-.703.131-1.055.379-1.055.743.027.339.098.605.215.8.117.195.332.423.645.684.312.26.794.287 1.445.078.651-.13 1.315-.26 1.992-.39.469-.104.938-.196 1.406-.274-.078.287-.09.547-.039.781.105.444.235.781.39 1.016a47.586 47.586 0 0 1-3.359.703c-.937.156-1.731.182-2.382.078l-.274-.078c-.442-1.484-.605-3.216-.488-5.195zm-107.963 55c.416.13.82.13 1.211 0a279.966 279.966 0 0 1 7.207-1.719c1.888-.416 3.294-.683 4.219-.8.924-.118 1.79.019 2.597.41.208.078.47.072.782-.02s.56-.201.742-.332c.26-.313.384-.606.371-.879a2.227 2.227 0 0 0-.254-.879c-.469-.728-1.042-1.094-1.719-1.094a1.83 1.83 0 0 0-.507.079c-2.163.337-4.447.736-6.856 1.19-2.41.456-4.98.997-7.715 1.622-.365.053-.768.17-1.21.352.025.443.116.866.273 1.27.156.403.442.67.86.8zM152.96 19.62a6.412 6.412 0 0 0 1.25 2.226c.599.625 1.276.664 2.031.118 0-.651-.247-1.158-.742-1.524-.234-.39-.442-1.015-.625-1.875a26.095 26.095 0 0 1-.43-2.968c.912.468 1.577.606 1.993.41.417-.196 1.328-.599 2.734-1.211 1.406-.612 3.75-1.153 7.031-1.622s5.736-.735 7.363-.8c1.628-.064 2.65.02 3.067.254-.39.833-.886 1.712-1.485 2.637s-1.184 1.725-1.757 2.401c.078.21.351.366.82.47.469.052.86.026 1.172-.078.339-.13.898-.638 1.68-1.524l.312-.391a24.214 24.214 0 0 0 1.875-2.695c.365-.598.437-1.23.215-1.894-.22-.664-.735-1.075-1.543-1.23a7.235 7.235 0 0 0-1.953-.274c-1.536 0-3.287.092-5.254.273-1.966.182-3.287.313-3.965.39a78.528 78.528 0 0 0-.156-3.593c-.052-1.016-.416-1.575-1.094-1.68a1.31 1.31 0 0 0-.312-.04c-.47 0-.743.236-.82.704.052 2.292.143 3.933.273 4.922-.494.157-1.576.385-3.243.683-1.666.3-3.072.64-4.218 1.017-1.146.377-2.058.722-2.735 1.035.105-1.224-.117-2.123-.664-2.696-.598-.26-1.028-.312-1.289-.156-.26.156-.403.456-.43.898.027 1.277.086 2.579.176 3.906.092 1.328.332 2.631.723 3.907zm-1.68 20.45c.39.012.664-.203.82-.645.418-.469 1.172-1.23 2.266-2.286 1.094-1.054 2.207-2.148 3.34-3.28s1.96-1.908 2.48-2.325c-.078 1.693-.058 3.152.06 4.375.116 1.224.318 2.448.605 3.672.39 1.146.795 1.849 1.21 2.11.418.26.77.318 1.055.175.287-.144.703-.385 1.25-.723 1.12-.026 2.696-.214 4.727-.566 2.031-.351 3.346-.606 3.945-.762.417-.417.534-.873.352-1.367-.182-.495-.416-.782-.703-.86.182-.573.417-1.217.703-1.933.287-.716.56-1.582.82-2.597.183-.65.033-1.23-.45-1.739a4.284 4.284 0 0 0-1.738-1.113 71.805 71.805 0 0 1-5.214.664c-1.732.156-2.91.273-3.536.352a24.177 24.177 0 0 1-1.328-1.524 33.556 33.556 0 0 0 1.778-1.563c.403-.39.814-.82 1.23-1.289.73.261 1.348.502 1.856.723.507.222 1.53.625 3.066 1.21a89.72 89.72 0 0 1 5.254 2.227 25.27 25.27 0 0 1 5.488 3.419c.443.286.899.3 1.367.039.417-.365.535-.768.352-1.211a2.622 2.622 0 0 0-1.133-1.446c-1.536-.859-3.43-1.81-5.683-2.851a468.65 468.65 0 0 0-5.567-2.539c-1.458-.65-2.46-1.146-3.008-1.484.808-.834 1.596-1.641 2.364-2.423.768-.78 1.62-1.627 2.558-2.539.313-.312.495-.638.547-.976v-.391c-.338-1.197-1.106-1.744-2.305-1.64-.442.052-1.152.202-2.128.449-.977.248-2.22.566-3.73.958a331.61 331.61 0 0 1-.274-1.485c-.495-.521-1.029-.586-1.602-.196a1926.277 1926.277 0 0 0-4.648 5.079 7.265 7.265 0 0 0-.801.957c-.247.35-.267.625-.059.82.21.195.398.377.567.547.17.17.37.24.605.214.234-.025.495-.103.781-.234 1.511-1.38 2.67-2.279 3.477-2.696.86-.416 1.94-.74 3.242-.976 1.303-.234 2.136-.325 2.5-.273-.781.833-1.432 1.537-1.953 2.109-.286.313-.599.625-.938.937-.26.261-.52.509-.78.743h-.509c-.494 0-.884-.091-1.171-.274a1.316 1.316 0 0 0-1.055.313c-.13.286-.182.52-.156.703.052.13.117.351.195.664.078.286.234.547.469.781a809.822 809.822 0 0 0-12.578 12.461c.182.416.404.781.664 1.094.312.26.664.397 1.054.41zm11.055-5.49c.756-.26 1.406-.539 1.953-.84.547-.298 1.374-.546 2.48-.741 1.107-.196 2.598-.24 4.473-.137-.052.86-.2 1.706-.449 2.539a37.631 37.631 0 0 1-.684 2.11c-.572.416-1.587.722-3.046.918a44.882 44.882 0 0 1-4.024.37 9.069 9.069 0 0 1-.625-2.109 7.31 7.31 0 0 1-.078-2.11zm38.331-4.491c0 5.472 3.393 7.776 8.64 7.776 7.296 0 11.839-4.288 13.886-7.36l-2.91-3.52c-2.304 3.488-5.665 6.528-10.944 6.528-2.496 0-4.416-1.056-4.416-4.288 0-3.967.256-11.135.385-14.59.063-1.28.223-2.913.415-4.257l-5.152-.064c.288 1.28.416 2.816.416 4.32 0 2.752-.32 11.168-.32 15.455zm-65.986 47.393c4.031.384 9.823.353 13.758 0v-4.128c-3.455.416-9.823.577-13.758.032v4.096zm-36.48-55.585c-.671-1.248-1.887-3.135-2.687-4.254l-2.336 1.087a28.092 28.092 0 0 1 2.624 4.32l2.4-1.153zm-8.638-1.792c1.023 1.44 1.695 2.688 2.495 4.449l2.432-1.088c-.608-1.248-1.76-3.2-2.56-4.352l-2.367.991zm-5.44-3.743c-2.176 1.633-4.768 5.28-4.768 9.887 0 6.944 6.335 10.528 13.055 10.976l1.504-4.384c-5.44-.288-10.367-2.176-10.367-7.455 0-3.808 2.912-7.936 6.784-8.96 1.695-.416 4.447-.416 6.175-.448l-.032-4.096c-2.272.096-5.76.288-9.055.576-5.856.48-11.136.96-13.823 1.185-.608.064-1.856.127-3.136.16l.416 4.383c3.711-.8 10.24-1.503 13.247-1.824zM192 0h-88v46h88V0zm-1 45h-86V1h86v44zM51.285 69.504c.117.86.202 1.784.254 2.773.025.26.098.56.215.899.117.339.41.521.879.547.494 0 .806-.157.937-.47.13-.312.182-.599.157-.858.078-.182.078-.71 0-1.582s-.196-2.064-.352-3.575c-.053-.703-.326-1.146-.82-1.328a4.131 4.131 0 0 0-1.68-.117c0 .495.013.912.04 1.25.129.781.253 1.602.37 2.46zM0 106h116V60H0v46zm1-45h114v44H1V61zm169.742 16.067-.128-3.712c-1.248.384-2.752.737-4.32 1.024.48-1.728.896-3.36 1.152-4.383l-4.415-.45c-.064 1.665-.416 3.585-.864 5.346-.992.095-1.952.128-2.912.128-1.184 0-2.88-.065-4.255-.225l.287 3.713a57.04 57.04 0 0 0 4 .127c.544 0 1.088 0 1.664-.031-1.408 3.455-4 8.159-6.527 11.294l3.87 1.984c2.593-3.615 5.312-9.216 6.849-13.694a55.6 55.6 0 0 0 5.6-1.12zM141.334 92.01c-3.264 0-4.48-.864-4.48-2.272 0-.863.128-1.632.384-2.687l-3.68-.352c-.351 1.631-.543 2.91-.543 4.158 0 3.297 2.656 5.248 8.159 5.248 3.616 0 6.176-.223 8.256-.607l-.065-4.32c-2.815.576-5.183.832-8.031.832zm-13.791-4.096c-.096-.64-.128-1.472-.128-2.08 0-3.2 1.12-9.599 1.536-11.742.128-.576.544-2.176.8-2.849l-4.48-.384c-.032 1.024-.223 2.24-.32 3.137-.351 2.463-1.344 7.871-1.344 12.67 0 4.352.609 8.256 1.248 10.464l3.712-.257a20.82 20.82 0 0 1-.064-1.31c0-.32.064-1.026.16-1.505.352-1.697 1.408-5.183 2.304-7.84l-1.984-1.568c-.448 1.057-.96 2.176-1.44 3.264zm47.392-3.871c-.033-1.408-.097-2.752 0-4.096h-4c.063 1.951.223 4.8.351 7.168-.735-.064-1.44-.129-2.208-.129-4.447 0-7.071 2.4-7.071 5.535 0 3.521 3.136 5.28 7.103 5.28 4.544 0 6.176-2.303 6.176-5.28v-.32c1.76 1.057 3.2 2.4 4.32 3.425l2.144-3.425c-1.632-1.47-3.872-3.071-6.624-4.095-.064-1.6-.16-3.135-.191-4.063zm-3.52 7.103c0 1.76-.673 2.975-2.88 2.975-1.76 0-2.752-.799-2.752-1.983 0-1.12 1.184-1.952 3.04-1.952.896 0 1.759.128 2.591.32v.64zm69.826-65.823c0-3.808 2.88-7.968 6.751-8.991 1.696-.385 4.448-.385 6.176-.416l-.032-4.097c-2.24.064-5.76.288-9.055.544-5.856.512-11.136.992-13.791 1.217-.64.064-1.889.128-3.168.16l.416 4.384c3.711-.8 10.24-1.505 13.247-1.825-2.144 1.632-4.736 5.28-4.736 9.888 0 6.91 6.336 10.527 13.023 10.975l1.504-4.384c-5.407-.288-10.335-2.208-10.335-7.455zm-30.37 66.559c-.8 0-1.217-.609-1.217-1.44 0-3.296 1.056-8 1.056-11.327 0-2.687-1.568-4.736-5.023-4.736-3.105 0-6.785 2.592-9.312 4.8.032-.255.032-.48.063-.703.544-.832 1.185-1.888 1.632-2.464l-1.183-1.536c.223-1.985.511-3.617.704-4.513l-4.672-.16c.16.992.128 1.953.128 2.88 0 .352-.064 1.249-.128 2.464-1.376.193-2.783.353-3.712.416-1.12.064-1.855.064-2.783.033l.416 4.094c1.792-.254 4.256-.575 5.823-.766a50.284 50.284 0 0 1-.16 2.27c-1.823 2.689-5.024 6.912-6.848 9.152l2.529 3.488c1.12-1.504 2.687-3.84 4.03-5.855a450.3 450.3 0 0 1-.127 7.039c0 .511-.031 1.632-.096 2.368h4.416a40.93 40.93 0 0 1-.224-2.464c-.192-3.008-.192-5.696-.192-8.32 0-.831.031-1.696.064-2.591 2.624-2.88 6.08-5.823 8.447-5.823 1.344 0 2.176.8 2.176 2.367 0 2.912-1.152 7.615-1.152 11.071 0 3.104 1.6 4.832 4 4.832 2.592 0 4.543-.992 6.015-2.368l-.512-4.512c-1.471 1.472-2.975 2.304-4.159 2.304zM172.757 77.1c2.177.992 5.824 3.07 7.68 4.543l2.272-3.36c-1.632-1.183-5.6-3.36-7.904-4.351l-2.048 3.168zm-97.332 7.072a2.308 2.308 0 0 0-1.426.176c-1.64.443-3.027.898-4.16 1.367s-2.012.82-2.637 1.055a5.27 5.27 0 0 0-.781-1.094c-.495-.444-1.042-.533-1.64-.274-.418.208-.6.574-.548 1.094.079.365.079 1.381 0 3.047-.078 1.667-.085 3.665-.02 5.996.065 2.33.255 4.107.567 5.332.026.285.13.541.313.762.181.22.43.357.742.41.312.052.599.078.86.078a.983.983 0 0 0 .35-.762c0-.3-.065-.58-.194-.84-.313-.806-.417-1.627-.313-2.46.39.051.749.078 1.074.078.325 0 .684-.04 1.075-.117 1.406-.522 3.137-1.237 5.195-2.149.052 1.51-.013 2.532-.195 3.066-.183.534-.808.944-1.875 1.231.494.754.976 1.34 1.445 1.758.442.598 1.041.82 1.797.664.312-.078.508-.268.586-.567.078-.3.13-.592.156-.878.442-5.053.794-9.948 1.055-14.688.051-.469-.046-.943-.293-1.426-.248-.481-.625-.767-1.133-.86zm-1.387 9.2c-1.406.78-2.754 1.412-4.043 1.894-1.289.482-2.454.722-3.496.722.025-.625.013-1.25-.04-1.875 1.277-.443 2.533-.884 3.77-1.328a82.195 82.195 0 0 1 3.926-1.289c.13.338.091.963-.117 1.875zm.234-3.712c-1.015.027-1.881.124-2.597.293-.717.17-2.324.736-4.824 1.7-.105-.677-.105-1.42 0-2.227.833-.365 2.024-.872 3.574-1.524 1.55-.65 2.845-1.093 3.887-1.328.078 1.042.064 2.07-.04 3.086zM52.027 85.13c-1.159.26-2.455.533-3.886.82-.6.053-.925.377-.977.977.052.651.319 1.094.8 1.328.482.234.958.3 1.427.195.833-.26 1.614-.508 2.343-.742.287-.103.56-.195.82-.273.964-.313 1.817-.6 2.56-.86s1.32-.767 1.738-1.523l-.118-.235c-.156-.312-.39-.482-.703-.507-.364-.026-.677.013-.937.117-.886.209-1.908.443-3.067.703zm4.883 4.101c-.3.026-.593.092-.879.196a742.366 742.366 0 0 0-7.383 2.226c-.13-.442-.403-.806-.82-1.093a1.185 1.185 0 0 0-.508-.313 1.299 1.299 0 0 0-.703-.039c-.39 0-.612.144-.664.43l-.039.43.04.312c.233 1.562.566 3.047.995 4.453s.996 2.682 1.7 3.828c.572.625 1.25.781 2.03.469.834-.443 1.68-.879 2.54-1.309s1.731-.84 2.617-1.23c.99-.313 1.51-1.069 1.562-2.266.313-1.068.69-2.239 1.133-3.515.208-.755.026-1.485-.547-2.188-.417-.287-.775-.416-1.074-.39zm-1.933 5.625c-.652.521-1.29.944-1.914 1.27a20.106 20.106 0 0 1-3.047 1.27c-.366-.34-.645-.762-.84-1.27s-.32-1.06-.371-1.66c1.926-1.328 4.088-2.149 6.484-2.461.13.469.025 1.42-.312 2.851zm-6.758-10.312c.625-.52 1.718-1.022 3.281-1.504s2.656-.787 3.281-.918c.182 0 .41-.11.684-.332.273-.22.384-.435.332-.644.025-.782-.339-1.186-1.094-1.211-.417 0-1.276.17-2.578.507-1.303.34-3.073.82-5.313 1.446a1.804 1.804 0 0 0-1.21.82c0 .339.097.67.293.996.195.326.41.592.644.8.547.26 1.107.274 1.68.04zm9.062-9.805a9.027 9.027 0 0 0-1.68.078c-2.421.47-4.7.971-6.835 1.504-2.136.534-4.141 1.1-6.016 1.7-1.016.39-1.237.937-.664 1.64.312.39.728.742 1.25 1.055 1.145-.522 2.637-1.06 4.473-1.621s3.671-1.048 5.507-1.465c1.836-.416 3.248-.533 4.239-.352.338.105.728.053 1.172-.156.181-.469.22-.872.117-1.21-.261-.756-.782-1.147-1.563-1.173zM38.86 92.59c-.468.495-1.093 1.068-1.875 1.719s-1.569 1.276-2.363 1.875c-.795.6-1.713 1.015-2.754 1.25a5.158 5.158 0 0 1-1.367.136c-.495-.013-.879-.183-1.152-.507a2.802 2.802 0 0 1-.567-1.036 18.517 18.517 0 0 1-.468-2.343c.025-2.891.39-5.365 1.093-7.422.208-.416.358-.86.45-1.328.09-.47-.02-.932-.333-1.387s-.573-.854-.78-1.192c1.25-.234 2.61-.39 4.081-.468a68.294 68.294 0 0 1 4.668-.078c0-.495-.046-.963-.137-1.407a1.415 1.415 0 0 0-.742-.996c-.404-.22-.8-.293-1.191-.215-1.225.027-2.8.17-4.727.43-.39.026-.795.078-1.21.156-1.668.26-3.608.639-5.82 1.133-2.762.599-5.177 1.256-7.247 1.973s-3.86 1.347-5.371 1.894c-.078 1.12.299 1.889 1.133 2.305.338.209.703.268 1.093.176s.716-.254.977-.488a13.476 13.476 0 0 1 2.676-1.211c.95-.313 1.634-.547 2.05-.704a3.15 3.15 0 0 1-.117 1.055l-.117.39a5.52 5.52 0 0 1-.703 1.485 214.97 214.97 0 0 0-3.34 6.445c-.873 1.771-1.582 3.19-2.129 4.258-.208.39-.195.787.04 1.192s.624.683 1.171.84a.833.833 0 0 0 .899-.06c.286-.194.481-.526.586-.995.806-1.719 1.718-3.574 2.734-5.567s2.122-4.134 3.32-6.425a7.388 7.388 0 0 0 .625-1.797c.13-.52.078-1.016-.156-1.485l-.156-.273c.338-.13.82-.287 1.445-.469.364-.078.755-.169 1.172-.273 1.25-.286 2.213-.455 2.89-.508-.312 1.823-.624 3.53-.937 5.117-.312 1.589-.378 3.53-.195 5.82.156 1.302.481 2.551.976 3.75.338.885.886 1.563 1.641 2.032.755.468 1.543.716 2.363.742a6.581 6.581 0 0 0 2.364-.352c.468-.156 1.223-.507 2.265-1.054 1.041-.547 1.868-1.186 2.48-1.914.612-.729.997-1.303 1.153-1.72s.247-.859.273-1.327c.026-.469-.195-.86-.664-1.172zm48.23-2.403c-.455-.091-.78-.312-.976-.664s-.417-1.106-.664-2.265c-.248-1.158-.436-2.506-.566-4.043a28.032 28.032 0 0 1 0-4.688c0-.26.006-.502.02-.722.012-.221-.183-.494-.587-.82-.403-.327-.78-.553-1.132-.684s-.62-.162-.801-.098c-.183.065-.34.293-.469.684a37.368 37.368 0 0 0 .059 3.261c.065 1.003.208 2.43.43 4.278.22 1.85.618 3.425 1.19 4.726.574 1.303 1.471 2.344 2.696 3.125.39.053.774.046 1.152-.02.377-.064.677-.259.899-.585.22-.325.215-.776-.02-1.348a6.28 6.28 0 0 1-1.23-.136zm20.294-14.921c-.183-.196-.703-.254-1.563-.176-.86.053-2.123.156-3.789.312-.13-.989-.248-1.848-.351-2.578-.105-.6-.235-1.009-.39-1.23a8.619 8.619 0 0 0-.665-.801 1.124 1.124 0 0 0-.82-.352h-.157c-.365.053-.599.17-.703.352-.104.183-.117.456-.039.82.104.834.196 1.57.274 2.207.078.639.09 1.323.039 2.051-.756.156-1.694.358-2.813.606-1.12.248-2.064.513-2.832.8-.768.287-1.322.547-1.66.782-.339.234-.443.533-.312.898.13.286.37.639.722 1.055s.697.573 1.035.468c.338-.104.573-.22.703-.351.6-.313 1.296-.6 2.09-.86.794-.26 1.765-.495 2.91-.703-.078.938-.26 2.163-.546 3.672-.287 1.511-.775 3.542-1.465 6.094a69.639 69.639 0 0 1-2.403 7.305c-.26.65-.39 1.328-.39 2.031.078.52.26.879.547 1.074.286.196.598.293.937.293.338 0 .586-.104.742-.312.157-.678.332-1.27.528-1.778s.54-1.49 1.035-2.949a61.11 61.11 0 0 0 1.406-4.863 331.76 331.76 0 0 0 1.367-5.742 93.18 93.18 0 0 0 1.094-5.41 145.9 145.9 0 0 1 2.715-.41c.664-.092 1.7-.202 3.105-.333a2.049 2.049 0 0 0 .02-1.425 1.788 1.788 0 0 0-.371-.547zm-31.195 3.379c-1.563.312-2.84.56-3.829.742-.99.181-1.692.287-2.109.312.052-.781.117-1.549.195-2.304a313.03 313.03 0 0 0 2.461-.704l.938-.312c.677-.416.716-.885.117-1.406l-.04-.04c-.52-.442-1.107-.572-1.757-.39-.547.078-1.081.144-1.602.195a6.713 6.713 0 0 1 .196-3.437c.99-.261 1.888-.489 2.695-.684.807-.195 1.406-.326 1.797-.39s.755-.307 1.094-.723a4.308 4.308 0 0 0-.41-1.055c-.196-.364-.483-.566-.86-.605a1.995 1.995 0 0 0-1.113.215 11.83 11.83 0 0 1-3.516.78c0-.52-.136-1.015-.41-1.484s-.683-.767-1.23-.898c-1.042-.234-1.46.17-1.25 1.211.103.678.195 1.38.273 2.11-1.25.338-2.507.644-3.77.917-1.263.274-2.467.515-3.613.723-.937.287-1.132.846-.586 1.68.677.78 1.55.976 2.618.586a193.305 193.305 0 0 1 5.507-1.72c0 .73-.006 1.355-.02 1.876-.013.521-.045 1.08-.097 1.68-.573.234-1.159.43-1.758.585-.6.157-1.354.391-2.265.704a2.614 2.614 0 0 0-.684.351c-.222.156-.306.377-.254.664.235.572.586 1.03 1.055 1.367.494.338.937.417 1.328.235a6.473 6.473 0 0 1 2.305-1.094v.234c.052.677.078 1.354.078 2.032-.86.312-2.019.69-3.477 1.132-1.458.443-2.76.977-3.906 1.602-.6.156-.847.522-.742 1.094.182.494.508.873.976 1.133.47.26.95.248 1.446-.04.547-.442 2.11-1.158 4.687-2.148 2.578-.99 4.791-1.621 6.64-1.894 1.85-.274 3.282-.462 4.298-.567.39-.103.703-.338.937-.703a1.417 1.417 0 0 0-.43-1.133c-.573-.469-1.21-.611-1.913-.43zM234.87 80.49c-1.023 0-1.983.096-3.039.353 2.016-1.6 5.375-4.415 7.103-5.632.736-.543 1.503-.992 2.24-1.472l-2.08-2.847c-.384.128-1.12.223-2.432.351-1.824.16-8.67.288-10.367.288-.896 0-2.016-.031-2.912-.16l.128 4.16c.736-.095 1.76-.191 2.624-.256 1.696-.095 6.111-.288 7.744-.32-1.568 1.377-4.897 4.065-6.688 5.535-1.888 1.569-5.76 4.832-8.032 6.656l2.912 3.008c3.424-3.904 6.624-6.496 11.52-6.496 3.775 0 6.655 1.952 6.655 4.832 0 1.951-.896 3.424-2.656 4.352-.447-3.04-2.848-5.47-6.816-5.47-3.391 0-5.727 2.398-5.727 4.99 0 3.2 3.36 5.247 7.807 5.247 7.744 0 11.583-4 11.583-9.054 0-4.672-4.127-8.065-9.567-8.065zm-2.815 13.472c-1.92 0-3.232-.8-3.232-1.984 0-.8.768-1.537 1.984-1.537 1.727 0 2.912 1.344 3.103 3.424-.575.065-1.183.097-1.855.097z"/></svg>