<svg xmlns="http://www.w3.org/2000/svg" width="809.878" height="74" xml:space="preserve"><path fill="#FFF" d="M213.644 61.585a38.83 38.83 0 0 0-1.808-.987c-4.115-2.098-7.389-3.662-9.82-4.69-2.433-1.028-4.23-1.872-5.394-2.53-.084-.741.04-1.625.374-2.653 2.95-.495 5.331-.813 7.14-.957s3.625-.196 5.455-.155c.79.247 1.35.032 1.683-.648.333-.678.375-1.346.125-2.005-.748-1.028-1.705-1.481-2.868-1.358-2.162.248-4.177.515-6.048.802-1.87.288-3.638.556-5.3.803.083-.576.156-1.162.218-1.759.062-.596-.093-1.223-.467-1.882 5.901-1.029 10.246-1.914 13.031-2.654.665-.287 1.018-.771 1.06-1.45.041-.679-.208-1.243-.748-1.696l-6.11 1.14c-1.207.227-3.472.649-6.797 1.266l.312-3.517a240.39 240.39 0 0 1 7.482-1.543c.624-1.028.592-1.79-.094-2.283-.685-.495-1.403-.72-2.15-.68-.375.124-.895.247-1.56.37l-.997.125c-1.164.123-1.912.226-2.245.308-.042-.864.083-2.077.374-3.641 1.912-.534 3.97-1.05 6.173-1.543.5-.329.758-.78.78-1.357.02-.576-.25-1.09-.81-1.543-.562-.452-1.134-.576-1.716-.37-1.58.33-2.93.576-4.052.74.124-1.151.249-2.036.374-2.653 2.66-.37 4.561-.658 5.705-.864a19.466 19.466 0 0 1 3.46-.309c.873.124 1.475-.246 1.809-1.11.249-.658.103-1.317-.437-1.975-.998-.7-1.933-.946-2.806-.741a40.529 40.529 0 0 1-6.61.926 70.07 70.07 0 0 1 2.744-4.073c.25-.534.219-1.028-.093-1.481-.312-.452-.926-.864-1.84-1.234s-1.558-.123-1.932.74a166.787 166.787 0 0 1-4.428 7.406c-3.326.74-6.588 1.378-9.789 1.913.208-1.235.166-2.119-.125-2.654-.29-.534-.644-.926-1.06-1.172 2.079-1.975 3.42-3.219 4.022-3.734.602-.514 1.341-1.038 2.214-1.573.54-.864.374-1.872-.499-3.024-.54-.411-1.102-.617-1.683-.617-.541 0-1.082.185-1.622.555-.416.659-1.808 2.14-4.177 4.443-2.37 2.305-4.948 5.06-7.732 8.27-2.785 3.208-4.718 5.491-5.799 6.849-.249.535-.467 1.06-.654 1.573-.187.515-.032 1.225.467 2.13.79.37 1.58.7 2.37.987a49.876 49.876 0 0 1 1.87-2.9c.79-1.152 1.943-2.705 3.46-4.66a77.914 77.914 0 0 1 4.77-5.584 443.08 443.08 0 0 0-.56 11.447c-.167 4.381.103 7.951.81 10.706.25.33.478.617.686.864.29.289.582.473.873.555.54.083.976.309 1.31.68.955.576 1.828.781 2.618.617 1.33-.164 3.575-.535 6.734-1.111v1.357c0 .658-.125 1.358-.374 2.098-2.08.535-4.074 1.02-5.986 1.45-1.912.433-4.78 1.142-8.604 2.13-.541.164-.978.472-1.31.926.125.74.436 1.419.936 2.036s1.028.997 1.59 1.141c.56.145 1.173.052 1.839-.277.499-.33 1.559-.741 3.18-1.234 1.621-.495 4.365-1.276 8.23-2.346-2.037 1.893-4.375 3.765-7.014 5.616a1230.94 1230.94 0 0 0-8.2 5.8c-.458.288-.935.72-1.434 1.297.166.657.488 1.181.967 1.573.477.39 1.007.565 1.59.524.582-.04 1.038-.185 1.372-.431 3.781-2.634 7.835-5.41 12.158-8.331a109.097 109.097 0 0 1-.312 4.906c-.124 1.378-.27 2.849-.436 4.412-.125.534-.084 1.1.125 1.696.207.596.726 1.019 1.558 1.266.54.205 1.008.113 1.403-.277.395-.393.696-.938.905-1.636-.042-1.564.01-3.456.155-5.677.146-2.221.281-3.91.406-5.06 3.117 1.15 6.089 2.354 8.916 3.609a738.001 738.001 0 0 1 8.543 3.857c.913-.658 1.267-1.306 1.06-1.944-.209-.638-.52-1.079-.936-1.326zm-18.893-35.113c-.957.33-1.933.628-2.93.895-.998.268-2.744.731-5.238 1.389-.583.04-1.185.246-1.808.617-.125.617-.104 1.121.062 1.512.166.391.415.689.748.894.873.659 1.787.886 2.744.679 2.16-.946 4.177-1.625 6.048-2.036-.125.617-.229 1.687-.312 3.208a675.36 675.36 0 0 1-7.731 1.482c-1.123.206-1.684.596-1.684 1.172.041.535.156.957.343 1.265.187.308.53.67 1.029 1.08.499.412 1.268.453 2.307.123a566.15 566.15 0 0 1 3.18-.617 44.319 44.319 0 0 1 2.245-.432c-.125.453-.147.864-.063 1.234.166.7.374 1.235.624 1.605a77.63 77.63 0 0 1-5.362 1.11c-1.497.248-2.765.29-3.804.124l-.437-.124c-.707-2.344-.966-5.08-.779-8.206.187-3.127.384-5.574.592-7.344 3.742-.864 7.191-1.666 10.351-2.407.124.783.083 1.708-.125 2.777zM401.314 74h201V0h-201v74zm1-73h199v72h-199V1zm296.1 38.37c-.049-2.137-.147-4.176 0-6.215h-6.133c.098 2.962.344 7.283.54 10.876-1.129-.097-2.208-.194-3.385-.194-6.82 0-10.843 3.642-10.843 8.4 0 5.341 4.807 8.013 10.891 8.013 6.967 0 9.47-3.496 9.47-8.013v-.485c2.698 1.602 4.906 3.642 6.623 5.195l3.288-5.195c-2.503-2.234-5.937-4.662-10.156-6.215-.099-2.428-.246-4.76-.295-6.168zm-5.396 10.78c0 2.67-1.03 4.516-4.416 4.516-2.699 0-4.22-1.215-4.22-3.012 0-1.699 1.815-2.96 4.661-2.96 1.374 0 2.698.193 3.975.485v.971zM155.314 74h139V0h-139v74zm1-73h137v72h-137V1zm119.72 49.91c-2.453-1.36-5.477-2.86-9.073-4.506a783.923 783.923 0 0 0-8.885-4.01c-2.328-1.029-3.928-1.81-4.8-2.345a664.999 664.999 0 0 1 3.771-3.826 254.198 254.198 0 0 1 4.084-4.012c.5-.493.79-1.007.873-1.543v-.617c-.54-1.891-1.767-2.755-3.678-2.591-.708.082-1.84.319-3.399.71-1.558.391-3.544.894-5.954 1.511-.125-.657-.27-1.44-.437-2.345-.79-.822-1.642-.925-2.556-.308a2774.389 2774.389 0 0 0-7.42 8.022c-.458.453-.884.956-1.278 1.512-.396.555-.427.987-.094 1.295.333.309.633.598.904.865.27.268.593.38.967.339.374-.04.79-.165 1.247-.37 2.41-2.18 4.26-3.6 5.55-4.258 1.371-.658 3.095-1.173 5.174-1.543 2.078-.37 3.408-.514 3.991-.432a318.607 318.607 0 0 0-3.118 3.333 25.61 25.61 0 0 1-1.496 1.48c-.416.413-.832.803-1.247 1.173h-.81c-.79 0-1.414-.143-1.871-.432-.624-.082-1.185.083-1.684.494-.208.453-.291.823-.25 1.111.084.205.188.555.312 1.049.125.453.374.863.749 1.234a1279.734 1279.734 0 0 0-20.078 19.685c.29.657.644 1.233 1.06 1.728.499.41 1.06.626 1.684.648.624.02 1.06-.32 1.31-1.019.664-.74 1.87-1.944 3.616-3.61a406.35 406.35 0 0 0 5.33-5.184c1.809-1.789 3.128-3.012 3.96-3.671-.125 2.675-.093 4.978.094 6.912s.508 3.866.966 5.8c.624 1.81 1.267 2.92 1.933 3.332.665.41 1.226.504 1.684.278.457-.227 1.122-.608 1.995-1.14 1.787-.043 4.302-.34 7.545-.895 3.242-.557 5.34-.957 6.297-1.204.665-.66.852-1.38.561-2.16-.291-.783-.665-1.234-1.122-1.358a44.5 44.5 0 0 1 1.122-3.055c.457-1.13.894-2.499 1.31-4.103.29-1.029.051-1.945-.717-2.746a6.887 6.887 0 0 0-2.775-1.76c-2.785.454-5.56.804-8.324 1.05-2.765.247-4.645.432-5.643.555a37.667 37.667 0 0 1-2.12-2.406c1.247-1.028 2.192-1.851 2.837-2.469a38.117 38.117 0 0 0 1.964-2.036c1.163.412 2.151.793 2.962 1.142.81.35 2.442.987 4.895 1.913 2.452.926 5.247 2.098 8.386 3.518a40.418 40.418 0 0 1 8.76 5.399c.707.453 1.435.474 2.183.061.664-.576.851-1.212.56-1.913-.332-.987-.934-1.748-1.807-2.283zm-30.117 4.381c1.206-.411 2.245-.853 3.118-1.327.873-.473 2.192-.864 3.96-1.173 1.766-.309 4.146-.38 7.139-.216a17.705 17.705 0 0 1-.717 4.01 59.45 59.45 0 0 1-1.091 3.333c-.915.658-2.536 1.143-4.864 1.451-2.328.309-4.469.503-6.422.586-.458-1.03-.79-2.14-.998-3.332-.208-1.194-.249-2.304-.125-3.332zm-14.964-23.635c.457 1.358 1.122 2.53 1.995 3.517.956.988 2.036 1.05 3.242.185 0-1.027-.395-1.83-1.184-2.406-.374-.618-.707-1.605-.998-2.962-.291-1.358-.52-2.92-.686-4.69 1.455.74 2.515.956 3.18.648.665-.309 2.12-.946 4.365-1.913 2.245-.966 5.986-1.82 11.223-2.561 5.238-.74 9.156-1.162 11.754-1.265 2.597-.103 4.23.03 4.894.401-.623 1.317-1.413 2.705-2.369 4.165-.956 1.461-1.892 2.726-2.806 3.795.125.33.562.577 1.31.741.748.083 1.372.042 1.87-.123.54-.206 1.434-1.008 2.681-2.407l.5-.617a38.661 38.661 0 0 0 2.992-4.258c.582-.946.696-1.944.343-2.993-.354-1.049-1.175-1.697-2.463-1.944a11.646 11.646 0 0 0-3.117-.432c-2.453 0-5.249.145-8.387.432-3.14.289-5.248.494-6.329.617a124.383 124.383 0 0 0-.25-5.677c-.083-1.604-.665-2.489-1.745-2.654a2.109 2.109 0 0 0-.499-.061c-.748 0-1.184.37-1.31 1.11.084 3.621.229 6.213.437 7.776-.79.247-2.515.608-5.175 1.08-2.66.473-4.905 1.008-6.734 1.604-1.83.597-3.284 1.142-4.365 1.635.166-1.933-.187-3.352-1.06-4.257-.956-.411-1.642-.494-2.057-.247-.416.247-.645.72-.686 1.419.04 2.016.134 4.073.28 6.17.146 2.1.53 4.157 1.154 6.172zm424.388-2.24v-6.264c-5.299.63-15.063.874-21.098.048v6.216c6.183.582 15.063.534 21.098 0zm100.62 21.85c-1.227 0-1.864-.922-1.864-2.184 0-5.002 1.619-12.14 1.619-17.19 0-4.079-2.403-7.186-7.703-7.186-4.76 0-10.402 3.933-14.278 7.283.05-.388.05-.728.099-1.068.834-1.262 1.815-2.865 2.502-3.74l-1.815-2.33c.343-3.01.785-5.487 1.079-6.847l-7.163-.242c.245 1.505.196 2.962.196 4.37 0 .534-.098 1.894-.196 3.74-2.11.29-4.269.533-5.692.63a42.647 42.647 0 0 1-4.268.049l.638 6.215c2.747-.388 6.526-.874 8.929-1.165a74.99 74.99 0 0 1-.245 3.447c-2.797 4.079-7.703 10.49-10.5 13.888l3.877 5.293c1.717-2.283 4.12-5.828 6.181-8.886a690.016 690.016 0 0 1-.196 10.682c0 .777-.049 2.477-.147 3.593h6.771a61.593 61.593 0 0 1-.344-3.74c-.295-4.564-.295-8.642-.295-12.624 0-1.262.05-2.572.1-3.933 4.023-4.37 9.321-8.837 12.952-8.837 2.06 0 3.336 1.214 3.336 3.593 0 4.42-1.766 11.557-1.766 16.8 0 4.71 2.453 7.333 6.132 7.333 3.975 0 6.968-1.505 9.225-3.593l-.785-6.847c-2.257 2.234-4.563 3.497-6.38 3.497zM78.105 16.549l-5.74 2.282c2.698 5.099 6.378 10.44 10.254 14.907H56.125c3.875-4.37 7.31-9.711 9.714-15.295l-6.28-1.797c-2.944 7.38-8.34 14.082-14.474 18.16 1.423 1.02 3.925 3.351 5.005 4.662a36.795 36.795 0 0 0 3.925-3.496v3.398h8.292c-.982 7.09-3.533 13.451-14.621 16.996 1.422 1.31 3.14 3.69 3.876 5.341 12.707-4.71 15.896-13.013 17.123-22.337h9.665c-.441 10.149-.98 14.47-1.962 15.49-.54.583-1.08.68-1.963.68-1.226 0-3.778-.049-6.476-.242 1.03 1.65 1.815 4.078 1.913 5.826 2.895.098 5.74.098 7.409-.145 1.914-.244 3.238-.728 4.465-2.283 1.717-2.039 2.306-7.768 2.845-22.433v-.34c1.08 1.117 2.11 2.185 3.14 3.107 1.129-1.65 3.386-3.98 4.956-5.195-5.348-4.079-11.481-11.12-14.572-17.286zm-57.155.146-7.065-.777c-.245 1.942-.785 4.273-1.324 6.36H0v39.041h5.937V58.89h23.305v2.38h6.231V22.278H18.644c.785-1.748 1.57-3.642 2.306-5.584zm8.292 36.855H5.937v-5.051h23.305v5.05zm0-10.392H5.937v-5h23.305v5zm0-15.344v5.001H5.937v-5.001h23.305zm290.728 25.93c-3.827 0-6.77-1.602-6.77-6.507 0-6.021.392-16.898.588-22.142.098-1.942.344-4.419.638-6.458l-7.9-.097c.442 1.942.639 4.273.639 6.555 0 4.176-.491 16.947-.491 23.453 0 8.304 5.2 11.8 13.247 11.8 11.186 0 18.154-6.507 21.294-11.168l-4.465-5.342c-3.533 5.293-8.685 9.905-16.78 9.905zM119.363 41.408c0-5.778 4.465-12.042 10.402-13.596 2.6-.631 6.82-.631 9.469-.68l-.05-6.215c-3.483.146-8.83.437-13.884.874-8.979.729-17.074 1.457-21.196 1.796-.932.098-2.845.195-4.808.244l.638 6.652c5.691-1.214 15.7-2.282 20.312-2.768-3.336 2.476-7.31 8.012-7.31 15.005 0 10.536 9.714 15.974 20.018 16.654l2.306-6.652c-8.341-.437-15.897-3.302-15.897-11.314zm14.768-10.1c1.57 2.137 2.699 3.934 4.023 6.556l3.68-1.748c-1.03-1.894-2.895-4.76-4.121-6.458l-3.582 1.65zm-5.544 2.088c1.57 2.186 2.6 4.08 3.827 6.75l3.729-1.65c-.933-1.895-2.699-4.857-3.925-6.605l-3.631 1.505zm566.491-4.564c3.336 1.505 8.93 4.662 11.776 6.895l3.483-5.099c-2.503-1.796-8.587-5.098-12.12-6.603l-3.139 4.807zm-71.775 16.412c-.148-.972-.198-2.233-.198-3.156 0-4.856 1.718-14.567 2.356-17.82.196-.874.834-3.303 1.226-4.322l-6.869-.583c-.048 1.554-.342 3.4-.49 4.759-.54 3.739-2.06 11.945-2.06 19.229 0 6.603.931 12.527 1.913 15.878l5.691-.388a31.76 31.76 0 0 1-.098-1.991c0-.486.098-1.554.246-2.283.539-2.574 2.158-7.867 3.532-11.896l-3.042-2.38c-.687 1.603-1.472 3.302-2.207 4.953zm21.145 6.216c-5.004 0-6.868-1.31-6.868-3.447 0-1.313.195-2.477.588-4.08l-5.642-.534c-.54 2.477-.834 4.418-.834 6.313 0 5 4.073 7.963 12.511 7.963 5.544 0 9.47-.34 12.658-.922l-.097-6.556c-4.318.874-7.949 1.263-12.316 1.263zm-113.45-12.906c-.824-.145-1.595-.051-2.312.283-2.66.71-4.909 1.441-6.746 2.193s-3.262 1.317-4.275 1.694a8.525 8.525 0 0 0-1.267-1.756c-.802-.71-1.689-.856-2.66-.439-.676.335-.972.92-.886 1.755.126.586.126 2.216 0 4.889-.127 2.676-.138 5.883-.033 9.623.105 3.74.412 6.592.92 8.557.04.458.21.867.505 1.222.295.355.697.574 1.204.658.507.083.97.125 1.394.125.38-.335.57-.742.57-1.222s-.106-.93-.317-1.348c-.507-1.295-.676-2.612-.507-3.95.634.085 1.214.127 1.742.127a9.07 9.07 0 0 0 1.742-.189c2.28-.836 5.088-1.985 8.424-3.447.084 2.423-.022 4.064-.317 4.92-.296.856-1.309 1.516-3.04 1.976.801 1.212 1.584 2.151 2.343 2.82.718.96 1.689 1.316 2.914 1.065.506-.125.824-.428.95-.908.127-.481.21-.951.254-1.411a724.567 724.567 0 0 0 1.71-23.57c.084-.751-.075-1.514-.476-2.287-.401-.773-1.013-1.232-1.836-1.38zm-2.249 14.763c-2.28 1.254-4.466 2.268-6.556 3.04-2.09.775-3.98 1.16-5.669 1.16a23.813 23.813 0 0 0-.063-3.01c2.068-.71 4.106-1.42 6.112-2.13 2.005-.71 4.127-1.4 6.366-2.07.211.545.148 1.547-.19 3.01zm.38-5.955c-1.647.041-3.05.199-4.212.47-1.162.272-3.769 1.18-7.822 2.727-.17-1.086-.17-2.277 0-3.574 1.35-.584 3.283-1.4 5.796-2.444 2.511-1.044 4.612-1.755 6.301-2.132a27.65 27.65 0 0 1-.063 4.953zm22.403.846c-.739-.146-1.266-.502-1.583-1.065-.317-.564-.677-1.777-1.077-3.636-.402-1.86-.708-4.022-.919-6.488a44.781 44.781 0 0 1 0-7.522c0-.418.01-.805.032-1.16.02-.355-.296-.794-.95-1.317-.655-.521-1.266-.887-1.837-1.097-.57-.208-1.004-.26-1.299-.156-.295.105-.548.47-.76 1.097-.041 1.88-.01 3.626.095 5.234.106 1.609.338 3.897.698 6.864.358 2.968 1.002 5.496 1.931 7.586s2.385 3.76 4.37 5.014a6.174 6.174 0 0 0 1.87-.032 2.14 2.14 0 0 0 1.456-.94c.358-.523.348-1.243-.032-2.162-.591 0-1.256-.074-1.995-.22zm32.905-23.946c-.296-.313-1.14-.407-2.534-.282-1.393.084-3.442.25-6.143.501a431.084 431.084 0 0 0-.57-4.137c-.17-.96-.38-1.619-.634-1.974a13.748 13.748 0 0 0-1.077-1.285c-.38-.376-.823-.564-1.33-.564h-.253c-.592.084-.972.272-1.14.564-.17.292-.19.731-.064 1.316.168 1.338.317 2.518.444 3.542s.147 2.121.063 3.29c-1.225.252-2.746.576-4.56.973-1.817.397-3.348.825-4.592 1.284-1.246.46-2.145.878-2.693 1.254-.548.377-.718.857-.506 1.442.21.46.601 1.024 1.172 1.692.57.67 1.128.92 1.678.753.548-.167.929-.355 1.14-.565.97-.501 2.1-.96 3.389-1.379 1.288-.417 2.86-.793 4.718-1.128-.126 1.504-.422 3.47-.886 5.893-.465 2.424-1.257 5.684-2.375 9.778a110.79 110.79 0 0 1-3.896 11.722 8.61 8.61 0 0 0-.633 3.26c.126.836.421 1.41.887 1.725.464.312.97.47 1.52.47s.95-.168 1.204-.502c.253-1.088.538-2.037.854-2.852.317-.816.876-2.392 1.679-4.734.802-2.34 1.561-4.941 2.28-7.803a523.268 523.268 0 0 0 2.217-9.215c.76-3.28 1.35-6.175 1.773-8.682 1.858-.292 3.326-.512 4.403-.658 1.076-.146 2.755-.323 5.035-.533.168-.46.242-.887.222-1.285a3.313 3.313 0 0 0-.19-1.003c-.106-.272-.308-.564-.602-.878zm-52.205 5.423c-2.533.501-4.602.898-6.207 1.19-1.605.293-2.745.46-3.42.502.084-1.254.19-2.486.317-3.699 1.35-.376 2.682-.752 3.99-1.128l1.52-.501c1.098-.668 1.162-1.42.19-2.257l-.063-.063c-.845-.71-1.795-.918-2.85-.626-.887.125-1.753.23-2.597.313-.38-1.838-.275-3.677.317-5.517 1.604-.417 3.061-.783 4.37-1.096s2.28-.522 2.914-.627c.633-.104 1.224-.491 1.773-1.16a6.878 6.878 0 0 0-.665-1.692c-.317-.585-.782-.91-1.393-.972a3.259 3.259 0 0 0-1.806.345 19.336 19.336 0 0 1-5.7 1.253c0-.835-.222-1.63-.665-2.382s-1.109-1.232-1.995-1.442c-1.69-.376-2.366.273-2.028 1.944a73.01 73.01 0 0 1 .444 3.385 122.744 122.744 0 0 1-6.112 1.473c-2.048.439-4.002.825-5.859 1.16-1.52.46-1.837 1.358-.95 2.695 1.097 1.254 2.512 1.568 4.244.94a312.44 312.44 0 0 1 8.93-2.758c0 1.17-.01 2.174-.03 3.01a44.081 44.081 0 0 1-.16 2.694c-.928.376-1.879.69-2.85.94-.971.252-2.196.628-3.673 1.13-.38.125-.75.313-1.109.563-.359.251-.497.607-.412 1.066.38.92.95 1.652 1.71 2.194.802.543 1.52.669 2.155.376a10.553 10.553 0 0 1 3.736-1.755v.376c.085 1.087.127 2.174.127 3.26-1.394.501-3.273 1.107-5.637 1.818-2.365.711-4.476 1.567-6.334 2.57-.972.25-1.373.836-1.204 1.755.295.795.824 1.4 1.584 1.818s1.541.398 2.344-.062c.886-.711 3.42-1.86 7.6-3.448 4.18-1.588 7.769-2.602 10.768-3.041 2.997-.438 5.32-.741 6.967-.909.633-.166 1.14-.543 1.52-1.128a2.266 2.266 0 0 0-.697-1.818c-.929-.752-1.963-.981-3.104-.69zm-30.655-6.269c-.93-.041-1.837 0-2.723.125a213.605 213.605 0 0 0-11.085 2.414 160.025 160.025 0 0 0-9.754 2.727c-1.648.627-2.006 1.504-1.078 2.632.507.627 1.182 1.191 2.028 1.693 1.857-.836 4.275-1.702 7.252-2.601a128.276 128.276 0 0 1 8.93-2.351c2.978-.668 5.268-.856 6.873-.565.548.168 1.182.085 1.9-.25.295-.752.358-1.4.19-1.944-.423-1.211-1.266-1.838-2.533-1.88zM486.882 39.15c1.014-.835 2.787-1.638 5.32-2.412 2.534-.773 4.308-1.264 5.321-1.473.295 0 .665-.178 1.109-.533.443-.355.622-.7.538-1.035.04-1.253-.55-1.9-1.774-1.943-.675 0-2.069.272-4.18.815a538.376 538.376 0 0 0-8.614 2.32c-.845.167-1.5.606-1.963 1.316 0 .543.158 1.076.474 1.598.317.523.665.95 1.045 1.285.887.418 1.795.44 2.724.062zm-54.61-14.104c.674.21 1.33.21 1.962 0 4.729-1.169 8.624-2.088 11.687-2.757 3.06-.668 5.34-1.098 6.84-1.286 1.499-.188 2.903.032 4.213.659.337.125.76.115 1.266-.032.507-.146.907-.323 1.203-.532.422-.502.623-.972.602-1.41-.022-.44-.158-.91-.411-1.411-.761-1.17-1.69-1.755-2.787-1.755-.253 0-.529.042-.824.125-3.505.543-7.21 1.181-11.116 1.912a343.53 343.53 0 0 0-12.51 2.601c-.591.085-1.245.273-1.962.565.04.71.189 1.39.443 2.037.253.648.717 1.076 1.393 1.284zm68.703 21.628c-.486.04-.961.146-1.425.312a1214.957 1214.957 0 0 0-11.97 3.574c-.213-.71-.656-1.294-1.331-1.755a1.921 1.921 0 0 0-.824-.502 2.12 2.12 0 0 0-1.14-.063c-.634 0-.992.23-1.077.69l-.063.69.063.501c.38 2.507.919 4.89 1.615 7.147.698 2.255 1.615 4.302 2.756 6.142.928 1.004 2.026 1.254 3.293.752 1.352-.71 2.724-1.41 4.117-2.1s2.808-1.347 4.244-1.974c1.605-.502 2.449-1.715 2.534-3.636a119.719 119.719 0 0 1 1.837-5.641c.337-1.211.042-2.382-.887-3.51-.676-.46-1.257-.668-1.742-.627zM497.84 55.7c-1.057.837-2.09 1.515-3.104 2.037s-1.985.961-2.914 1.317c-.928.354-1.605.594-2.026.72-.592-.544-1.046-1.221-1.362-2.037s-.518-1.702-.602-2.665c3.125-2.13 6.629-3.447 10.515-3.948.21.752.04 2.278-.507 4.576zm-27.756-3.636c-.76.794-1.773 1.714-3.04 2.758a99.793 99.793 0 0 1-3.832 3.01c-1.288.96-2.776 1.629-4.465 2.006a8.38 8.38 0 0 1-2.217.219c-.802-.022-1.426-.293-1.869-.815-.443-.523-.75-1.076-.918-1.662a29.322 29.322 0 0 1-.76-3.76c.041-4.64.633-8.61 1.774-11.91.337-.67.579-1.38.728-2.133.148-.752-.032-1.493-.539-2.224a46.702 46.702 0 0 1-1.266-1.912c2.027-.376 4.232-.627 6.619-.753a111.62 111.62 0 0 1 7.568-.125c0-.793-.074-1.546-.221-2.257-.149-.71-.55-1.243-1.204-1.598-.655-.355-1.297-.47-1.931-.345-1.986.042-4.54.272-7.664.69-.634.041-1.288.125-1.964.25-2.702.419-5.849 1.025-9.438 1.818-4.475.962-8.392 2.017-11.749 3.166a671.581 671.581 0 0 0-8.709 3.04c-.127 1.797.485 3.03 1.837 3.699a2.29 2.29 0 0 0 1.774.282c.632-.147 1.16-.408 1.583-.783a21.944 21.944 0 0 1 4.339-1.944 97.75 97.75 0 0 0 3.325-1.129c.042.502-.022 1.067-.19 1.693l-.19.627a8.795 8.795 0 0 1-1.14 2.382c-2.196 4.054-4.002 7.501-5.416 10.343a512.014 512.014 0 0 1-3.452 6.832c-.338.627-.316 1.264.064 1.912.38.648 1.013 1.098 1.9 1.348.507.251.991.22 1.457-.094.464-.313.78-.845.95-1.597a301.13 301.13 0 0 1 4.434-8.934c1.646-3.197 3.44-6.633 5.384-10.311.463-.92.801-1.881 1.013-2.884.21-.836.126-1.63-.254-2.382l-.253-.439c.548-.209 1.33-.46 2.343-.752a56.81 56.81 0 0 0 1.9-.439c2.028-.46 3.59-.73 4.688-.815a337.903 337.903 0 0 1-1.52 8.212c-.507 2.55-.613 5.664-.317 9.34a22.62 22.62 0 0 0 1.583 6.018c.549 1.42 1.436 2.507 2.661 3.259 1.224.753 2.501 1.15 3.831 1.191a10.758 10.758 0 0 0 3.832-.563c.761-.251 1.985-.816 3.674-1.693 1.689-.878 3.03-1.902 4.023-3.072.99-1.17 1.615-2.089 1.868-2.758a7.072 7.072 0 0 0 .443-2.13c.042-.754-.316-1.38-1.077-1.882zm221.903-23.28-.196-5.632c-1.914.582-4.22 1.117-6.624 1.554a267.478 267.478 0 0 0 1.767-6.653l-6.772-.68c-.098 2.525-.638 5.439-1.324 8.11a46.512 46.512 0 0 1-4.465.194c-1.815 0-4.416-.097-6.525-.34l.441 5.632c2.11.146 4.121.195 6.133.195.834 0 1.668 0 2.552-.05-2.16 5.245-6.133 12.383-10.01 17.142l5.937 3.01c3.974-5.487 8.145-13.984 10.5-20.782 3.287-.486 6.33-1.117 8.586-1.7zM491.854 15.017c.19 1.379.327 2.863.412 4.45.042.419.158.9.348 1.443.19.543.665.836 1.425.877.802 0 1.309-.25 1.52-.752.212-.502.295-.96.254-1.38.126-.29.126-1.137 0-2.538-.126-1.4-.317-3.312-.57-5.736-.085-1.128-.528-1.838-1.33-2.131a6.774 6.774 0 0 0-2.724-.188c0 .794.021 1.463.063 2.006.21 1.254.412 2.57.602 3.95zm1.204 25.075c-1.88.418-3.98.856-6.302 1.316-.973.084-1.5.606-1.584 1.567.084 1.045.516 1.755 1.299 2.13.78.377 1.551.482 2.311.315 1.35-.418 2.618-.816 3.8-1.191.465-.167.908-.313 1.331-.44a181.85 181.85 0 0 0 4.149-1.379c1.203-.417 2.142-1.231 2.818-2.444l-.19-.376c-.253-.502-.633-.774-1.14-.815-.592-.04-1.099.022-1.52.188-1.436.335-3.094.71-4.972 1.129zm-111.37-12.425c2.6-.582 6.82-.582 9.47-.63l-.05-6.216c-3.435.097-8.832.437-13.885.825-8.978.777-17.074 1.506-21.146 1.845-.982.097-2.895.195-4.858.243l.638 6.653c5.691-1.214 15.7-2.283 20.312-2.768-3.287 2.476-7.26 8.012-7.26 15.004 0 10.488 9.714 15.976 19.968 16.655l2.306-6.652c-8.292-.437-15.848-3.35-15.848-11.314 0-5.778 4.416-12.09 10.353-13.645zm413.52 6.313c-1.57 0-3.042.146-4.661.534 3.09-2.428 8.243-6.701 10.892-8.546 1.128-.825 2.306-1.506 3.434-2.234l-3.188-4.32c-.59.193-1.718.338-3.73.533-2.796.243-13.296.437-15.896.437-1.373 0-3.091-.049-4.465-.243l.196 6.313a80.74 80.74 0 0 1 4.023-.39c2.601-.145 9.372-.436 11.874-.484-2.404 2.087-7.506 6.166-10.254 8.4-2.895 2.38-8.831 7.333-12.315 10.1l4.465 4.565c5.249-5.924 10.155-9.858 17.662-9.858 5.79 0 10.206 2.962 10.206 7.332 0 2.963-1.374 5.195-4.072 6.604-.688-4.613-4.367-8.303-10.451-8.303-5.2 0-8.782 3.642-8.782 7.574 0 4.857 5.15 7.964 11.971 7.964 11.873 0 17.76-6.07 17.76-13.741 0-7.09-6.328-12.237-14.669-12.237zm-4.317 20.442c-2.945 0-4.955-1.213-4.955-3.01 0-1.214 1.176-2.33 3.04-2.33 2.65 0 4.465 2.04 4.76 5.195-.883.096-1.815.145-2.845.145z"/></svg>