<svg xmlns="http://www.w3.org/2000/svg" xml:space="preserve" width="241" height="213.932"><path fill="none" d="m63.607 20.889-2.062.295s1.963 6.478 1.963 6.183.099-6.478.099-6.478M93.252 18.827c.197.393 1.277 6.086 1.277 6.086l2.159-4.417zM144.465 46.945l-3.129 1.333s1.18 5.847 1.283 5.642 1.077-2.103 1.128-2.718c.051-.616.718-4.257.718-4.257M175.416 46.214s-2.453.48-3.091.266-.533.906-.533.906l1.332 6.606s2.025-.851 2.025-1.224 1.065-5.862.267-6.554M82.43 71.534c.797-3.985 2.39-8.502 2.922-10.096.531-1.594 3.454-5.048 3.454-5.048v-4.784l.798-3.188 2.922 2.834 10.274 2.834 4.252 2.48 1.594.355s6.731 4.25 7.44 4.782c.708.531 5.846 5.315 6.909 6.024s5.49 4.25 5.49 4.25l5.492 3.898 4.429 3.896s-20.017 27.458-20.903 28.875-8.857 12.4-8.857 12.4v14.347999999999999l-1.594 3.188c-.354.709-5.137 6.555-5.137 6.555l.177 5.314s4.075 14.702 4.251 15.766c.177 1.062.532 4.25.532 6.022s-.532 4.074-.532 4.782c0 .71 1.772 12.223 1.772 12.223v3.898l.531 20.016H73.572l-3.72-9.565-1.594 9.388-39.325.355s1.417-10.098 1.594-10.806c.178-.709 2.48-13.64 2.48-13.64s1.949-17.182 2.126-18.6c.177-1.417 1.594-7.44 1.594-7.44l5.846-15.588-.709-.532.354-5.667s-1.24-2.834-1.593-3.367c-.355-.531-1.24-3.365-1.418-4.074s-.354-9.742-.354-10.806c0-1.062.886-13.816.886-13.816l-10.63 7.086s-2.656.885-3.719.531-7.617-1.949-7.617-1.949-.709-1.594-1.24-2.303c-.532-.709-4.783-9.92-4.783-9.92l-.885-9.034-1.594-6.2 7.262-4.782.886-.355-2.303 9.212.531 4.96L22.024 109l2.48-6.555 1.24-12.4s6.732-3.897 6.909-4.782.354-19.308.354-19.308c1.417-.887 1.949-3.366 1.949-4.074 5.137-2.48 20.548-9.389 22.32-9.743l4.96-8.149 2.125-1.417 3.012 2.834-.709 4.074S78 71.27 80.835 74.28c1.417-.176 1.594-2.746 1.594-2.746"/><path fill="none" d="M202.53 97.132c1.949 1.417 6.554 1.948 6.554 1.948l7.086-6.377s1.418 2.657 1.772 3.365c.354.71 1.594 4.43 1.771 6.2.177 1.772.177 5.846.177 5.846s-.708 1.772.532 3.542c1.24 1.773 2.48 4.252 2.834 6.201s.71 8.326.886 10.452-.354 6.73-3.72 8.502c-3.366 1.771-12.046 3.011-14.348 3.011s-8.503-2.302-9.389-3.72-3.188-4.428-3.188-4.428l-1.24 9.565-1.24 11.868c.177 2.303.708 7.972.708 7.972l-.531 4.96-2.48 1.417.53 4.96s1.95 6.91 1.95 8.148c0 1.24.531 9.212.886 10.63s2.834 20.724 2.834 20.724l-74.222 1.063 1.24-18.6s2.656-18.777 2.656-19.308.178-8.68.178-8.68-1.062.177-1.95-.354c-.884-.531-2.479-2.834-2.655-5.137-.178-2.302 2.656-22.497 2.656-22.497s.887-9.034.532-10.096c-.354-1.064-1.063-4.784-1.063-4.784l-1.949-5.314-6.377 1.95-5.314.885-1.771-5.846 4.251-13.64 2.48-9.388 11.16-8.858s5.137-3.365 7.617-3.011l6.023-.532 3.897-1.24 1.417-.353 3.189-3.721.885.531s3.897 8.149 5.846 9.743c0 0 1.772.532 2.48 1.064.709.531-.354 1.417.709.531s8.68-6.909 8.68-6.909l4.251-3.896 1.77-1.772-.353-.709.354-1.771s2.657 1.063 2.835 1.771c.176.709 2.656 6.377 2.656 6.377l8.148 4.429s2.126 1.771 3.012 1.949c.886.177 4.074.353 4.074.353s-1.593.355-1.24 3.012c.355 2.657 1.95 2.303 1.95 2.303l3.01-2.834.71 1.948s.354 3.012 1.24 3.189 3.365.176 3.365.176l1.948.178s-2.656 2.48-.708 3.012"/><circle cx="72.481" cy="26.481" r="1.235" fill="#918B86"/><circle cx="62.921" cy="84.238" r="1.202" fill="#918B86"/><circle cx="77.683" cy="154.74" r="1.202" fill="#918B86"/><ellipse cx="12.252" cy="90.751" fill="#918B86" rx=".759" ry="1.411" transform="rotate(-173.314 12.252 90.751)"/><ellipse cx="27.888" cy="94.173" fill="#918B86" rx=".64" ry="1.191" transform="rotate(-156.104 27.888 94.173)"/><circle cx="84.901" cy="26.568" r="1.235" fill="#918B86"/><circle cx="152.089" cy="53.892" r="1.226" fill="#918B86"/><circle cx="157.714" cy="180.388" r="1.412" fill="#918B86"/><ellipse cx="136.443" cy="108.61" fill="#918B86" rx="1.544" ry="1.272" transform="rotate(116.751 136.443 108.61)"/><circle cx="165.091" cy="53.715" r="1.225" fill="#918B86"/><ellipse cx="211.295" cy="103.193" fill="#918B86" rx="1.412" ry="1.208" transform="rotate(161.947 211.295 103.193)"/><path fill="#918B86" d="M60.512 23.866a1.64 1.64 0 0 1-.583-.757c-.116-.289-.138-.691-.117-2.048l.004-.306c0-.446.16-1.125.21-1.321.031-.127.062-.304.063-.358-.026-5.245 1.49-9.757 4.382-13.047C67.784 2.261 72.68.237 79.023.014c5.419-.19 10.368 1.629 13.937 5.122 3.439 3.366 5.328 7.97 5.338 12.992.286.412.542.858.556.882a.96.96 0 0 1 .125.47v1.093q0 .117-.028.23c-.005.02-.558 1.978-1.024 2.444a.95.95 0 0 1-1.42-1.259c.131-.243.454-1.146.572-1.543v-.704a9 9 0 0 0-.483-.722.95.95 0 0 1-.2-.597c.063-4.622-1.629-8.858-4.765-11.928-3.194-3.127-7.648-4.752-12.542-4.58-5.799.203-10.237 2.01-13.19 5.37-2.581 2.935-3.933 7.01-3.91 11.787 0 .32-.091.71-.12.823-.072.29-.153.715-.153.86l-.004.337c-.004.29-.016 1.003.005 1.32a.95.95 0 0 1-1.205 1.455m1.056-1.58h-.002zm35.015-.382v-.002z"/><path fill="#918B86" d="M96.636 22.927a.95.95 0 0 1-.825-1.062c.024-.192.089-.55.15-.879-3.37-1.687-9.455-2.785-15.562-2.785l-.336.001c-5.991.04-13.368 1.776-16.298 3.32-.57.378-1.339.38-1.615.365h-.429a.95.95 0 1 1 0-1.9h.455l.06.001c.127.008.386-.012.48-.052q.05-.036.104-.065c3.544-1.896 11.435-3.531 17.23-3.57 7.017-.048 13.864 1.272 17.454 3.36.352.203.535.609.455 1.007a32 32 0 0 0-.261 1.434.95.95 0 0 1-1.062.825m-33.912-2.995"/><path fill="#918B86" d="M63.588 30.305a.95.95 0 0 0 .943-.84c.048-.413.196-1.775.365-3.35.251-2.316.562-5.197.634-5.735a.95.95 0 1 0-1.884-.251c-.075.561-.375 3.334-.639 5.781-.17 1.571-.317 2.929-.364 3.333a.95.95 0 0 0 .945 1.062"/><path fill="#918B86" d="M63.223 30.063a.95.95 0 0 0 .882-1.305c-.2-.513-1.398-5.554-1.583-6.657a.95.95 0 1 0-1.874.312c.174 1.046 1.408 6.34 1.692 7.052a.95.95 0 0 0 .883.598"/><path fill="#918B86" d="M62.858 36.19a.95.95 0 0 0 .504-1.757c-.284-.198-.996-1.253-1.078-1.869-.138-1.036-.924-2.8-1.717-4.518-.63-1.364-.786-2.347-.507-3.184.027-.082.067-.135.19-.167.268-.067.748.041 1.169.438a.95.95 0 0 0 1.302-1.385c-.846-.796-1.97-1.139-2.936-.895a2.13 2.13 0 0 0-1.528 1.408c-.438 1.313-.252 2.77.585 4.58.505 1.096 1.447 3.137 1.558 3.975.158 1.178 1.206 2.76 1.955 3.228a.95.95 0 0 0 .503.145M94.526 37.16a.94.94 0 0 0 .443-.111c1.83-.969 2.695-4.435 2.849-5.12.15-.66.378-1.202.62-1.776.403-.958.821-1.948.86-3.444.055-2.254-1.094-3.066-1.591-3.31-.89-.439-1.94-.28-2.81.424a.95.95 0 0 0 1.197 1.478c.133-.109.477-.344.773-.197.26.126.553.61.53 1.557-.028 1.137-.345 1.886-.711 2.753-.264.625-.536 1.272-.722 2.097-.46 2.034-1.318 3.56-1.883 3.858a.95.95 0 0 0 .445 1.79"/><path fill="#918B86" d="M94.526 26.847a.95.95 0 0 0 .854-1.365c-.143-.347-.493-2.148-.724-3.341-.223-1.148-.414-2.139-.55-2.626a.95.95 0 1 0-1.831.508c.115.415.318 1.464.516 2.479.45 2.327.67 3.392.884 3.82a.95.95 0 0 0 .85.525"/><path fill="#918B86" d="M94.405 31.396a.95.95 0 0 0 .943-.851c.174-1.65.395-3.526.463-3.813l.089-.338c.285-1.078.953-3.597 1.117-5.128a.95.95 0 0 0-1.89-.203c-.149 1.387-.814 3.898-1.064 4.843l-.096.366c-.128.511-.422 3.248-.509 4.075a.95.95 0 0 0 .947 1.05M75.72 23.892a.949.949 0 0 0 .222-1.874l-.667-.163c-2.486-.605-3.84-.913-4.348-.913-.713 0-1.971.577-2.48.825a.95.95 0 1 0 .834 1.708c.652-.318 1.417-.61 1.65-.632.46.022 2.863.608 3.894.86l.673.162q.112.028.222.027M81.779 23.502a.95.95 0 0 1 .19-1.33c.897-.672 5.178-1.048 5.216-1.048.389 0 1.168.251 2.316.745a.95.95 0 1 1-.751 1.745c-.642-.276-1.367-.543-1.594-.588-.584.03-3.529.438-4.09.697a.95.95 0 0 1-1.287-.221M78.264 41.095c2.552 0 4.997-.403 5.73-.87a.95.95 0 0 0-1.017-1.604c-.326.185-2.055.533-4.352.572-2.39.042-4.348-.282-5.234-.866a.951.951 0 0 0-1.045 1.588c1.313.864 3.657 1.18 5.918 1.18M78.845 49.736v-.029zM70.603 46.646v-.001"/><path fill="#918B86" d="M77.65 51.6c1.326 0 2.973-.188 4.478-.516 1.369-.298 3.275-.85 4.58-1.79q.44-.313.887-.624c2.032-1.419 4.134-2.887 5.87-5.854.993-1.698 1.326-5.539 1.62-8.927.105-1.214.205-2.36.32-3.19a.95.95 0 1 0-1.882-.264c-.122.88-.225 2.05-.331 3.29-.25 2.87-.59 6.803-1.367 8.131-1.526 2.608-3.367 3.894-5.319 5.255q-.455.318-.907.641c-1.394 1.002-5.034 2.022-8.219 1.944-2.494-.06-5.816-1.09-6.57-1.844-.163-.164-.36-.351-.587-.569-1.46-1.392-4.179-3.985-5.058-6.919-.652-2.172-.866-7.576-.81-10.72a.95.95 0 0 0-1.9-.035c-.055 3.043.139 8.801.89 11.301 1.024 3.415 3.978 6.235 5.566 7.748.219.21.408.39.555.537.775.776 2.318 1.336 3.475 1.67 1.504.434 3.105.7 4.393.732q.156.004.317.004M63.587 18.103a.76.76 0 0 0 .491-.18c.91-.77 9.46-4.048 15.36-4.189 3.611-.085 11.854 1.578 15.39 3.966a.761.761 0 0 0 .85-1.26c-3.828-2.585-12.38-4.318-16.276-4.225-5.9.14-14.89 3.348-16.306 4.548a.76.76 0 0 0 .491 1.34"/><path fill="#918B86" d="M76.133 59.883a13.5 13.5 0 0 1-3.882-2.704c-1.321-1.322-2.983-4.041-4.318-6.227-.653-1.068-1.464-2.394-1.724-2.661a.95.95 0 0 1-.329-1.06c.082-.248.306-1.554.306-1.943a.95.95 0 0 1 1.9 0c0 .419-.133 1.334-.264 1.976.365.473.868 1.282 1.733 2.698 1.215 1.988 2.879 4.712 4.04 5.873 2.071 2.071 4.78 3.153 5.916 2.83 1.479-.424 6.075-2.512 8.086-5.563.219-1.479 1.31-7.08 2.087-8.505a.951.951 0 0 1 1.669.91c-.589 1.079-1.77 6.89-1.897 8.035a.95.95 0 0 1-.137.396c-2.444 3.937-7.945 6.17-9.285 6.553-.316.09-.646.13-.98.13-1.037 0-2.115-.374-2.92-.738m-9.878-11.56"/><path fill="#918B86" d="M82.843 86.036a.95.95 0 0 0 .833-1.407c-.113-.207-2.802-5.1-4.65-6.946-1.764-1.765-7.258-7.153-10.634-10.32l2.117-2.984a.95.95 0 0 0-.787-1.5c-.776.01-6.703.092-9.115.19-.349-1.955-1.285-6.833-2.469-10.044 1.737-3.332 4.425-8.414 4.812-8.956.283-.396.306-.428 1.7-.535l.197-.014a.95.95 0 1 0-.145-1.895l-.195.015c-1.47.111-2.28.172-3.104 1.325-.611.855-4.685 8.672-5.148 9.56a.95.95 0 0 0-.04.787c1.479 3.757 2.65 10.836 2.661 10.907a.95.95 0 0 0 1.043.79c.624-.069 4.6-.15 7.956-.202l-1.514 2.132a.95.95 0 0 0 .129 1.248c3.264 3.03 9.325 8.971 11.193 10.84 1.654 1.654 4.3 6.467 4.326 6.516a.95.95 0 0 0 .834.493"/><path fill="#918B86" d="M80.01 156.774a.95.95 0 0 0 .942-.832c.042-.336.075-1.127.135-2.613.105-2.543.261-6.386.572-8.717.234-1.75.468-5.022.695-8.185.237-3.31.482-6.732.72-8.333.203-1.371.34-3.476.483-5.705.19-2.94.406-6.272.8-7.912.533-2.222.74-6.314.904-9.602.06-1.207.118-2.347.183-3.183.242-3.149-.121-15.555-.61-17.757-.43-1.934-1.86-6.136-2.985-9.322a1 1 0 0 0-.07-.152c-.285-.504-7.017-12.363-8.345-14.054-1.272-1.618-7.685-13.414-9.19-17.347a.95.95 0 1 0-1.774.678c1.59 4.16 8.116 16.121 9.47 17.844 1.021 1.3 6.185 10.29 8.145 13.744 1.548 4.39 2.576 7.593 2.893 9.022.458 2.06.798 14.248.57 17.198-.066.862-.124 2.015-.185 3.233-.161 3.21-.362 7.204-.854 9.254-.431 1.799-.643 5.07-.848 8.234-.142 2.188-.276 4.255-.467 5.547-.248 1.674-.485 4.978-.736 8.476-.225 3.136-.458 6.377-.683 8.071-.322 2.417-.482 6.313-.586 8.89-.048 1.17-.089 2.183-.124 2.455a.95.95 0 0 0 .944 1.068"/><path fill="#918B86" d="M81.366 75.627a.95.95 0 0 1-.756-1.111c.954-5.01 3.683-12.325 4.619-13.795.727-1.142 2.228-3.312 2.637-3.9.494-2.074.892-4.578.717-5.134a.951.951 0 0 1 1.742-.762c.525 1.182-.185 4.59-.655 6.516a1 1 0 0 1-.142.317c-.02.027-1.889 2.716-2.695 3.983-.725 1.14-3.423 8.235-4.356 13.13a.95.95 0 0 1-1.111.756m7.221-23.93v-.003z"/><path fill="#918B86" d="M81.425 76.589a.95.95 0 0 0 .902-.65c.308-.917 5.709-7.825 7.97-10.082 2.641-.025 8.244-2.083 9.661-3.63.2-.22.288-.519.235-.812-.42-2.3-2.716-5.628-4.568-8.015-2.054-2.644-4.253-5.016-5.019-5.574a.95.95 0 0 0-1.118 1.537c1.257.914 7.584 8.227 8.709 11.887-1.597 1.15-6.43 2.89-8.163 2.697a.95.95 0 0 0-.752.248c-1.453 1.349-8.174 9.392-8.758 11.143a.95.95 0 0 0 .901 1.25M41.982 132.919a.95.95 0 0 0 .95-.95c0-1.895 1.272-7.8 2.325-11.426.715-2.462 1.836-3.709 3.257-5.287.563-.627 1.146-1.275 1.771-2.065a.95.95 0 1 0-1.49-1.18 40 40 0 0 1-1.694 1.973c-1.52 1.69-2.833 3.149-3.67 6.029-.978 3.37-2.399 9.704-2.399 11.956 0 .525.426.95.95.95M32.571 111.148a.95.95 0 0 1 0-1.344c.475-.475 3.09-4.392 3.399-5.167a1 1 0 0 1 .075-.235c.03-.196.038-.968-.653-3.734-.24-.961-1.155-5.87-1.193-6.08a1 1 0 0 1-.016-.173c0-2.518-.1-6.405-.348-8.724-2.191 2.046-5.82 4.601-7.1 5.467-.172 3.895-1.057 11.67-1.985 13.392-.503.935-2.038 3.784-2.394 5.212a.95.95 0 0 1-1.787.164c-2.428-5.32-5.193-11.677-5.575-12.697-.374-.999-.415-5.686-.415-7.656a1 1 0 0 1 .03-.239l1.58-6.072c-2.224 1.696-4.876 3.92-5.825 4.722.12 1.094.715 3.54 2.97 8.897.923 2.191 4.566 8.878 5.094 9.618a.95.95 0 1 1-1.546 1.105c-.681-.954-4.359-7.752-5.299-9.986-2.116-5.026-3.145-8.314-3.145-10.053a.95.95 0 0 1 .333-.721c.233-.2 5.747-4.903 8.483-6.688a.951.951 0 0 1 1.439 1.036l-2.214 8.503c.004 2.902.116 6.319.294 6.867.293.782 2.4 5.653 4.583 10.498.528-1.164 1.184-2.413 1.721-3.412.679-1.26 1.653-8.964 1.777-13.04a.95.95 0 0 1 .46-.787c.585-.35 6.94-4.771 8.34-6.709a.952.952 0 0 1 1.66.223c.728 1.94.768 9.73.77 10.992.33 1.773.974 5.167 1.152 5.88.78 3.12.833 4.264.582 4.89-.097.352-.45 1.069-1.728 3.021-.166.254-1.64 2.494-2.174 3.03a.95.95 0 0 1-1.345 0m3.383-6.34v-.002zm.135-.489"/><path fill="#918B86" d="M26.587 117.929c.402 0 .77-.06 1.105-.194 1.218-.487 8.31-4.778 9.114-5.265q.04-.025.078-.053c.569-.427 1.079-.793 1.53-1.117 1.844-1.326 2.958-2.127 3.525-3.83.524-1.572 1.034-4.06 1.175-4.772 2.163-3.238 4.254-7.771 3.942-9.952a26 26 0 0 1-.223-2.929c.432-.788 1.646-3.178 1.53-5.027-.034-.55.116-2.137.274-3.816.463-4.914.795-9.139.152-11.069a.95.95 0 1 0-1.803.602c.568 1.706.08 6.87-.241 10.288-.187 1.982-.323 3.414-.279 4.114.082 1.308-.988 3.465-1.408 4.187a.95.95 0 0 0-.129.477c0 .07.003 1.741.246 3.442.181 1.271-1.311 5.19-3.743 8.78a.95.95 0 0 0-.147.353c-.005.03-.585 3.03-1.149 4.721-.373 1.12-1.144 1.674-2.832 2.888-.448.322-.954.685-1.522 1.111-2.993 1.814-7.992 4.781-8.796 5.103-.708.283-2.709-.456-4.473-1.108q-.43-.159-.872-.32-.42-.152-.803-.287c-2.16-.768-3.06-1.129-3.611-2.389-.384-.877-1.03-2.157-1.716-3.513-.808-1.6-1.725-3.413-2.297-4.748-.777-1.814-1.021-4.565-1.257-7.226-.064-.725-.13-1.474-.207-2.184a.95.95 0 0 0-1.89.202c.075.694.138 1.4.204 2.15.249 2.81.506 5.714 1.403 7.807.596 1.39 1.527 3.232 2.348 4.857.673 1.331 1.309 2.589 1.67 3.417.904 2.064 2.504 2.633 4.718 3.418a114 114 0 0 1 1.651.6c1.887.696 3.472 1.282 4.733 1.282"/><path fill="#918B86" d="M42.22 103.277a.95.95 0 0 0 .947-.902c.067-1.332-.043-3.824-.269-6.062-.205-2.043-.59-4.745-1.257-6.003a.95.95 0 1 0-1.68.89c.897 1.692 1.435 8.556 1.309 11.08a.95.95 0 0 0 .95.997"/><path fill="#918B86" d="M43.164 91.702q.165 0 .328-.06a.947.947 0 0 0 .564-1.212c-.022-.062-.562-1.516-2.11-3.064-1.232-1.231-2.821-1.563-3.873-1.783-.332-.07-.646-.135-.835-.206a.95.95 0 0 0-.667 1.78c.325.121.708.201 1.114.286.929.195 2.086.436 2.917 1.267 1.23 1.231 1.666 2.363 1.67 2.374.144.38.507.618.892.618M23.858 98.219c.463 0 .942-.05 1.44-.16a.95.95 0 0 0-.406-1.856c-2.883.631-5.067-1.507-7.379-3.77q-.426-.42-.854-.83a.95.95 0 0 0-1.314 1.374q.42.402.84.814c2.136 2.093 4.521 4.428 7.673 4.428M31.707 98.082a1 1 0 0 0 .127-.009c2.105-.28 2.751-1.768 3.271-2.964q.09-.207.185-.419a.95.95 0 0 0-1.73-.786q-.103.225-.199.449c-.51 1.176-.78 1.704-1.778 1.836a.95.95 0 0 0 .124 1.893M31.705 85.151c-.208-3.018.034-16.766.316-19.764-.702-.843-2.454-2.085-4.534-3.2-1.924-1.03-3.422-1.583-4.21-1.757-.592 2.927-2.606 12.283-3.994 18.736-.389 1.808-.719 3.337-.935 4.348a.951.951 0 0 1-1.858-.399c.216-1.01.546-2.54.935-4.35 1.477-6.865 3.95-18.355 4.135-19.462a.95.95 0 0 1 .657-.752c1.357-.417 4.357 1.002 6.024 1.885 1.031.545 4.481 2.46 5.57 4.185.139.22.181.487.118.74-.2 1.121-.566 16.213-.328 19.66a.95.95 0 0 1-.883 1.013l-.066.002a.95.95 0 0 1-.947-.885M33.92 65.39l.005-.02z"/><path fill="#918B86" d="M32.78 65.652a.95.95 0 0 1 .765-1.104c.365-.067.894-1.577.649-3.173a.95.95 0 0 1 .126-.636c.03-.05 3.091-5.111 4.497-7.338 1.28-2.025 1.391-3.614 1.507-6.731a.96.96 0 0 1 .212-.564c.236-.293.85-1.245.85-2.117 0-1.054-.754-1.978-1.967-2.412a.95.95 0 0 1-.63-.868c-.098-.469-1.393-2.028-2.475-2.028a.95.95 0 0 1-.884-.6c-.303-.442-2.168-1.521-3.36-1.204a.95.95 0 0 1-1.078-.463c-.363-.36-2.497-.68-3.777-.36-.398.1-1.273.64-2.257 1.592-1.023.99-1.48 1.768-1.526 2.026-.078.425-.245.999-.457 1.725-.437 1.5-1.098 3.764-.951 5.085.06.538.127 1.172.198 1.841.2 1.89.449 4.243.62 5.18.3 1.657.061 3.15-.711 4.437-.27.449-.288.569.722 1.7l.118.132a.95.95 0 1 1-1.42 1.263l-.116-.129c-.925-1.037-1.973-2.212-.934-3.943.536-.893.69-1.913.47-3.12-.182-1.007-.425-3.298-.64-5.32-.07-.666-.136-1.296-.196-1.83-.188-1.699.508-4.086 1.016-5.828.188-.646.351-1.206.411-1.533.321-1.769 3.496-4.698 5.192-5.122 1.204-.3 4.11-.321 5.423.726 1.149-.105 2.262.316 2.876.607.332.158 1.264.637 1.81 1.289 1.652.303 3.213 1.893 3.683 3.154 1.704.786 2.74 2.282 2.74 4.003 0 1.341-.707 2.525-1.074 3.047-.12 3.1-.3 5.025-1.788 7.381-1.205 1.907-3.643 5.927-4.307 7.024.19 1.93-.354 4.635-2.231 4.976a.95.95 0 0 1-1.105-.765m6.009-24.968v-.001M31 36.424"/><path fill="#918B86" d="M36.197 62.653a.94.94 0 0 0 .488-.135c2.933-1.76 7.209-4 10.893-5.71 4.578-2.122 7.97-3.318 9.549-3.367a.95.95 0 1 0-.057-1.899c-1.884.058-5.347 1.249-10.291 3.542-3.74 1.734-8.087 4.014-11.072 5.805a.95.95 0 0 0 .49 1.764M137.163 79.57c-.75-.601-2.527-2.073-2.957-2.887-.399-.495-2.93-1.674-4.014-2.18l-.277-.129c-1.21-.564-3.11-2.196-4.638-3.508-.621-.533-1.392-1.194-1.612-1.33-.906-.398-3.203-2.553-4.692-4.255-.975-1.114-4.228-3.166-6.604-4.664-1.439-.907-2.681-1.69-3.306-2.181-.715-.562-1.099-.546-1.505-.53-.4.017-1 .041-1.532-.491-.46-.459-.85-.77-2.006-1.692l-.75-.6c-.845-.675-3.59-1.394-5.796-1.973-2.008-.525-3.904-1.022-5.018-1.58a.95.95 0 0 1 .85-1.699c.937.469 2.824.963 4.65 1.44 2.747.721 5.341 1.4 6.502 2.329l.747.596c1.142.911 1.595 1.274 2.105 1.777.05 0 .117-.003.171-.006.559-.023 1.491-.06 2.756.934.549.43 1.81 1.226 3.145 2.069 2.748 1.732 5.864 3.697 7.02 5.02 1.64 1.872 3.587 3.56 4.009 3.758.355.143.818.532 2.104 1.636s3.232 2.773 4.203 3.227l.277.13c3.05 1.42 4.481 2.194 4.892 3.019.19.34 1.427 1.456 2.463 2.285a.949.949 0 0 1-.595 1.692.95.95 0 0 1-.592-.208m-13.457999999999998-10.017q-.011-.004-.022-.01z"/><path fill="#918B86" d="M60.141 155.91c-5.407-1.561-16.358-6.793-18.947-8.642a.95.95 0 0 1-.398-.774c0-.459.534-2.77 1.013-4.75-.429-.929-.997-1.842-1.548-2.726-.833-1.34-1.62-2.603-1.92-3.88-.26-1.103-.234-2.91-.203-5 .029-2.04.062-4.35-.17-6.325-.458-3.888.16-12.94 1.018-14.899a.949.949 0 1 1 1.741.762c-.62 1.419-1.346 9.88-.871 13.916.247 2.097.212 4.474.182 6.573-.027 1.884-.053 3.663.153 4.538.229.973.935 2.108 1.684 3.31.644 1.036 1.311 2.107 1.807 3.265.082.19.099.4.05.599-.38 1.567-.783 3.309-.953 4.164 3.135 1.979 13.028 6.639 17.89 8.044 5.328 1.538 15.541 2.071 20.772 1.503 4.863-.53 13.389-3.17 19.415-5.34.346-1.322.26-3.238.203-4.55-.02-.427-.035-.797-.035-1.093a.95.95 0 0 1 .39-.768c1.03-.748 3.73-4.059 5.232-6.06.64-.855.854-5.353.968-7.77.045-.962.088-1.871.143-2.599.238-3.084-.873-9.33-1.422-10.336-.76-1.395-.645-2.068-.334-3.338q.058-.234.124-.52c.386-1.668.784-3.16 2.078-5.864.614-1.285 1.237-3.664 1.958-6.42.749-2.86 1.597-6.104 2.726-9.31a.95.95 0 0 1 .259-.39c2.075-1.876 6.11-5.078 8.521-6.99l1.207-.959c1.718-1.376 4.341-3.052 5.752-3.474 1.351-.407 2.75-.73 3.893-.417 6.038-.911 7.255-1.326 7.484-1.43.626-.517 2.32-1.018 3.664-1.355a.95.95 0 0 1 .46 1.844c-1.263.317-2.597.758-2.887.954-.31.306-.898.735-8.657 1.899a.95.95 0 0 1-.475-.05c-.75-.281-2.338.195-2.936.375-1.013.304-3.401 1.77-5.111 3.139l-1.213.963c-2.324 1.843-6.17 4.894-8.248 6.75-1.063 3.06-1.879 6.175-2.6 8.932-.777 2.968-1.391 5.31-2.083 6.759-1.306 2.731-1.628 4.125-1.939 5.472q-.07.299-.13.545c-.254 1.032-.286 1.165.156 1.975.597 1.094 1.09 4.166 1.228 5.082.18 1.203.581 4.226.42 6.31-.053.7-.095 1.595-.14 2.544-.208 4.39-.426 7.591-1.345 8.818-.037.049-3.396 4.503-5.233 6.13q.01.26.024.568c.07 1.606.177 4.032-.449 5.701a.95.95 0 0 1-.564.56c-6.145 2.234-15.148 5.042-20.298 5.603-1.404.152-3.156.227-5.08.227-5.476 0-12.332-.612-16.426-1.795m-17.447-9.384h.001m98.566-67.143.002-.002zm-1.342-1.346.001-.002z"/><path fill="#918B86" d="M87.801 150.161a1 1 0 0 0 .124-.009c2.466-.32 12.05-3.03 14.012-4.993a.95.95 0 1 0-1.344-1.344c-1.334 1.333-9.938 4.066-12.913 4.454a.951.951 0 0 0 .121 1.892M68.79 150.633a.95.95 0 0 0 .028-1.9c-3.39-.1-22.464-7.08-25.01-8.293a.95.95 0 0 0-.817 1.716c1.288.614 6.675 2.668 12.347 4.635 4.954 1.719 11.305 3.78 13.424 3.842zM47.65 82.258q.121 0 .246-.033a.95.95 0 0 0 .673-1.162 66 66 0 0 0-1.844-5.758c-1.225-3.269-1.787-3.75-1.999-3.931a.95.95 0 1 0-1.236 1.443c.543.54 2.184 4.765 3.243 8.735a.95.95 0 0 0 .917.706M69.26 88.924q1.208 0 2.522-.055a.95.95 0 0 0 .775-.46c.568-.946.532-3.299.248-7.892-.06-.98-.113-1.828-.113-2.28a.95.95 0 1 0-1.9 0c0 .511.051 1.343.116 2.397.098 1.582.31 5.014.123 6.361-5.055.157-8.793-.362-12.796-1.186-1.499-.309-2.884-.75-4.106-1.137-2.108-.67-3.928-1.247-5.668-1a.95.95 0 1 0 .269 1.882c1.31-.187 2.938.33 4.824.93 1.266.402 2.702.858 4.298 1.186 3.639.749 7.068 1.254 11.407 1.254M92.526 84.501c2.142 0 8.44-.588 10.777-.956 1.819-.287 4.385-.065 7.634.217l1.704.145a.951.951 0 0 0 .158-1.895q-.882-.073-1.698-.144c-3.51-.305-6.047-.524-8.095-.201-2.246.354-8.464.934-10.48.934a.95.95 0 0 0 0 1.9M144.319 88.212c2.256 0 6.266-1.03 7.144-1.263a.95.95 0 0 0-.488-1.837c-1.808.48-4.805 1.136-6.39 1.2-.038-1.63-.063-5.246.333-7.826.342-.475 1.352-1.842 2.334-2.735a.95.95 0 1 0-1.278-1.406c-1.365 1.24-2.686 3.154-2.742 3.235a1 1 0 0 0-.154.382c-.6 3.6-.376 9.06-.367 9.29a.95.95 0 0 0 .764.892c.236.046.523.068.844.068M160.421 183.936c-.543-.005-13.354-.127-17.171-.843s-12.49-4.777-18.934-8.246a.95.95 0 0 1-.5-.836v-6.87c-3.448-1.21-4.206-2.847-4.47-4.163-.41-2.053-.076-4.338.596-7.36.666-2.998 1.927-15.504 2.225-18.775.208-2.287.249-5.388.115-8.733-.086-2.153-1.025-4.32-2.211-7.067-.225-.519-.454-1.049-.689-1.604-1.108.373-2.173.803-3.134 1.19-.787.32-1.466.594-2.046.787-1.517.505-3.95.639-5.025.639a.95.95 0 0 1 0-1.9c1.082 0 3.24-.148 4.424-.543.524-.175 1.178-.438 1.935-.744 1.233-.498 2.631-1.062 4.115-1.508a.95.95 0 0 1 1.152.548c.346.84.684 1.623 1.012 2.381 1.266 2.927 2.266 5.238 2.365 7.745.08 1.984.17 5.787-.12 8.982-.212 2.323-1.527 15.702-2.264 19.014-.73 3.282-.888 5.065-.586 6.575.197.98.796 2.014 3.832 2.938a.95.95 0 0 1 .674.91v6.988c6.443 3.439 14.516 7.153 17.884 7.784 3.165.593 13.389.766 16.148.802l.017-.05a.95.95 0 0 1 .767-.641c5.174-.74 10.902-2.036 14.95-3.385 4.022-1.34 10.643-4.691 12.521-6.304.093-.905.018-2.968-.06-4.189a.95.95 0 0 1 .61-.95l2.004-.762c.757-3.714.173-9.63-.58-12.644a1 1 0 0 1-.02-.355c.548-4.145.776-7.382.96-9.98.168-2.407.29-4.145.595-5.36.569-2.272.92-5.281.922-5.31a.95.95 0 0 1 1.72-.44c3.477 4.915 4.895 6.39 7.596 6.69 2.949.327 7.222.47 9.637.01 2.106-.4 7.217-1.537 9.21-3.418 1.952-1.844 2.309-2.444 2.418-5.835.126-3.914-.443-9.093-.467-9.312-.042-.37-.045-.769-.048-1.191-.007-.825-.016-1.758-.33-2.386-.593-1.187-2.551-4.018-2.892-4.359-.615-.614-.824-1.64-.623-3.05q.02-.14.048-.325c.08-.54.32-2.164.248-2.606-.132-.313-.181-.813-.317-2.584-.133-1.74-.354-4.651-.739-5.549-.643-1.5-1.455-3.888-1.643-4.447l-1.234-1.906a.951.951 0 0 1 1.596-1.033l1.299 2.007q.066.102.104.216c.009.028.94 2.817 1.625 4.414.47 1.098.68 3.437.888 6.153.062.829.135 1.762.188 2.026.224.535.187 1.417-.135 3.589l-.047.314c-.139.97.014 1.366.086 1.438.598.598 2.664 3.682 3.248 4.852.51 1.022.521 2.24.53 3.219.003.373.007.726.037.998.063.563.606 5.604.478 9.583-.127 3.922-.721 4.99-3.014 7.155-2.272 2.147-7.34 3.368-10.158 3.905-2.622.499-7.014.365-10.203.01-3.098-.344-4.862-1.931-7.55-5.557-.16.99-.374 2.15-.634 3.19-.264 1.053-.38 2.722-.544 5.031-.183 2.59-.408 5.802-.948 9.92.785 3.276 1.446 9.794.428 13.864a.95.95 0 0 1-.583.658l-1.83.696c.062 1.197.14 3.393-.06 4.29a.95.95 0 0 1-.256.466c-1.872 1.871-9.3 5.567-13.48 6.96-3.996 1.333-9.577 2.613-14.7 3.38l-.051.153a.95.95 0 0 1-.902.65zM91.464 123.236a.95.95 0 0 0 .527-.16c3.158-2.105 10.832-10.207 12.822-14.472a.951.951 0 0 0-1.723-.804c-1.718 3.685-8.925 11.543-12.154 13.694a.95.95 0 0 0 .528 1.742M93.59 133.599a.95.95 0 0 0 .57-.19c2.985-2.24 6.971-9.734 10.11-16.013a.95.95 0 1 0-1.7-.85c-.9 1.802-2.577 5.155-4.389 8.286-2.694 4.652-4.294 6.405-5.162 7.056a.95.95 0 0 0 .571 1.71M113.783 92.886a.95.95 0 0 0 .857-.54c.099-.206 2.433-5.084 2.98-7a.95.95 0 0 0-1.828-.52c-.502 1.76-2.842 6.65-2.866 6.698a.95.95 0 0 0 .857 1.362M28.757 213.932a.95.95 0 0 0 .946-.869c.268-3.088.87-8.383 1.339-9.438.612-1.38.744-2.814.86-4.081.032-.344.062-.668.1-.97.054-.432.33-1.882.652-3.56.721-3.772 1.71-8.939 1.833-11.028.172-2.912 1.326-15.3 2.876-19.949 1.01-3.031 3.625-10.642 6.07-15.839a.95.95 0 0 0-1.72-.81c-2.488 5.289-5.132 12.985-6.153 16.048-1.632 4.896-2.789 17.351-2.97 20.439-.116 1.965-1.131 7.271-1.803 10.783-.354 1.85-.61 3.187-.671 3.68-.042.334-.073.673-.106 1.032-.108 1.175-.22 2.39-.705 3.483-.736 1.655-1.375 8.659-1.496 10.046a.95.95 0 0 0 .948 1.033"/><path fill="#918B86" d="M40.093 201.886a.948.948 0 0 0 .928-.744c.014-.064 1.42-6.39 1.942-8.478a.95.95 0 0 0-1.843-.46c-.406 1.621-1.307 5.624-1.73 7.515-1.915-.727-5.284-2.487-6.164-3.618a.95.95 0 0 0-1.5 1.167c1.483 1.908 6.553 4.238 8.16 4.595a1 1 0 0 0 .207.023M38.394 204.892c-1.2-.134-3.456-1.35-4.371-1.867-2.021-1.142-3.185-2-3.46-2.55a.95.95 0 0 1 1.665-.914c.63.72 5.112 3.301 6.376 3.442a.95.95 0 1 1-.21 1.889m-6.13-5.267h-.001M67.728 213.046a.95.95 0 0 0 .945-.864c.138-1.518 2.601-11.119 4.223-17.202a.95.95 0 0 0-1.836-.489c-.417 1.565-4.082 15.352-4.28 17.519a.95.95 0 0 0 .948 1.036"/><path fill="#918B86" d="M72.863 213.577q.051 0 .106-.006a.95.95 0 0 0 .84-1.049c-.081-.72-.47-1.848-.964-3.276-.708-2.048-1.589-4.596-1.69-6.415a.95.95 0 0 0-1.898.106c.117 2.084 1.045 4.771 1.791 6.93.42 1.211.815 2.356.871 2.864a.95.95 0 0 0 .944.846M108.292 213.756a.95.95 0 0 0 .94-.818c.075-.517.018-2.39-.105-6.238-.157-4.9-.394-12.302-.077-14.102.53-2.996-1.548-13.425-1.92-15.254l.51-3.737c.015-.115.365-2.787.182-4.99-.189-2.265-3.244-13.184-5.33-18.012a.95.95 0 1 0-1.744.754c2.103 4.869 5.022 15.517 5.18 17.416.166 2-.169 4.553-.173 4.579l-.53 3.894a.9.9 0 0 0 .01.32c.68 3.301 2.353 12.377 1.944 14.7-.352 1.994-.13 8.924.049 14.494.086 2.699.176 5.49.123 5.91a.95.95 0 0 0 .941 1.084"/><path fill="#918B86" d="M105.635 206.846a1 1 0 0 0 .213-.024l2.303-.532a.95.95 0 1 0-.427-1.852l-1.326.306c-.519-3.283-1.228-10.204-1.235-10.281a.95.95 0 1 0-1.891.192c.037.357.896 8.756 1.43 11.427a.954.954 0 0 0 .933.764M36.727 171.241a.95.95 0 0 0 .901-.65c.02-.057 1.932-5.746 4.121-8.779a52 52 0 0 1 4.684-5.552 1 1 0 0 0 .191-.274c.044-.095 1.082-2.345 1.791-4.12a.95.95 0 0 0-1.765-.706 100 100 0 0 1-1.683 3.88 53 53 0 0 0-4.759 5.66c-2.36 3.269-4.3 9.046-4.382 9.29a.95.95 0 0 0 .901 1.251M72.906 191.947q.08 0 .158-.006c.7-.05 1.018-.419 1.122-.575a.95.95 0 0 0 .153-.42c.01-.078.89-7.818 1.413-11.303.526-3.506 1.25-13.647 1.25-17.5a.95.95 0 1 0-1.9 0c0 3.793-.712 13.77-1.23 17.218-.43 2.87-1.098 8.573-1.334 10.618a5 5 0 0 1-.843-.344.95.95 0 0 0-.85 1.699c.822.412 1.499.613 2.06.613M175.116 53.478a.95.95 0 0 1-.55-1.227c.669-1.755.535-5.24.168-5.805a.95.95 0 0 1-.23-.577c-.533-11.745-8.774-16.84-16.706-16.678-5.55.114-10.246 1.909-13.222 5.052-2.814 2.974-4.15 7.103-3.972 12.272a.95.95 0 0 1-.145.536l-.305.491v1.294c.262.74.99 1.438 1.26 1.655a.95.95 0 0 1-1.175 1.493c-.154-.12-1.517-1.226-1.95-2.74a1 1 0 0 1-.037-.262V47.27c0-.18.051-.354.145-.504l.299-.478c-.136-5.561 1.378-10.053 4.5-13.351 3.329-3.517 8.5-5.522 14.564-5.646 4.802-.097 9.278 1.503 12.605 4.506 3.63 3.28 5.712 8.021 6.025 13.73.849 1.577.635 5.609-.048 7.4a.95.95 0 0 1-1.226.55m-.372-7.02-.003-.004z"/><path fill="#918B86" d="M140.014 49.843a.95.95 0 0 0 .711-.32c.547-.615 2.05-1.544 6.108-2.477 2.912-.671 5.986-1.075 7.463-1.27 3.261-.428 11.692.369 14.234.806.846.147 1.604.314 2.274.461 1.502.332 2.59.571 3.528.336a.951.951 0 0 0-.46-1.844c-.507.127-1.456-.083-2.659-.347a51 51 0 0 0-2.36-.479c-2.78-.479-11.253-1.284-14.805-.816-11.024 1.45-13.694 3.187-14.744 4.368a.95.95 0 0 0 .71 1.582"/><path fill="#918B86" d="M141.458 46.315a.76.76 0 0 0 .43-.132c4.109-2.816 10.233-4.246 17.243-4.027 6.346.198 11.687 1.683 13.963 2.979a.761.761 0 0 0 .752-1.322c-2.515-1.432-8.027-2.97-14.668-3.176-9.396-.293-15.056 2.172-18.15 4.292a.76.76 0 0 0 .43 1.386M173.019 66.164a.95.95 0 0 0 .735-.348c1.812-2.213 3.28-7.278 3.63-9.373.322-1.935-.707-3.568-1.839-4.123-.853-.418-1.778-.25-2.413.437a.951.951 0 0 0 1.397 1.289.2.2 0 0 1 .065-.054c.018-.003.154.018.349.207.38.367.703 1.108.565 1.932-.33 1.99-1.73 6.656-3.224 8.481a.951.951 0 0 0 .735 1.552M142.565 65.253c-.251-.126-.84-.42-2.205-3.56-.607-1.396-1.333-3.315-1.55-4.515-.286-1.568.292-3.276 1.374-4.062.684-.497 1.477-.566 2.175-.191a.95.95 0 0 1-.901 1.674c-.015-.01-.046-.026-.157.054-.363.265-.812 1.14-.622 2.185.342 1.883 2.248 6.156 2.825 6.766a.95.95 0 0 1-.94 1.649m.852-1.7h-.001M159.716 68.804c1.354 0 2.62-.131 3.451-.447a.951.951 0 0 0-.675-1.777c-1.677.639-6.436.238-7.868-.35a.951.951 0 0 0-.723 1.757c1.125.462 3.586.817 5.815.817M148.032 50.302a.9.9 0 0 0 .37-.029c.012-.002 1.048-.287 1.936-.337 1.046-.059 2.222.17 3.698.72a.95.95 0 1 0 .664-1.781c-1.73-.646-3.152-.911-4.469-.837-1.097.063-2.287.39-2.338.405a.95.95 0 0 0 .139 1.859M169.083 49.923a.954.954 0 0 0 .368-1.764c-1.297-.774-5.826-.507-7.233.429a.95.95 0 0 0 1.052 1.583c.895-.594 4.568-.695 5.216-.374.187.111.397.15.597.126"/><path fill="#918B86" d="M142.985 56.247c.31 0 .612-.15.796-.425.427-.64.73-2.14 1.274-5.176.176-.979.342-1.904.485-2.535a.95.95 0 1 0-1.853-.422c-.153.674-.323 1.62-.503 2.622-.268 1.498-.719 4.005-.988 4.462a.948.948 0 0 0 .789 1.474"/><path fill="#918B86" d="M143.26 58.41q.067 0 .135-.01a.95.95 0 0 0 .807-1.076c-.164-1.147-.482-2.428-.79-3.667-.376-1.522-.767-3.097-.826-4.271a.95.95 0 0 0-1.897.094c.067 1.359.48 3.024.879 4.634.296 1.194.601 2.427.752 3.48a.95.95 0 0 0 .94.815M172.34 55.746c0-1.661-.7-5.044-1.078-6.861-.233-1.127-.275-1.343-.275-1.526a.95.95 0 0 1 1.9-.052c.018.141.13.675.237 1.192.417 2.017 1.117 5.392 1.117 7.247a.95.95 0 0 1-1.902 0m.547-8.387v-.04z"/><path fill="#918B86" d="M159.386 77.89c3.281 0 6.445-1.54 8.546-2.852 3.684-2.303 5.12-6.792 5.37-7.669.759-2.658.93-7.886.848-11.555a.95.95 0 0 0-1.9.043c.083 3.693-.124 8.706-.776 10.99-.599 2.097-2.15 5.08-4.55 6.579-1.938 1.212-4.863 2.64-7.766 2.561-3.276-.089-6.673-1.257-8.336-2.366q-.234-.154-.508-.333a10 10 0 0 1-4.204-5.694c-1.006-3.478-2.143-8.115-1.993-9.684a.95.95 0 1 0-1.892-.18c-.207 2.165 1.073 6.984 2.06 10.392 1 3.458 3.079 5.514 4.992 6.759l.491.322c2.238 1.492 6.078 2.596 9.338 2.684q.14.004.28.004"/><path fill="#918B86" d="M159.132 71.295a.76.76 0 1 0 0-1.52c-.453 0-.84-.076-.844-.077a.761.761 0 0 0-.297 1.492c.021.004.532.105 1.141.105M78.967 43.621c.35 0 .7-.017.954-.067a.761.761 0 0 0-.297-1.492c-.335.068-1.252.034-1.796-.011a.76.76 0 1 0-.126 1.516c.156.012.709.054 1.265.054M168.933 77.298c.403 0 .778-.26.906-.665.566-1.79 1.466-4.603 1.63-5.01a.95.95 0 1 0-1.765-.707c-.243.605-1.532 4.682-1.677 5.145a.95.95 0 0 0 .906 1.237M160.43 181.81l.084-.003a.95.95 0 0 0 .862-1.032c-.048-.553-.49-5.446-.862-6.683-.293-1.097-1.259-16.095-1.259-19.567 0-.987-.022-3.069-.05-5.705-.063-5.959-.15-14.12-.069-17.537.059-2.432-.335-17.265-.726-19.221q-.053-.268-.116-.57c-.357-1.74-.895-4.37-.697-6.353.06-.61.148-1.345.238-2.124.265-2.243.593-5.034.593-7.183 0-2.886-1.26-9.908-1.314-10.206a.95.95 0 0 0-.772-.768l-2.292-.398c-1.199-1.97-3.74-6.194-4.2-7.189-.392-.979-1.415-3.657-1.594-4.637a.95.95 0 1 0-1.869.34c.246 1.354 1.557 4.653 1.705 5.025l.018.04c.607 1.337 4.382 7.516 4.542 7.778a.95.95 0 0 0 .648.44l2.058.36c.315 1.824 1.17 6.987 1.17 9.215 0 2.038-.321 4.768-.58 6.96-.092.788-.18 1.531-.242 2.157-.227 2.272.346 5.072.726 6.925q.062.298.114.56c.314 1.57.76 15.923.69 18.804-.081 3.449.005 11.63.068 17.603.029 2.63.05 4.707.05 5.684 0 3.066.934 18.76 1.34 20.113.237.793.61 4.289.79 6.306a.95.95 0 0 0 .945.867"/><path fill="#918B86" d="M156.82 87.306a.95.95 0 0 1-.027-1.343c.915-.952 3.117-3.197 3.904-3.608 1.013-.61 9.308-7.697 10.212-9.603a.95.95 0 1 1 1.717.813c-.514 1.085-2.422 3.114-5.671 6.029-2.094 1.878-4.824 4.169-5.384 4.449-.395.22-2.076 1.852-3.408 3.236a.946.946 0 0 1-1.343.027m3.884-4.954.01-.005q-.005.001-.01.005"/><path fill="#918B86" d="M167.043 88.28a1 1 0 0 0 .301-.049c2.078-.693 8.153-5.663 10.082-8.92a.95.95 0 0 0 .057-.859c-.073-.169-1.785-4.162-2.491-5.692-.598-1.295-1.157-1.612-1.825-1.89-.182-.077-.326-.137-.494-.257a.95.95 0 1 0-1.104 1.547c.342.244.645.371.866.463.35.147.496.207.831.934.556 1.204 1.791 4.066 2.273 5.185-1.95 2.9-6.937 6.905-8.633 7.624-1.872-.147-3.222-.376-4.125-.528-.62-.104-.993-.167-1.288-.167-.754 0-1.831.462-2.04.555a.95.95 0 1 0 .773 1.736c.417-.185 1.04-.39 1.267-.39.136 0 .542.068.971.14.972.164 2.44.412 4.51.565zM199.283 128.078a.95.95 0 0 0 .917-1.201c-.506-1.856 1.29-7.67 2.092-9.67.243-.61.468-1.517.708-2.478.262-1.047.532-2.131.82-2.825.638-1.527.032-7.258-.168-8.978l-.005-.034-1.13-7.345c.164-.256.465-.666.861-.95a.95.95 0 1 0-1.104-1.545c-.99.707-1.538 1.764-1.598 1.883a.95.95 0 0 0-.089.569l1.18 7.66c.38 3.286.605 7.277.3 8.009-.344.826-.632 1.98-.91 3.097-.225.896-.435 1.742-.631 2.23-.03.076-2.996 7.813-2.16 10.877a.95.95 0 0 0 .917.701"/><path fill="#918B86" d="M193.38 133.155a.95.95 0 0 0 .725-1.563c-.725-.856.173-4.291.51-5.584.133-.502.236-.899.289-1.19.184-1.013 1.199-2.594 2.128-3.318.74-.575 2.182-1.613 3.52-2.1a.951.951 0 0 0-.65-1.787c-1.582.576-3.208 1.742-4.036 2.387-1.296 1.008-2.567 3.017-2.832 4.478-.04.22-.14.605-.257 1.05-.751 2.875-1.38 5.807-.124 7.291a.95.95 0 0 0 .726.336"/><path fill="#918B86" d="M192.788 128.432a.95.95 0 0 0 .908-1.23c-.44-1.432-.733-2.119-.967-2.67-.264-.622-.423-.997-.662-2.197a99 99 0 0 1-.45-2.467c-.282-1.616-.547-3.143-.88-4.142-.411-1.234-.54-5.226-.427-6.588.108-1.3 1.386-6.3 1.589-6.812a.951.951 0 0 0-1.765-.706c-.254.636-1.59 5.822-1.717 7.36-.116 1.375-.036 5.687.517 7.347.288.863.541 2.322.81 3.867.145.831.295 1.692.459 2.514.278 1.39.499 1.91.777 2.566.218.511.487 1.148.9 2.487a.95.95 0 0 0 .908.67"/><path fill="#918B86" d="m191.133 118.63.051-.001a.95.95 0 0 0 .9-1c-.05-.953 1.207-1.275 3.543-1.536q.308-.035.585-.069a.95.95 0 1 0-.235-1.885l-.56.065c-.981.109-2.202.245-3.196.648-1.77.714-2.084 1.959-2.035 2.877a.95.95 0 0 0 .947.9M210.03 109.3q.166 0 .33-.059a.95.95 0 0 0 .56-1.222c-.077-.208-1.902-5.112-2.494-6.529-.146-.354-.118-.478-.117-.48.067-.15.701-.439 1.121-.63l.048-.022c1.46-.663 5.822-4.518 7.129-6.478a.951.951 0 0 0-1.581-1.055c-1.143 1.713-5.281 5.324-6.334 5.803l-.049.022c-1.226.557-2.908 1.322-1.97 3.57.577 1.384 2.448 6.41 2.466 6.462a.95.95 0 0 0 .89.619"/><path fill="#918B86" d="M209.483 99.98q.199 0 .366-.01a.951.951 0 0 0-.111-1.898c-2.132.125-6.33-1.024-6.705-2.376a.949.949 0 1 0-1.831.51c.764 2.753 5.975 3.773 8.28 3.773M206.182 108.102c-.888-.178-3.275-1.913-3.758-3.038a.951.951 0 0 1 1.747-.75c.208.466 1.872 1.753 2.404 1.928a.95.95 0 0 1-.393 1.86m.383-1.863q-.005 0-.01-.002zM216.289 106.467q.15 0 .3-.049c1.778-.593 2.977-3.95 3.199-4.616a.95.95 0 1 0-1.803-.602c-.59 1.77-1.541 3.263-1.997 3.414a.95.95 0 0 0 .3 1.853M119.925 119.22a.95.95 0 0 0 .849-1.376c-.668-1.336-1.099-2.803-1.413-3.873-.175-.592-.312-1.06-.453-1.39a.95.95 0 0 0-1.747.75c.096.225.226.665.376 1.175.335 1.14.793 2.701 1.538 4.19a.95.95 0 0 0 .85.525"/><path fill="#918B86" d="M118.506 117.567a.951.951 0 0 0 .407-1.81c-4.758-2.246-7.03-3.64-7.345-3.991-.328-.41-.923-.474-1.333-.146s-.474.93-.146 1.339c.85 1.064 5.887 3.514 8.012 4.518.13.061.27.09.405.09M114.49 109.537a.952.952 0 0 0 .457-1.785c-1.072-.584-2.487-1.826-3.245-3.562a.951.951 0 0 0-1.742.762c.808 1.847 2.332 3.517 4.077 4.469.144.079.3.116.454.116M190.027 153.251c-2.693-6.193-6.085-13.595-6.676-14.378a.95.95 0 0 1 1.37-1.317c.183.183.523.523 2.951 5.78a484 484 0 0 1 4.098 9.157.95.95 0 0 1-1.743.758m-6.65-14.35-.017-.018zM147.56 174.725a.95.95 0 0 0 .093-1.897l-.148-.014c-6-.594-8.618-1.25-9.756-1.696l-.73-.285c-2.838-1.104-8.12-3.162-11.311-4.97a.95.95 0 1 0-.938 1.653c3.313 1.877 8.677 3.965 11.559 5.088l.727.284c1.819.712 5.27 1.323 10.262 1.817l.145.015q.05.005.096.005M167.042 174.252l.042-.001c2.83-.123 8.142-1.33 10.726-2.438 2.402-1.029 8.243-2.904 10.858-3.618a.95.95 0 1 0-.5-1.833c-2.728.744-8.594 2.628-11.107 3.704-2.377 1.02-7.454 2.173-10.059 2.287a.95.95 0 0 0 .04 1.899"/><path fill="#918B86" d="M176.49 170.191c2.16 0 4.345-.202 6.145-.434a.95.95 0 0 0-.243-1.885c-3.203.413-7.665.732-10.732-.094a.95.95 0 0 0-.494 1.836c1.57.423 3.438.577 5.324.577M187.12 109.419a.95.95 0 0 0 0-1.901c-1.946 0-3.586-.284-5.173-.557-1.211-.209-2.464-.425-3.806-.504-.903-.053-1.57-.139-2.157-.214-1.327-.17-2.285-.293-4.183.25-2.6.741-5.846 1.152-6.948.876a.95.95 0 0 0-.46 1.844c1.766.442 5.701-.257 7.93-.894 1.521-.434 2.156-.353 3.419-.191.587.075 1.319.169 2.288.226 1.235.073 2.382.271 3.594.48 1.666.287 3.388.585 5.496.585M144.075 112.96a.95.95 0 0 0 .932-.769c.011-.053 1.058-5.448 1.563-6.964a.95.95 0 1 0-1.803-.602c-.425 1.274-1.15 4.806-1.468 6.406-2.567-.112-4.886-.363-6.956-.586-2.222-.24-4.142-.447-5.909-.447-2.9 0-6.624-2.027-7.848-2.694l-.068-.037c-.014-.877.494-3.398 1.041-5.464a.95.95 0 1 0-1.838-.487c-.015.063-.409 1.553-.721 3.114-.584 2.92-.507 3.94.33 4.357.074.037.191.102.347.187 1.47.8 5.374 2.924 8.757 2.924 1.664 0 3.537.203 5.705.437 2.319.25 4.944.533 7.905.626zM184.108 83.645a.951.951 0 0 0 .394-1.815c-2.285-1.042-6.149-2.89-6.79-3.414a.95.95 0 1 0-1.203 1.47c1.019.834 6.18 3.206 7.204 3.673a.95.95 0 0 0 .395.086"/><path fill="#918B86" d="M190.295 86.68c.426 0 .79-.083 1.112-.246.898-.455 1.152-1.41 1.236-1.723.102-.38.129-.984-.318-1.703-.84-1.35-3.025-2.512-4.222-2.751a.95.95 0 0 0-.373 1.864c1.213.242 3.081 1.61 3.075 2.11-.074.274-.168.462-.255.506-.1.051-.546.167-2.11-.447-.983-.387-3.238-1.831-3.65-2.16a.95.95 0 0 0-1.187 1.483c.485.389 2.894 1.955 4.144 2.446 1.06.417 1.88.62 2.548.62"/><path fill="#918B86" d="M192.416 92.126c.696 0 1.457-.265 2.168-.778 1.118-.807 2.518-2.846 3.227-4.352l.014-.03c.527-1.23.558-3.042-.934-4.435-.168-.156-.611-.57-5.272-2.901-1.655-.827-4.236-1.172-5.609-.977-1.246.179-3.396.537-5.35.892a.951.951 0 0 0 .34 1.87c1.932-.352 4.054-.704 5.28-.88 1.043-.15 3.23.166 4.488.795 4.2 2.1 4.78 2.55 4.832 2.596.929.867.654 1.87.483 2.277-.658 1.392-1.875 3.072-2.612 3.604-.637.46-1.138.466-1.303.363-.15-.094-.2-.427-.126-.847.3-1.733 1.62-3.235 1.632-3.25a.95.95 0 0 0-.122-1.38l-1.24-.974a.95.95 0 1 0-1.174 1.494l.503.395c-.524.761-1.23 1.992-1.472 3.39-.215 1.24.146 2.254.992 2.783.369.23.798.345 1.255.345"/><path fill="#918B86" d="M199.231 95.21q.413.001.871-.108c.924-.225 1.523-.785 1.602-1.497.018-.165.048-.41.084-.703.145-1.196.365-3.003.365-3.83 0-.954-.372-1.829-1.076-2.532-.307-.308-1.285-.874-2.905-1.685a.95.95 0 0 0-.85 1.7c1.328.665 2.232 1.181 2.42 1.339.339.341.51.738.51 1.177 0 .713-.228 2.592-.351 3.6l-.063.525c-.16.07-.48.137-.812.09-.234-.034-.416-.118-.487-.224-.428-.643-.787-2.325-.913-3.235a1 1 0 0 0-.104-.32l-.62-1.152a.951.951 0 0 0-1.674.9l.541 1.006c.102.658.472 2.78 1.189 3.854.396.596 1.213 1.095 2.273 1.095"/><path fill="#918B86" d="m203.279 96.593-.302-1.66c-.79-.906-1.324-2.593-1.586-3.581-.364-1.375-.56-2.718-.558-3.758l-1.732-.643a1 1 0 0 1-.343-.219c-.144-.145-1.431-1.464-1.84-2.996-.296-1.112-.09-3.097.768-4.493.307-.499.678-.883 1.097-1.14-.027-1.004.141-2.416.894-3.341.276-.34.61-.588.987-.738.377-1.212 1.424-2.707 2.669-3.378.706-.38 1.44-.486 2.133-.316.871-.822 1.908-1.277 3.03-1.326 1.364-.06 2.725.49 3.74 1.504l.465.464c2.003 1.995 3.857 3.873 4.533 4.918 1.129 1.744 1.321 2.793.936 5.1-.16.965-.614 2.939-1.014 4.68-.306 1.329-.595 2.584-.668 3.026-.196 1.172-.261 2.684-.173 3.056a.95.95 0 0 1-1.668.908c-.577-.963-.057-4.141-.034-4.276.084-.5.365-1.723.69-3.14.395-1.715.842-3.658.993-4.565.328-1.965.157-2.498-.658-3.757-.622-.961-2.911-3.241-4.278-4.605l-.467-.464c-.63-.631-1.495-.987-2.314-.95-.8.034-1.518.422-2.132 1.155a.95.95 0 0 1-1.196.215c-.211-.12-.518-.222-1.016.046-.988.534-1.781 1.997-1.818 2.556a.95.95 0 0 1-.899.886c-.11.006-.231.034-.366.2-.454.559-.54 1.871-.428 2.603a.95.95 0 0 1-.743 1.075c-.292.061-.53.36-.677.6-.575.936-.71 2.407-.55 3.008.205.769.858 1.603 1.215 2l2.183.808a.95.95 0 0 1 .612 1.013c-.247 1.897.908 6.004 1.71 6.681a.95.95 0 0 1 .32.556l.355 1.948a.951.951 0 0 1-1.87.34m12.999-4.91h-.001"/><path fill="#918B86" d="M211.918 72.13a.952.952 0 0 0 .916-1.208l-.101-.358c-.735-2.626-1.43-5.107-2.894-5.855a1.97 1.97 0 0 0-1.614-.089c-.47.173-1.11.581-1.49 1.543-.614 1.552-.22 3.773.083 4.38a.95.95 0 0 0 1.7-.85c-.13-.297-.393-1.946 0-2.87.145-.339.31-.4.364-.42.057-.02.066-.016.093-.003.723.37 1.477 3.066 1.928 4.676l.101.361a.95.95 0 0 0 .914.694M205.895 80.722a.95.95 0 0 0 .426-1.8c-.105-.053-1.045-.515-1.796-.623-.103-.014-.337-.065-.586-.117-1.134-.244-3.033-.65-4.33-.408a.95.95 0 0 0 .351 1.869c.921-.172 2.652.198 3.582.397.317.067.546.116.714.14.337.05.925.297 1.216.442.136.067.28.1.423.1M207.06 77.406c-.493-.39-3.856-1.539-5.284-1.742a.95.95 0 1 1 .27-1.882c.971.139 5.586 1.373 6.432 2.36a.952.952 0 0 1-.722 1.569.95.95 0 0 1-.696-.305m-.024-.027h-.001M210.413 75.23a.949.949 0 0 0 .49-1.764 58 58 0 0 1-.622-.394c-1.122-.717-3.211-2.05-4.163-2.489a.952.952 0 0 0-.797 1.726c.836.385 2.93 1.722 3.937 2.365q.502.321.666.422a.95.95 0 0 0 .489.134M201.131 87.441a.95.95 0 0 1 .391-1.8c.292-.12 1.054-.558 1.73-.997a.95.95 0 0 1 1.037 1.592c-1.591 1.035-2.28 1.324-2.708 1.324a.94.94 0 0 1-.45-.119M121.104 213.223l.05-.001a.95.95 0 0 0 .9-.997c-.002-.046-.23-4.54-.007-6.204.095-.71.166-2.144.257-3.96.146-2.907.326-6.523.686-8.895.177-1.178.395-2.922.646-4.94.588-4.718 1.32-10.59 2.047-13.257a.95.95 0 0 0-1.834-.5c-.763 2.798-1.504 8.744-2.099 13.522-.25 2.005-.465 3.738-.64 4.89-.373 2.467-.557 6.137-.704 9.085-.085 1.702-.158 3.172-.242 3.805-.246 1.836-.018 6.359-.008 6.55a.95.95 0 0 0 .948.902M154.64 211.864c-.024-.357-.593-8.805-.593-11.873 0-1.488-.357-5.275-.672-8.616-.592-6.27-.61-6.9-.44-7.325a.95.95 0 0 1 1.808.57c-.04.6.272 3.908.524 6.576.335 3.548.682 7.218.682 8.795 0 3.003.582 11.658.588 11.745a.95.95 0 0 1-.884 1.013l-.066.002a.95.95 0 0 1-.947-.887m.06-27.108v-.001M194.141 212.348a.95.95 0 0 1-.639-1.052c.027-.898-.699-8.703-.95-10.964-.07-.63-.321-2.23-.637-4.254-.73-4.66-1.834-11.7-2.082-15.51-.222-3.39-.578-4.365-.921-5.306a11.6 11.6 0 0 1-.602-2.145.95.95 0 0 1 1.87-.34c.152.832.32 1.296.517 1.833.39 1.068.793 2.171 1.032 5.833.242 3.726 1.338 10.715 2.063 15.34.333 2.13.575 3.667.649 4.34.116 1.046.382 3.75.607 6.294.436 4.907.376 5.084.294 5.33a.95.95 0 0 1-1.2.6m-.601-1.202"/><path fill="#918B86" d="M123.35 201.65a.95.95 0 0 0 .9-.65l.03-.087c.784-2.389 1.469-3.814 1.905-4.59.675-1.2 2.304-5.858 3.215-8.528 1.32-3.867 2.539-7.676 2.898-9.057a.95.95 0 1 0-1.839-.48c-.777 2.983-4.975 15.434-5.93 17.134-.478.85-1.223 2.393-2.056 4.927l-.025.08a.95.95 0 0 0 .901 1.251M46.587 71.746q.117 0 .233-.03a.95.95 0 0 0 .69-1.15c-.01-.042-.265-1.045-1.114-2.985-.97-2.216-5.866-6.12-8.193-6.12a.95.95 0 1 0 0 1.901c1.398 0 5.739 3.352 6.452 4.982.774 1.77 1.01 2.677 1.012 2.685.11.43.496.717.92.717M115.91 79.423c.43 0 .821-.295.924-.733.47-2-.452-10.904-1.043-16.033a.95.95 0 1 0-1.89.218c.94 8.143 1.365 14.18 1.083 15.38a.95.95 0 0 0 .926 1.168M121.577 98.2l.068-.003a.95.95 0 0 0 .88-1.015c-.112-1.577.702-10.523.919-11.393.128-.51-.182-1.025-.692-1.152s-1.025.181-1.152.691c-.26 1.04-1.097 10.227-.97 11.99.036.5.453.882.947.882M190.073 97.491a.95.95 0 0 0 .92-.72c.06-.238.18-.958.385-2.21.197-1.197.442-2.685.566-3.247a.95.95 0 0 0-1.855-.412c-.136.613-.376 2.068-.586 3.35-.138.84-.31 1.885-.353 2.059a.95.95 0 0 0 .923 1.18M34.185 33.937000000000005v-.001M191.37 176.023h.05a.95.95 0 0 0 .9-1l-.355-6.731a.95.95 0 1 0-1.897.1l.354 6.731a.95.95 0 0 0 .948.9M158.999 63.005a.842.842 0 0 1-.817-1.047c.235-.944-.183-3.542-.503-4.959a.843.843 0 0 1 1.643-.37c.094.414.903 4.099.493 5.738a.84.84 0 0 1-.816.638M79.188 35.27a.843.843 0 0 1-.817-1.046c.236-.944-.183-3.542-.502-4.958a.843.843 0 0 1 1.643-.371c.093.415.903 4.098.492 5.738a.84.84 0 0 1-.816.638"/><g fill="#918B86"><path d="M22.131 28.28a.976.976 0 0 1-.952-.77l-2.088-9.674a.976.976 0 1 1 1.907-.412l2.088 9.675a.975.975 0 0 1-.955 1.18M15.415 31.406a.97.97 0 0 1-.607-.213l-8.09-6.449a.976.976 0 0 1 1.216-1.526l8.09 6.45a.976.976 0 0 1-.609 1.738M13.452 39.208q-.086 0-.174-.015L2.763 37.301a.975.975 0 1 1 .345-1.92l10.516 1.891a.975.975 0 0 1-.172 1.936M.975 50.322a.977.977 0 0 1-.26-1.916l10.44-2.893a.976.976 0 0 1 .52 1.88L1.236 50.286a1 1 0 0 1-.26.036"/></g><g fill="#918B86"><path d="M236.762 86.108a1 1 0 0 1-.451-.11l-8.77-4.59a.976.976 0 1 1 .906-1.728l8.768 4.589a.975.975 0 0 1-.453 1.84M229.89 74.358a.975.975 0 0 1-.196-1.931l10.134-2.087a.975.975 0 1 1 .393 1.91l-10.134 2.088a1 1 0 0 1-.197.02M225.155 67.855a.975.975 0 0 1-.628-1.724l8.183-6.867a.976.976 0 0 1 1.255 1.494l-8.184 6.869a.98.98 0 0 1-.626.228M220.14 61.03a.975.975 0 0 1-.888-1.378l4.458-9.873a.976.976 0 0 1 1.779.803l-4.46 9.873a.98.98 0 0 1-.889.574"/></g><g fill="#918B86"><path d="M253.31 70.227a.5.5 0 0 1 .041-.84l60.451-22.048a.5.5 0 0 1 .503.865l-60.452 22.048a.5.5 0 0 1-.543-.025M257.667 132.936a.499.499 0 0 1 .594-.596l31.343 10.728a.501.501 0 0 1-.207.979l-31.345-10.729a.5.5 0 0 1-.385-.382"/></g></svg>